<svg xmlns="http://www.w3.org/2000/svg" width="16" height="16" viewBox="0 0 16 16"><title>ac</title><path d="M14.6 1.333H1.4c-.4 0-.733.333-.733.867v6.6c0 .467.333.867.733.867h13.2c.4 0 .733-.333.733-.867V2.2c0-.533-.333-.867-.733-.867zm0 7.734H1.4a.288.288 0 0 1-.267-.266V2.2c0-.2.133-.267.267-.267h13.2c.133 0 .267.133.267.267v6.6a.288.288 0 0 1-.266.267H14.6z"/><path d="M7.267 3.867c-.133 0-.267-.133-.267-.333s.133-.333.267-.333h2.067c.133 0 .267.133.267.333s-.133.333-.267.333H7.267zm7.2 3.2c.133 0 .267.133.267.333s-.067.333-.267.333H2.2c-.133 0-.267-.133-.267-.333S2 7.067 2.2 7.067h12.267zm0-1.267c.133 0 .267.133.267.333s-.067.333-.267.333H2.2c-.133 0-.267-.133-.267-.333S2 5.8 2.2 5.8h12.267zM7.8 12.267c.333.2.533.533.533.933 0 .333-.2.667-.533.933h-.133c-.066 0-.133-.067-.2-.133-.067-.133 0-.267.067-.333.2-.133.333-.267.333-.4s-.133-.267-.333-.4-.533-.6-.533-.933c0-.333.2-.667.533-.933.133-.067.267 0 .267.133.067.133 0 .267-.067.333a.58.58 0 0 0-.267.466v.001c0 .067.133.2.333.333zm-3.2 0c.333.2.533.533.533.933 0 .333-.2.667-.533.933h-.133c-.066 0-.133-.067-.2-.133-.067-.133 0-.267.067-.333.2-.133.333-.267.333-.4s-.133-.267-.333-.4-.533-.6-.533-.933c0-.333.2-.667.533-.933.133-.067.2 0 .267.133s0 .267-.067.333a.58.58 0 0 0-.267.466v.001c0 .067.133.2.333.333zm6.4 0c.333.2.533.533.533.933 0 .333-.2.667-.533.933h-.133c-.066 0-.133-.067-.2-.133-.067-.133 0-.267.067-.333.2-.133.333-.267.333-.4s-.133-.267-.333-.4-.533-.6-.533-.933c0-.333.2-.667.533-.933.133-.067.267 0 .267.133.067.133 0 .267-.067.333a.58.58 0 0 0-.267.466v.001c0 .067.067.2.333.333z"/></svg>