<!-- Generated by IcoMoon.io -->
<svg version="1.1" xmlns="http://www.w3.org/2000/svg" width="16" height="16" viewBox="0 0 16 16">
<title>ac</title>
<path d="M14.6 1.333h-13.2c-0.4 0-0.733 0.333-0.733 0.867v6.6c0 0.467 0.333 0.867 0.733 0.867h13.2c0.4 0 0.733-0.333 0.733-0.867v-6.6c0-0.533-0.333-0.867-0.733-0.867zM14.6 9.067h-13.2c-0.143-0.010-0.257-0.124-0.267-0.266l-0-0.001v-6.6c0-0.2 0.133-0.267 0.267-0.267h13.2c0.133 0 0.267 0.133 0.267 0.267v6.6c-0.010 0.143-0.124 0.257-0.266 0.267l-0.001 0z"></path>
<path d="M7.267 3.867c-0.133 0-0.267-0.133-0.267-0.333s0.133-0.333 0.267-0.333h2.067c0.133 0 0.267 0.133 0.267 0.333s-0.133 0.333-0.267 0.333h-2.067zM14.467 7.067c0.133 0 0.267 0.133 0.267 0.333s-0.067 0.333-0.267 0.333h-12.267c-0.133 0-0.267-0.133-0.267-0.333s0.067-0.333 0.267-0.333h12.267zM14.467 5.8c0.133 0 0.267 0.133 0.267 0.333s-0.067 0.333-0.267 0.333h-12.267c-0.133 0-0.267-0.133-0.267-0.333s0.067-0.333 0.267-0.333h12.267zM7.8 12.267c0.333 0.2 0.533 0.533 0.533 0.933 0 0.333-0.2 0.667-0.533 0.933h-0.133c-0.066 0-0.133-0.067-0.2-0.133-0.067-0.133 0-0.267 0.067-0.333 0.2-0.133 0.333-0.267 0.333-0.4s-0.133-0.267-0.333-0.4-0.533-0.6-0.533-0.933c0-0.333 0.2-0.667 0.533-0.933 0.133-0.067 0.267 0 0.267 0.133 0.067 0.133 0 0.267-0.067 0.333-0.156 0.101-0.26 0.271-0.267 0.466l-0 0.001c0 0.067 0.133 0.2 0.333 0.333zM4.6 12.267c0.333 0.2 0.533 0.533 0.533 0.933 0 0.333-0.2 0.667-0.533 0.933h-0.133c-0.066 0-0.133-0.067-0.2-0.133-0.067-0.133 0-0.267 0.067-0.333 0.2-0.133 0.333-0.267 0.333-0.4s-0.133-0.267-0.333-0.4-0.533-0.6-0.533-0.933c0-0.333 0.2-0.667 0.533-0.933 0.133-0.067 0.2 0 0.267 0.133s0 0.267-0.067 0.333c-0.156 0.101-0.26 0.271-0.267 0.466l-0 0.001c0 0.067 0.133 0.2 0.333 0.333zM11 12.267c0.333 0.2 0.533 0.533 0.533 0.933 0 0.333-0.2 0.667-0.533 0.933h-0.133c-0.066 0-0.133-0.067-0.2-0.133-0.067-0.133 0-0.267 0.067-0.333 0.2-0.133 0.333-0.267 0.333-0.4s-0.133-0.267-0.333-0.4-0.533-0.6-0.533-0.933c0-0.333 0.2-0.667 0.533-0.933 0.133-0.067 0.267 0 0.267 0.133 0.067 0.133 0 0.267-0.067 0.333-0.156 0.101-0.26 0.271-0.267 0.466l-0 0.001c0 0.067 0.067 0.2 0.333 0.333z"></path>
</svg>
