<!-- Generated by IcoMoon.io -->
<svg version="1.1" xmlns="http://www.w3.org/2000/svg" width="16" height="16" viewBox="0 0 16 16">
<title>allday</title>
<path d="M7.2 2.6c-0.267-0.067-0.467-0.2-0.667-0.267v-0.067c-2.667 0.533-4.667 2.933-4.667 5.733 0 3.2 2.6 5.867 5.867 5.867 1.467 0 2.933-0.533 4-1.6l0.8 0.867c-1.333 1.2-3 1.933-4.8 1.933-3.867-0.067-7.067-3.2-7.067-7.067 0-3.733 2.933-6.8 6.533-7.067v-0.733c0-0.067 0.067-0.2 0.2-0.2h0.067l2.133 1.4c0.067 0.067 0.133 0.2 0.067 0.267 0 0 0 0.067-0.067 0.067l-2.133 1.4c-0.067 0.067-0.2 0.067-0.267-0.067v-0.466zM5.333 8.667c0.933-0.933 1.4-1.4 1.4-1.933 0-0.4-0.2-0.6-0.6-0.6-0.2 0-0.4 0.067-0.6 0.2-0.133 0.133-0.333 0.067-0.4-0.067v-0.067l-0.067-0.133c-0.067-0.067-0.067-0.2 0.067-0.333 0.333-0.267 0.733-0.4 1.133-0.4 0.933 0 1.333 0.667 1.333 1.267 0 0.8-0.6 1.4-1.4 2.2h1.2c0.133 0 0.267 0.133 0.267 0.267v0.2c-0.010 0.143-0.124 0.257-0.266 0.267h-2.201c-0.143-0.010-0.257-0.124-0.267-0.266v-0.134c0-0.067 0-0.133 0.067-0.2l0.333-0.267zM9.467 5.467h0.267c0.133 0 0.267 0.133 0.267 0.267v2.133h0.267c0.133 0 0.267 0.133 0.267 0.267v0.2c-0.010 0.143-0.124 0.257-0.266 0.267h-0.268v0.8c-0.010 0.143-0.124 0.257-0.266 0.267h-0.268c-0.143-0.010-0.257-0.124-0.267-0.266v-0.801h-1.533c-0.143-0.010-0.257-0.124-0.267-0.266v-0.201c0-0.067 0-0.133 0.067-0.133l1.667-2.4c0.067-0.067 0.133-0.133 0.2-0.133h0.133zM9.2 7.867v-1.2c-0.267 0.4-0.6 0.933-0.8 1.2h0.8zM13.733 4.333l-1 0.6c-0.217-0.353-0.46-0.659-0.733-0.933v0l0.867-0.8c0.333 0.333 0.667 0.733 0.867 1.133zM13.533 7.2c-0.065-0.432-0.158-0.814-0.281-1.182l0.014 0.049 1.133-0.4c0.133 0.467 0.267 0.867 0.333 1.333l-1.2 0.2zM12.267 11.667c0.267-0.333 0.467-0.6 0.667-0.933l1.067 0.533c-0.2 0.4-0.467 0.8-0.8 1.133 0 0.067-0.933-0.733-0.933-0.733zM13.6 8.4l1.2 0.067c-0.067 0.467-0.133 0.933-0.267 1.4l-1.133-0.333c0.067-0.333 0.133-0.733 0.2-1.133z"></path>
</svg>
