<svg xmlns="http://www.w3.org/2000/svg" width="16" height="16" viewBox="0 0 16 16"><title>allday</title><path d="M7.2 2.6c-.267-.067-.467-.2-.667-.267v-.067c-2.667.533-4.667 2.933-4.667 5.733 0 3.2 2.6 5.867 5.867 5.867 1.467 0 2.933-.533 4-1.6l.8.867c-1.333 1.2-3 1.933-4.8 1.933-3.867-.067-7.067-3.2-7.067-7.067 0-3.733 2.933-6.8 6.533-7.067V.199c0-.067.067-.2.2-.2h.067l2.133 1.4c.067.067.133.2.067.267 0 0 0 .067-.067.067l-2.133 1.4c-.067.067-.2.067-.267-.067V2.6zM5.333 8.667c.933-.933 1.4-1.4 1.4-1.933 0-.4-.2-.6-.6-.6-.2 0-.4.067-.6.2-.133.133-.333.067-.4-.067V6.2l-.067-.133c-.067-.067-.067-.2.067-.333.333-.267.733-.4 1.133-.4.933 0 1.333.667 1.333 1.267 0 .8-.6 1.4-1.4 2.2h1.2c.133 0 .267.133.267.267v.2a.288.288 0 0 1-.266.267H5.199a.288.288 0 0 1-.267-.266v-.134c0-.067 0-.133.067-.2l.333-.267zm4.134-3.2h.267c.133 0 .267.133.267.267v2.133h.267c.133 0 .267.133.267.267v.2a.288.288 0 0 1-.266.267h-.268v.8a.288.288 0 0 1-.266.267h-.268a.288.288 0 0 1-.267-.266v-.801H7.667a.288.288 0 0 1-.267-.266v-.201c0-.067 0-.133.067-.133l1.667-2.4c.067-.067.133-.133.2-.133h.133zm-.267 2.4v-1.2c-.267.4-.6.933-.8 1.2h.8zm4.533-3.534l-1 .6A5.07 5.07 0 0 0 12 4l.867-.8c.333.333.667.733.867 1.133zm-.2 2.867a6.915 6.915 0 0 0-.281-1.182l.014.049 1.133-.4c.133.467.267.867.333 1.333l-1.2.2zm-1.266 4.467c.267-.333.467-.6.667-.933l1.067.533c-.2.4-.467.8-.8 1.133 0 .067-.933-.733-.933-.733zM13.6 8.4l1.2.067c-.067.467-.133.933-.267 1.4L13.4 9.534c.067-.333.133-.733.2-1.133z"/></svg>