<!-- Generated by IcoMoon.io -->
<svg version="1.1" xmlns="http://www.w3.org/2000/svg" width="16" height="16" viewBox="0 0 16 16">
<title>booth</title>
<path d="M13.8 11.867c0.667 0 1.2-0.533 1.2-1.133v-2.933c0-0.267-0.2-0.467-0.467-0.467h-0.667c-0.2 0-0.4 0.2-0.4 0.467v2.067c0 0.267-0.2 0.533-0.533 0.533-0.267 0-0.467-0.133-0.467-0.4h-8.867c-0.067 0.267-0.267 0.467-0.533 0.467s-0.467-0.2-0.533-0.467c-0.267 0-0.4-0.2-0.4-0.333 0-0.2 0.2-0.333 0.4-0.333v-1.4c0-0.267-0.2-0.533-0.467-0.533h-0.533c-0.267 0-0.533 0.267-0.533 0.533v3.134c0.133 0.533 0.6 0.867 1.133 0.867h0.067c0.067-0.267 0.267-0.467 0.467-0.467 0.067 0 0.133 0 0.267 0.067 0.067-0.067 0.133-0.067 0.267-0.067 0.267 0 0.467 0.2 0.467 0.467h8.733c0.067-0.267 0.267-0.467 0.467-0.467 0.067 0 0.2 0 0.267 0.067 0.067-0.067 0.133-0.067 0.267-0.067 0.2-0.067 0.333 0.133 0.4 0.4zM13.8 12.867v0.2c0 0.333-0.2 0.533-0.467 0.533h-0.467c-0.267 0-0.467-0.267-0.467-0.533v-0.2h-8.733v0.2c0 0.333-0.2 0.533-0.467 0.533h-0.533c-0.267 0-0.467-0.267-0.467-0.533v-0.2h-0.067c-1.067 0-1.933-0.733-2.133-1.8v-3.2c0-0.8 0.667-1.467 1.467-1.533v-1.667c0-1.067 0.933-2 2.067-2h8.933c1.133 0 2.067 0.933 2.067 2v1.6c0.8 0 1.467 0.667 1.467 1.467v2.933c0 1.2-1 2.2-2.2 2.2zM3.667 9.2h8.867v-1.4c0-0.667 0.467-1.267 1.067-1.4v-1.733c0-0.533-0.467-1.067-1.067-1.067h-9c-0.6 0.067-1.067 0.533-1.067 1.067v1.667c0.667 0.133 1.2 0.8 1.2 1.533v1.333z"></path>
</svg>
