<svg xmlns="http://www.w3.org/2000/svg" width="16" height="16" viewBox="0 0 16 16"><title>booth</title><path d="M13.8 11.867c.667 0 1.2-.533 1.2-1.133V7.801c0-.267-.2-.467-.467-.467h-.667c-.2 0-.4.2-.4.467v2.067c0 .267-.2.533-.533.533-.267 0-.467-.133-.467-.4H3.599c-.067.267-.267.467-.533.467s-.467-.2-.533-.467c-.267 0-.4-.2-.4-.333 0-.2.2-.333.4-.333v-1.4c0-.267-.2-.533-.467-.533h-.533c-.267 0-.533.267-.533.533v3.134c.133.533.6.867 1.133.867H2.2c.067-.267.267-.467.467-.467.067 0 .133 0 .267.067.067-.067.133-.067.267-.067.267 0 .467.2.467.467h8.733c.067-.267.267-.467.467-.467.067 0 .2 0 .267.067.067-.067.133-.067.267-.067.2-.067.333.133.4.4zm0 1v.2c0 .333-.2.533-.467.533h-.467c-.267 0-.467-.267-.467-.533v-.2H3.666v.2c0 .333-.2.533-.467.533h-.533c-.267 0-.467-.267-.467-.533v-.2h-.067c-1.067 0-1.933-.733-2.133-1.8v-3.2c0-.8.667-1.467 1.467-1.533V4.667c0-1.067.933-2 2.067-2h8.933c1.133 0 2.067.933 2.067 2v1.6c.8 0 1.467.667 1.467 1.467v2.933c0 1.2-1 2.2-2.2 2.2zM3.667 9.2h8.867V7.8c0-.667.467-1.267 1.067-1.4V4.667c0-.533-.467-1.067-1.067-1.067h-9c-.6.067-1.067.533-1.067 1.067v1.667c.667.133 1.2.8 1.2 1.533V9.2z"/></svg>