<!-- Generated by IcoMoon.io -->
<svg version="1.1" xmlns="http://www.w3.org/2000/svg" width="16" height="16" viewBox="0 0 16 16">
<title>call</title>
<path d="M13.267 13.867c-0.533 0.533-1.133 0.8-1.933 0.8h-0.2c-0.867-0.067-1.667-0.333-2.6-0.8-1.733-0.867-3.333-2.067-4.6-3.533-1.067-1.267-1.733-2.4-2.2-3.733-0.267-0.8-0.467-1.467-0.4-2.267 0.067-0.603 0.334-1.134 0.733-1.533l-0 0 0.933-1c0.4-0.267 0.8-0.467 1.267-0.467s0.867 0.2 1.2 0.533c0.133 0.133 0.333 0.267 0.533 0.533l1.067 1.067c0.733 0.733 0.733 1.733 0 2.467l-0.067 0.067h-0.067l-0.266 0.266c-0.133 0.133-0.267 0.2-0.333 0.333 0.133 0.267 0.333 0.6 0.6 0.867 0.733 0.867 1.467 1.533 2.267 2.067 0 0 0.067 0.067 0.133 0.067s0.067 0.067 0.133 0.067l0.733-0.733c0.333-0.333 0.8-0.533 1.2-0.533 0.467 0 0.867 0.2 1.2 0.533l1.533 1.533c0.333 0.333 0.533 0.8 0.533 1.2 0 0.467-0.2 0.867-0.533 1.2l-0.6 0.6c-0.067 0.133-0.133 0.267-0.267 0.4l-0.267-0.267 0.333 0.133-0.067 0.133c0-0.067 0-0.067 0 0l0.067-0.067c0-0.067-0.067 0.067-0.067 0.067zM11.333 9.133c-0.267 0-0.467 0.133-0.733 0.333l-1.067 1.067-0.4-0.267c-0.067 0-0.133-0.067-0.133-0.067-0.067 0-0.133-0.067-0.133-0.067-0.867-0.533-1.667-1.267-2.4-2.2-0.372-0.359-0.684-0.778-0.921-1.241l-0.012-0.026-0.067-0.267 0.2-0.2c0.067-0.067 0.2-0.133 0.333-0.267 0-0.067 0.067-0.067 0.133-0.133l0.4-0.4c0.467-0.467 0.467-1 0-1.467l-1.6-1.6c-0.2-0.2-0.467-0.333-0.667-0.333-0.267 0.067-0.533 0.133-0.733 0.333l-0.933 1c-0.333 0.333-0.467 0.667-0.533 1.067-0.067 0.667 0.067 1.267 0.333 2 0.467 1.2 1.133 2.333 2.133 3.467 1.2 1.467 2.667 2.6 4.333 3.4 0.867 0.4 1.6 0.667 2.333 0.667h0.133c0.533 0 1-0.2 1.333-0.6l0.533-0.533c0.133-0.133 0.267-0.2 0.333-0.333 0.2-0.2 0.333-0.467 0.333-0.733s-0.133-0.467-0.333-0.733l-1.533-1.533c-0.133-0.2-0.4-0.333-0.667-0.333zM12.733 13.333c0 0.067 0 0.067 0 0z"></path>
</svg>
