<svg xmlns="http://www.w3.org/2000/svg" width="16" height="16" viewBox="0 0 16 16"><title>call</title><path d="M13.267 13.867c-.533.533-1.133.8-1.933.8h-.2c-.867-.067-1.667-.333-2.6-.8-1.733-.867-3.333-2.067-4.6-3.533-1.067-1.267-1.733-2.4-2.2-3.733-.267-.8-.467-1.467-.4-2.267a2.56 2.56 0 0 1 .733-1.533l.933-1c.4-.267.8-.467 1.267-.467s.867.2 1.2.533C5.6 2 5.8 2.134 6 2.4l.267.267.8.8c.733.733.733 1.733 0 2.467L7 6.001h-.067l-.133.133-.133.133c-.133.133-.267.2-.333.333.133.267.333.6.6.867.733.867 1.467 1.533 2.267 2.067 0 0 .067.067.133.067s.067.067.133.067l.733-.733c.333-.333.8-.533 1.2-.533.467 0 .867.2 1.2.533l1.533 1.533c.333.333.533.8.533 1.2 0 .467-.2.867-.533 1.2l-.4.4-.2.2c-.067.133-.133.267-.267.4l-.267-.267.333.133-.067.133c0-.067 0-.067 0 0l.067-.067c0-.067-.067.067-.067.067zm-.6-.467zm-1.334-4.267c-.267 0-.467.133-.733.333l-1.067 1.067-.4-.267c-.067 0-.133-.067-.133-.067-.067 0-.133-.067-.133-.067-.867-.533-1.667-1.267-2.4-2.2a4.694 4.694 0 0 1-.933-1.267l-.067-.267.2-.2c.067-.067.2-.133.333-.267 0-.067.067-.067.133-.133l.333-.333.067-.067c.467-.467.467-1 0-1.467l-.8-.8-.267-.267-.533-.533c-.2-.2-.467-.333-.667-.333-.267.067-.533.133-.733.333l-.933 1c-.333.333-.467.667-.533 1.067-.067.667.067 1.267.333 2 .467 1.2 1.133 2.333 2.133 3.467 1.2 1.467 2.667 2.6 4.333 3.4.867.4 1.6.667 2.333.667h.133c.533 0 1-.2 1.333-.6l.333-.333.2-.2c.133-.133.267-.2.333-.333.2-.2.333-.467.333-.733s-.133-.467-.333-.733l-1.533-1.533c-.133-.2-.4-.333-.667-.333zm1.4 4.2c0 .067 0 .067 0 0z"/></svg>