<!-- Generated by IcoMoon.io -->
<svg version="1.1" xmlns="http://www.w3.org/2000/svg" width="16" height="16" viewBox="0 0 16 16">
<title>camera</title>
<path d="M14 5h-2.8l-0.067-0.667-0.067-0.4c0-0.2-0.133-0.333-0.267-0.467-0.2-0.067-0.333-0.133-0.533-0.133h-4.533c-0.2 0-0.333 0.067-0.533 0.2-0.133 0.133-0.2 0.267-0.267 0.4l-0.067 0.467-0.133 0.667h-2.733c-0.4-0.067-0.667 0.267-0.667 0.6v7c0 0.333 0.267 0.667 0.667 0.667h12c0.4 0 0.667-0.267 0.667-0.667v-7c-0.001-0.368-0.299-0.666-0.667-0.667v0zM13.867 12.533h-11.733v-6.733h2.667c0.4 0 0.733-0.267 0.8-0.667l0.067-0.667 0.067-0.4h4.533l0.067 0.4 0.133 0.667c0.067 0.333 0.4 0.667 0.8 0.667h2.667v6.733h-0.067zM12.6 7.6c0.333 0 0.667-0.267 0.667-0.6s-0.267-0.6-0.667-0.6c-0.333 0-0.667 0.267-0.667 0.6s0.267 0.6 0.667 0.6zM8 6c-0.8 0-1.533 0.267-2.133 0.867-0.6 0.533-0.867 1.267-0.867 2 0 0.8 0.267 1.467 0.867 2s1.267 0.8 2.133 0.867c1.6 0 3-1.333 3-2.867 0-0.8-0.267-1.467-0.867-2-0.6-0.6-1.333-0.867-2.133-0.867zM9.533 10.333c-0.4 0.4-0.933 0.6-1.533 0.6s-1.133-0.2-1.533-0.6c-0.4-0.4-0.667-0.933-0.667-1.467 0-0.6 0.2-1.067 0.667-1.467 0.4-0.4 1-0.6 1.533-0.6 0.6 0 1.133 0.2 1.533 0.6s0.667 0.933 0.667 1.467c0 0.533-0.2 1.067-0.667 1.467z"></path>
</svg>
