<svg xmlns="http://www.w3.org/2000/svg" width="16" height="16" viewBox="0 0 16 16"><title>camera</title><path d="M14 5h-2.8l-.067-.667-.067-.4c0-.2-.133-.333-.267-.467-.2-.067-.333-.133-.533-.133H5.733c-.2 0-.333.067-.533.2-.133.133-.2.267-.267.4l-.067.467-.133.667H2c-.4-.067-.667.267-.667.6v7c0 .333.267.667.667.667h12c.4 0 .667-.267.667-.667v-7A.669.669 0 0 0 14 5zm-.133 7.533H2.134V5.8h2.667c.4 0 .733-.267.8-.667l.067-.667.067-.4h4.533l.067.4.133.667c.067.333.4.667.8.667h2.667v6.733h-.067zM12.6 7.6c.333 0 .667-.267.667-.6S13 6.4 12.6 6.4c-.333 0-.667.267-.667.6s.267.6.667.6zM8 6c-.8 0-1.533.267-2.133.867-.6.533-.867 1.267-.867 2 0 .8.267 1.467.867 2s1.267.8 2.133.867c1.6 0 3-1.333 3-2.867 0-.8-.267-1.467-.867-2C9.533 6.267 8.8 6 8 6zm1.533 4.333c-.4.4-.933.6-1.533.6s-1.133-.2-1.533-.6c-.4-.4-.667-.933-.667-1.467 0-.6.2-1.067.667-1.467.4-.4 1-.6 1.533-.6.6 0 1.133.2 1.533.6s.667.933.667 1.467c0 .533-.2 1.067-.667 1.467z"/></svg>