<!-- Generated by IcoMoon.io -->
<svg version="1.1" xmlns="http://www.w3.org/2000/svg" width="16" height="16" viewBox="0 0 16 16">
<title>carparking</title>
<path d="M15.067 11.133h-0.267c-0.001-1.067-0.866-1.932-1.933-1.933h-1.8l-1.133-2.533c-0.067-0.067-0.133-0.133-0.2-0.133h-6.867c-0.143 0.010-0.257 0.124-0.267 0.266l-0 0.001v2.467h-0.467c-0.143 0.010-0.257 0.124-0.267 0.266l-0 0.001v1.733h-0.933c-0.143 0.010-0.257 0.124-0.267 0.266l-0 0.001v1.467c0 0.133 0.133 0.267 0.267 0.267h1.467c0.133 0.733 0.733 1.2 1.467 1.2s1.333-0.533 1.467-1.2h5.4c0.133 0.733 0.733 1.2 1.467 1.2s1.333-0.533 1.467-1.2h1.467c0.143-0.010 0.257-0.124 0.267-0.266l0-0.001v-1.467c-0.067-0.267-0.2-0.4-0.333-0.4zM5.067 7h4.467l1 2.2h-5.467v-2.2zM3.133 7h1.467v2.2h-1.467v-2.2zM3.867 13.8c-0.533 0-1-0.467-1-1s0.467-1 1-1c0.533 0 1 0.467 1 1-0.067 0.6-0.467 1-1 1zM12.133 13.8c-0.533 0-1-0.467-1-1s0.467-1 1-1c0.533 0 1 0.467 1 1 0 0.6-0.467 1-1 1zM14.867 12.6h-1.267c0-0.133-0.067-0.333-0.133-0.467-0.067-0.067-0.067-0.133-0.133-0.2l-0.133-0.133c-0.067-0.067-0.133-0.067-0.2-0.133-0.067-0.067-0.133-0.067-0.2-0.067h-0.067c-0.067 0-0.133-0.067-0.2-0.067h-0.534c-0.067 0-0.133 0.067-0.2 0.067h-0.067c-0.067 0-0.133 0.067-0.2 0.067-0.067 0.067-0.133 0.067-0.2 0.133l-0.133 0.133c-0.067 0.067-0.067 0.133-0.133 0.2-0.067 0.133-0.133 0.267-0.133 0.467h-5.667c0-0.133-0.067-0.333-0.133-0.467-0.067-0.067-0.067-0.133-0.133-0.2l-0.133-0.133c-0.067-0.067-0.133-0.067-0.2-0.133-0.067-0.067-0.133-0.067-0.2-0.067h-0.067c-0.067 0-0.133-0.067-0.2-0.067h-0.534c-0.067 0-0.133 0.067-0.2 0.067h-0.067c-0.067 0-0.133 0.067-0.2 0.067-0.067 0.067-0.133 0.067-0.2 0.133l-0.133 0.133c-0.2 0-0.267 0.067-0.267 0.133-0.067 0.133-0.133 0.267-0.133 0.467h-1.333v-1h1c0.143-0.010 0.257-0.124 0.267-0.266l0-0.001v-1.733h10.467c0.8 0 1.467 0.667 1.467 1.467v0.2c0 0.133 0.067 0.267 0.2 0.267h0.334v1.133zM12.4 6.733c1.467 0 2.667-1.2 2.667-2.667s-1.2-2.667-2.667-2.667c-1.467 0-2.667 1.2-2.667 2.667s1.2 2.667 2.667 2.667zM12.4 1.867c1.2 0 2.2 1 2.2 2.2s-1 2.2-2.2 2.2-2.2-1-2.2-2.2 1-2.2 2.2-2.2z"></path>
<path d="M11.933 4.267h1.2c0.143-0.010 0.257-0.124 0.267-0.266l0-0.001v-0.933c-0.010-0.143-0.124-0.257-0.266-0.267l-0.001-0h-1.733v2.467h0.467c0.067 0 0.067-1 0.067-1zM11.933 3.333h1v0.467h-1v-0.467z"></path>
</svg>
