<svg xmlns="http://www.w3.org/2000/svg" width="16" height="16" viewBox="0 0 16 16"><title>carparking</title><path d="M15.067 11.133H14.8A1.935 1.935 0 0 0 12.867 9.2h-1.8L9.934 6.667c-.067-.067-.133-.133-.2-.133H2.867A.288.288 0 0 0 2.6 6.8v2.468h-.467a.288.288 0 0 0-.267.266v1.734H.933a.288.288 0 0 0-.267.266v1.468c0 .133.133.267.267.267H2.4c.133.733.733 1.2 1.467 1.2s1.333-.533 1.467-1.2h5.4c.133.733.733 1.2 1.467 1.2s1.333-.533 1.467-1.2h1.467a.288.288 0 0 0 .267-.266v-1.468c-.067-.267-.2-.4-.333-.4zM5.067 7h4.467l1 2.2H5.067V7zM3.133 7H4.6v2.2H3.133V7zm.734 6.8c-.533 0-1-.467-1-1s.467-1 1-1c.533 0 1 .467 1 1-.067.6-.467 1-1 1zm8.266 0c-.533 0-1-.467-1-1s.467-1 1-1c.533 0 1 .467 1 1 0 .6-.467 1-1 1zm2.734-1.2H13.6c0-.133-.067-.333-.133-.467-.067-.067-.067-.133-.133-.2l-.133-.133c-.067-.067-.133-.067-.2-.133-.067-.067-.133-.067-.2-.067h-.067c-.067 0-.133-.067-.2-.067H12c-.067 0-.133.067-.2.067h-.067c-.067 0-.133.067-.2.067-.067.067-.133.067-.2.133l-.133.133c-.067.067-.067.133-.133.2-.067.133-.133.267-.133.467H5.267c0-.133-.067-.333-.133-.467-.067-.067-.067-.133-.133-.2l-.133-.133c-.067-.067-.133-.067-.2-.133-.067-.067-.133-.067-.2-.067h-.067c-.067 0-.133-.067-.2-.067h-.534c-.067 0-.133.067-.2.067H3.4c-.067 0-.133.067-.2.067-.067.067-.133.067-.2.133l-.133.133c-.2 0-.267.067-.267.133-.067.133-.133.267-.133.467H1.134v-1h1a.288.288 0 0 0 .267-.266V9.533h10.467c.8 0 1.467.667 1.467 1.467v.2c0 .133.067.267.2.267h.334V12.6zM12.4 6.733c1.467 0 2.667-1.2 2.667-2.667s-1.2-2.667-2.667-2.667c-1.467 0-2.667 1.2-2.667 2.667s1.2 2.667 2.667 2.667zm0-4.866c1.2 0 2.2 1 2.2 2.2s-1 2.2-2.2 2.2-2.2-1-2.2-2.2 1-2.2 2.2-2.2z"/><path d="M11.933 4.267h1.2a.288.288 0 0 0 .267-.266v-.934a.288.288 0 0 0-.266-.267H11.4v2.467h.467c.067 0 .067-1 .067-1zm0-.934h1V3.8h-1v-.467z"/></svg>