<!-- Generated by IcoMoon.io -->
<svg version="1.1" xmlns="http://www.w3.org/2000/svg" width="16" height="16" viewBox="0 0 16 16">
<title>checkin</title>
<path d="M13.333 14.867l-1.867-3.933-0.2-0.2-0.933-0.4 1.6-2.667c0.333-0.6 0.467-1.333 0.467-2 0-1.2-0.467-2.267-1.333-3.133-0.836-0.781-1.962-1.262-3.199-1.267h-0.001c-1.196 0.006-2.278 0.489-3.067 1.267v0c-1.333 1.333-1.667 3.4-0.8 5.067l1.6 2.667-0.933 0.4c-0.067 0.067-0.133 0.067-0.2 0.2l-1.867 3.933c0.067 0.2 0.067 0.333 0.133 0.4 0.133 0.133 0.267 0.133 0.4 0.133l2.333-1 2.333 1c0.067 0.067 0.2 0.067 0.267 0l2.333-1 2.333 1c0.133 0.067 0.267 0 0.4-0.067 0.2-0.133 0.2-0.267 0.2-0.4zM4.667 7.333c-0.252-0.48-0.4-1.049-0.4-1.652 0-0.005 0-0.011 0-0.016v0.001c0-2 1.667-3.6 3.667-3.667 1 0 1.933 0.333 2.667 1.067 0.697 0.639 1.133 1.554 1.133 2.57 0 0.010 0 0.021 0 0.031v-0.002c0 0.6-0.133 1.133-0.4 1.667l-3 5c-0.067 0.133-0.2 0.2-0.333 0.2s-0.267-0.067-0.333-0.2l-3-5zM10.667 13.6c-0.035-0.031-0.082-0.050-0.133-0.050s-0.098 0.019-0.134 0.051v0l-2.4 1-2.333-1c-0.035-0.031-0.082-0.050-0.133-0.050s-0.098 0.019-0.134 0.051v0l-1.6 0.733 1.333-3 0.867-0.4 1.067 1.733c0.2 0.333 0.533 0.533 0.933 0.533s0.733-0.2 0.933-0.533l1.067-1.733 0.867 0.4 1.4 2.933-1.6-0.667zM8 3.933c0.867 0 1.6 0.667 1.6 1.533s-0.733 1.533-1.6 1.533-1.6-0.667-1.6-1.533c0-0.867 0.733-1.533 1.6-1.533zM8 6.333c0.467 0 0.867-0.4 0.867-0.867s-0.4-0.867-0.867-0.867-0.867 0.4-0.867 0.867 0.4 0.867 0.867 0.867z"></path>
</svg>
