<svg xmlns="http://www.w3.org/2000/svg" width="16" height="16" viewBox="0 0 16 16"><title>checkin</title><path d="M13.333 14.867l-1.867-3.933-.2-.2-.933-.4 1.6-2.667c.333-.6.467-1.333.467-2 0-1.2-.467-2.267-1.333-3.133a4.702 4.702 0 0 0-3.199-1.267h-.001A4.386 4.386 0 0 0 4.8 2.534c-1.333 1.333-1.667 3.4-.8 5.067l1.6 2.667-.933.4c-.067.067-.133.067-.2.2L2.6 14.801c.067.2.067.333.133.4.133.133.267.133.4.133l2.333-1 2.333 1c.067.067.2.067.267 0l2.333-1 2.333 1c.133.067.267 0 .4-.067.2-.133.2-.267.2-.4zM4.667 7.333a3.565 3.565 0 0 1-.4-1.652v-.016.001c0-2 1.667-3.6 3.667-3.667 1 0 1.933.333 2.667 1.067a3.476 3.476 0 0 1 1.133 2.57v.031-.002c0 .6-.133 1.133-.4 1.667l-3 5c-.067.133-.2.2-.333.2s-.267-.067-.333-.2l-3-5zm6 6.267a.2.2 0 0 0-.267.001l-2.4 1-2.333-1a.2.2 0 0 0-.267.001l-1.6.733 1.333-3 .867-.4 1.067 1.733c.2.333.533.533.933.533s.733-.2.933-.533L10 10.935l.867.4 1.4 2.933-1.6-.667zM8 3.933c.867 0 1.6.667 1.6 1.533S8.867 6.999 8 6.999s-1.6-.667-1.6-1.533c0-.867.733-1.533 1.6-1.533zm0 2.4c.467 0 .867-.4.867-.867s-.4-.867-.867-.867-.867.4-.867.867.4.867.867.867z"/></svg>