<!-- Generated by IcoMoon.io -->
<svg version="1.1" xmlns="http://www.w3.org/2000/svg" width="16" height="16" viewBox="0 0 16 16">
<title>child</title>
<path d="M14.533 6.133c-0.867-2.8-3.467-4.8-6.533-4.8s-5.667 2-6.533 4.8c-0.867 0.267-1.467 1.067-1.467 2s0.6 1.733 1.467 2c0.867 2.8 3.467 4.8 6.533 4.8s5.667-2 6.533-4.8c0.867-0.267 1.467-1.067 1.467-2s-0.6-1.733-1.467-2zM1.333 9.4c-0.467-0.267-0.733-0.733-0.733-1.267s0.267-1 0.733-1.267c-0.095 0.38-0.15 0.817-0.15 1.267s0.055 0.886 0.158 1.304l-0.008-0.037zM8 14.333c-3.4 0-6.2-2.8-6.2-6.2 0-2.4 1.333-4.4 3.267-5.467 0.267 0.6 1.2 2.2 3.467 3.067 0.133 0.067 0.333 0 0.4-0.133s0-0.333-0.133-0.4c-2-0.8-2.867-2.267-3.133-2.8 0.667-0.267 1.467-0.467 2.2-0.467 0.2 0.4 0.8 1.4 2 1.933 0.133 0.067 0.333 0 0.4-0.133s0-0.333-0.133-0.4c-0.8-0.4-1.333-1-1.6-1.4 3.2 0.267 5.733 2.933 5.733 6.2-0.067 3.4-2.867 6.2-6.267 6.2zM14.667 9.4c0.063-0.381 0.1-0.819 0.1-1.267s-0.036-0.886-0.106-1.313l0.006 0.047c0.467 0.267 0.733 0.733 0.733 1.267s-0.267 1-0.733 1.267zM5.467 7.8c0.733 0 1.267 0.6 1.267 1.267 0 0.133-0.133 0.333-0.267 0.333s-0.333-0.133-0.333-0.267c0-0.4-0.333-0.667-0.733-0.667-0.333 0-0.667 0.333-0.667 0.667 0 0.133-0.133 0.267-0.267 0.267s-0.267-0.133-0.267-0.267c-0.067-0.8 0.533-1.333 1.267-1.333zM10.533 7.8c0.733 0 1.267 0.6 1.267 1.267 0 0.133-0.133 0.333-0.267 0.333s-0.333-0.133-0.333-0.267c0-0.4-0.333-0.667-0.733-0.667-0.333 0-0.667 0.333-0.667 0.667 0 0.133-0.133 0.267-0.267 0.267s-0.267-0.133-0.267-0.267c0-0.8 0.6-1.333 1.267-1.333zM9.8 11.067c0.133 0.133 0.133 0.333 0 0.4-0.467 0.533-1.067 0.8-1.8 0.8-0.701-0-1.336-0.28-1.8-0.733l0 0.001c-0.133-0.133-0.133-0.333 0-0.4s0.333-0.133 0.4 0c0.733 0.733 2 0.733 2.733 0 0.2-0.2 0.4-0.2 0.467-0.067zM8.4 9.533c0.133 0 0.267 0.133 0.267 0.267s-0.133 0.267-0.267 0.267h-0.8c-0.133 0-0.267-0.133-0.267-0.267s0.133-0.267 0.267-0.267h0.8z"></path>
</svg>
