<svg xmlns="http://www.w3.org/2000/svg" width="16" height="16" viewBox="0 0 16 16"><title>child</title><path d="M14.533 6.133c-.867-2.8-3.467-4.8-6.533-4.8s-5.667 2-6.533 4.8C.6 6.4 0 7.2 0 8.133s.6 1.733 1.467 2c.867 2.8 3.467 4.8 6.533 4.8s5.667-2 6.533-4.8C15.4 9.866 16 9.066 16 8.133s-.6-1.733-1.467-2zM1.333 9.4C.866 9.133.6 8.667.6 8.133s.267-1 .733-1.267a5.42 5.42 0 0 0 0 2.533zM8 14.333c-3.4 0-6.2-2.8-6.2-6.2 0-2.4 1.333-4.4 3.267-5.467.267.6 1.2 2.2 3.467 3.067.133.067.333 0 .4-.133s0-.333-.133-.4c-2-.8-2.867-2.267-3.133-2.8.667-.267 1.467-.467 2.2-.467.2.4.8 1.4 2 1.933.133.067.333 0 .4-.133s0-.333-.133-.4c-.8-.4-1.333-1-1.6-1.4 3.2.267 5.733 2.933 5.733 6.2-.067 3.4-2.867 6.2-6.267 6.2zM14.667 9.4a8.087 8.087 0 0 0 0-2.533c.467.267.733.733.733 1.267s-.267 1-.733 1.267zm-9.2-1.6c.733 0 1.267.6 1.267 1.267 0 .133-.133.333-.267.333s-.333-.133-.333-.267c0-.4-.333-.667-.733-.667-.333 0-.667.333-.667.667 0 .133-.133.267-.267.267S4.2 9.267 4.2 9.133c-.067-.8.533-1.333 1.267-1.333zm5.066 0c.733 0 1.267.6 1.267 1.267 0 .133-.133.333-.267.333s-.333-.133-.333-.267c0-.4-.333-.667-.733-.667-.333 0-.667.333-.667.667 0 .133-.133.267-.267.267s-.267-.133-.267-.267c0-.8.6-1.333 1.267-1.333zM9.8 11.067c.133.133.133.333 0 .4-.467.533-1.067.8-1.8.8a2.578 2.578 0 0 1-1.8-.733c-.133-.133-.133-.333 0-.4s.333-.133.4 0c.733.733 2 .733 2.733 0 .2-.2.4-.2.467-.067zM8.4 9.533c.133 0 .267.133.267.267s-.133.267-.267.267h-.8c-.133 0-.267-.133-.267-.267s.133-.267.267-.267h.8z"/></svg>