<!-- Generated by IcoMoon.io -->
<svg version="1.1" xmlns="http://www.w3.org/2000/svg" width="16" height="16" viewBox="0 0 16 16">
<title>comment</title>
<path d="M4.333 11.6h-2.667c-0.003 0-0.007 0-0.011 0-0.252 0-0.456-0.204-0.456-0.456 0-0.004 0-0.008 0-0.012l-0 0.001v-8.8c0-0.267 0.2-0.467 0.467-0.467h12.6c0.267 0 0.467 0.2 0.467 0.467v8.733c0 0.267-0.2 0.467-0.467 0.467h-6.733l-2.333 2.467c-0.333 0.333-0.8 0.067-0.8-0.333l-0.067-2.067zM7.333 10.667h6.733v-8.067h-12.133v8.067h2.933c0.133 0 0.2 0.067 0.2 0.2v1.933l2.133-2.067c0-0.067 0.067-0.067 0.133-0.067z"></path>
</svg>
