<!-- Generated by IcoMoon.io -->
<svg version="1.1" xmlns="http://www.w3.org/2000/svg" width="16" height="16" viewBox="0 0 16 16">
<title>creditcard</title>
<path d="M15 2.333c-0.267-0.2-0.533-0.333-0.867-0.333h-12.267c-0.333 0-0.667 0.133-0.867 0.333-0.2 0.267-0.333 0.533-0.333 0.867v9.267c0 0.333 0.133 0.6 0.333 0.867 0.267 0.267 0.533 0.333 0.867 0.333h12.2c0.333 0 0.667-0.133 0.867-0.333 0.267-0.2 0.333-0.533 0.333-0.867v-9.267c0.067-0.333-0.067-0.6-0.267-0.867zM14.333 12.467c0 0.067 0 0.133-0.067 0.2h-12.4c-0.067 0-0.133 0-0.2-0.067s-0.067-0.133-0.067-0.2v-4.6h12.733v4.667zM14.333 4.933h-12.667v-1.733c0-0.067 0-0.133 0.067-0.2s0.133-0.067 0.2-0.067h12.2c0.067 0 0.133 0 0.2 0.067s0.067 0.133 0.067 0.2l-0.067 1.733zM2.667 10.667h2v1h-2v-1zM5.667 10.667h3v1h-3v-1z"></path>
</svg>
