<svg xmlns="http://www.w3.org/2000/svg" width="16" height="16" viewBox="0 0 16 16"><title>credit-card</title><path d="M15 2.333c-.267-.2-.533-.333-.867-.333H1.866c-.333 0-.667.133-.867.333-.2.267-.333.533-.333.867v9.267c0 .333.133.6.333.867.267.267.533.333.867.333h12.2c.333 0 .667-.133.867-.333.267-.2.333-.533.333-.867V3.2c.067-.333-.067-.6-.267-.867zm-.667 10.134c0 .067 0 .133-.067.2h-12.4c-.067 0-.133 0-.2-.067s-.067-.133-.067-.2V7.8h12.733v4.667zm0-7.534H1.666V3.2c0-.067 0-.133.067-.2s.133-.067.2-.067h12.2c.067 0 .133 0 .2.067s.067.133.067.2l-.067 1.733zM2.667 10.667h2v1h-2v-1zm3 0h3v1h-3v-1z"/></svg>