<!-- Generated by IcoMoon.io -->
<svg version="1.1" xmlns="http://www.w3.org/2000/svg" width="16" height="16" viewBox="0 0 16 16">
<title>delivery</title>
<path d="M15.933 8.4l-2.333-2.733c-0.067-0.067-0.133-0.133-0.267-0.133h-2.067v-1.867c0-0.2-0.133-0.333-0.333-0.333h-10c-0.2 0-0.333 0.133-0.333 0.333v7h-0.267c-0.2 0-0.333 0.133-0.333 0.333s0.133 0.333 0.333 0.333h0.267v0.4c0 0.2 0.133 0.333 0.333 0.333h0.6c0.133 0.667 0.733 1.133 1.4 1.133s1.267-0.467 1.4-1.133h7.467c0.133 0.667 0.733 1.133 1.4 1.133s1.267-0.467 1.4-1.133h1c0.2 0 0.333-0.133 0.333-0.333v-3.067c0.067-0.133 0.067-0.2 0-0.267zM2.933 12.467c-0.467 0-0.8-0.333-0.8-0.8s0.333-0.8 0.8-0.8 0.8 0.333 0.8 0.8c0.067 0.467-0.333 0.8-0.8 0.8zM10.6 11.333h-6.2c-0.133-0.667-0.733-1.133-1.4-1.133s-1.267 0.467-1.4 1.133h-0.333v-1.4h9.4c-0.067 0-0.067 1.4-0.067 1.4zM10.6 9.333h-9.333v-5.333h9.4c-0.067 0-0.067 5.333-0.067 5.333zM13.6 6.733l1.4 1.6h-1.4v-1.6zM13.267 12.467c-0.467 0-0.8-0.333-0.8-0.8s0.333-0.8 0.8-0.8 0.8 0.333 0.8 0.8-0.333 0.8-0.8 0.8zM15.333 11.333h-0.667c-0.133-0.667-0.733-1.133-1.4-1.133s-1.267 0.467-1.4 1.133h-0.6v-5.133h1.733v2.4c0 0.2 0.133 0.333 0.333 0.333h2v2.4z"></path>
</svg>
