<!-- Generated by IcoMoon.io -->
<svg version="1.1" xmlns="http://www.w3.org/2000/svg" width="16" height="16" viewBox="0 0 16 16">
<title>discount</title>
<path d="M2.133 3.333h11.667c0.533 0 0.867 0.333 0.867 0.8v2.067c0 0.2-0.2 0.4-0.4 0.4-0.667 0-1.267 0.533-1.267 1.267 0 0.667 0.533 1.267 1.267 1.267 0.2 0 0.4 0.2 0.4 0.4v2.067c0 0.467-0.333 0.8-0.8 0.8h-11.733c-0.467 0-0.8-0.333-0.8-0.8v-7.467c0-0.467 0.333-0.8 0.8-0.8zM2.133 11.667h11.667v-1.733c-1-0.2-1.667-1.067-1.667-2.067s0.667-1.867 1.667-2.067v-1.667h-11.667v7.533zM11.333 5v0.8h-0.8v-0.8h0.8zM11.333 10v0.8h-0.8v-0.8h0.8zM11.333 8.333v0.8h-0.8v-0.8h0.8zM11.333 6.667v0.8h-0.8v-0.8h0.8z"></path>
</svg>
