<svg xmlns="http://www.w3.org/2000/svg" width="16" height="16" viewBox="0 0 16 16"><title>discount</title><path d="M2.133 3.333H13.8c.533 0 .867.333.867.8V6.2c0 .2-.2.4-.4.4C13.6 6.6 13 7.133 13 7.867c0 .667.533 1.267 1.267 1.267.2 0 .4.2.4.4v2.067c0 .467-.333.8-.8.8H2.134c-.467 0-.8-.333-.8-.8V4.134c0-.467.333-.8.8-.8zm0 8.334H13.8V9.934c-1-.2-1.667-1.067-1.667-2.067S12.8 6 13.8 5.8V4.133H2.133v7.533zM11.333 5v.8h-.8V5h.8zm0 5v.8h-.8V10h.8zm0-1.667v.8h-.8v-.8h.8zm0-1.666v.8h-.8v-.8h.8z"/></svg>