<svg xmlns="http://www.w3.org/2000/svg" width="16" height="16" viewBox="0 0 16 16"><title>download</title><path d="M7.2 9.6V1.8c0-.267.2-.467.467-.467s.467.2.467.467v7.8l3.6-3.733c.133-.2.467-.2.667-.067s.2.467.067.667v.067l-4.467 4.467c-.2.2-.467.2-.667 0l-4.4-4.533c-.133-.2-.133-.467.067-.6s.467-.133.6 0l3.6 3.733zm5.867.067c0-.267.2-.467.467-.467s.4.2.467.467v4c0 .267-.2.467-.467.467H1.79a.456.456 0 0 1-.456-.456v-.012.001-4c0-.267.2-.467.467-.467s.4.2.467.467V13.2h10.867c-.067 0-.067-3.533-.067-3.533z"/></svg>