<!-- Generated by IcoMoon.io -->
<svg version="1.1" xmlns="http://www.w3.org/2000/svg" width="16" height="16" viewBox="0 0 16 16">
<title>download</title>
<path d="M7.2 9.6v-7.8c0-0.267 0.2-0.467 0.467-0.467s0.467 0.2 0.467 0.467v7.8l3.6-3.733c0.133-0.2 0.467-0.2 0.667-0.067s0.2 0.467 0.067 0.667v0.067l-4.467 4.467c-0.2 0.2-0.467 0.2-0.667 0l-4.4-4.533c-0.133-0.2-0.133-0.467 0.067-0.6s0.467-0.133 0.6 0l3.6 3.733zM13.067 9.667c0-0.267 0.2-0.467 0.467-0.467s0.4 0.2 0.467 0.467v4c0 0.267-0.2 0.467-0.467 0.467h-11.733c-0.003 0-0.007 0-0.011 0-0.252 0-0.456-0.204-0.456-0.456 0-0.004 0-0.008 0-0.012l-0 0.001v-4c0-0.267 0.2-0.467 0.467-0.467s0.4 0.2 0.467 0.467v3.533h10.867c-0.067 0-0.067-3.533-0.067-3.533z"></path>
</svg>
