<svg xmlns="http://www.w3.org/2000/svg" width="16" height="16" viewBox="0 0 16 16"><title>email</title><path d="M13.533 2.667H2.466c-1 0-1.8.8-1.8 1.8v7.6c0 1 .8 1.8 1.8 1.8h11.067c1 0 1.8-.8 1.8-1.8v-7.6c0-1-.8-1.8-1.8-1.8zm1 9.4c0 .533-.467 1-1 1H2.466c-.533 0-1-.467-1-1v-7.6c0-.533.467-1 1-1h11.067c.533 0 1 .467 1 1v7.6zm-4.6-3.934l3.6-3.2c.2-.133.2-.4 0-.6-.133-.2-.4-.2-.6 0L8 8.733l-.933-.867L7 7.799 3.067 4.332a.501.501 0 0 0-.6 0c-.133.2-.133.4 0 .6l3.6 3.267-3.6 3.4c-.133.133-.133.4 0 .6.133.133.4.133.533 0l3.667-3.4 1 .867c.133.133.4.133.533 0l1-.933 3.667 3.467c.133.133.4.133.6 0 .133-.133.133-.4 0-.6L9.934 8.133z"/></svg>