<!-- Generated by IcoMoon.io -->
<svg version="1.1" xmlns="http://www.w3.org/2000/svg" width="16" height="16" viewBox="0 0 16 16">
<title>email</title>
<path d="M13.533 2.667h-11.067c-1 0-1.8 0.8-1.8 1.8v7.6c0 1 0.8 1.8 1.8 1.8h11.067c1 0 1.8-0.8 1.8-1.8v-7.6c0-1-0.8-1.8-1.8-1.8zM14.533 12.067c0 0.533-0.467 1-1 1h-11.067c-0.533 0-1-0.467-1-1v-7.6c0-0.533 0.467-1 1-1h11.067c0.533 0 1 0.467 1 1v7.6zM9.933 8.133l3.6-3.2c0.2-0.133 0.2-0.4 0-0.6-0.133-0.2-0.4-0.2-0.6 0l-4.933 4.4-0.933-0.867-0.067-0.067-3.933-3.467c-0.083-0.062-0.187-0.1-0.3-0.1s-0.217 0.037-0.301 0.101l0.001-0.001c-0.133 0.2-0.133 0.4 0 0.6l3.6 3.267-3.6 3.4c-0.133 0.133-0.133 0.4 0 0.6 0.133 0.133 0.4 0.133 0.533 0l3.667-3.4 1 0.867c0.133 0.133 0.4 0.133 0.533 0l1-0.933 3.667 3.467c0.133 0.133 0.4 0.133 0.6 0 0.133-0.133 0.133-0.4 0-0.6l-3.533-3.467z"></path>
</svg>
