<svg xmlns="http://www.w3.org/2000/svg" width="16" height="16" viewBox="0 0 16 16"><title>filter</title><path d="M2.4 3.867h2C4.6 4.534 5.2 5 5.867 5c.733 0 1.267-.467 1.467-1.133h6.267c.2 0 .4-.2.4-.4s-.2-.4-.4-.4H7.334c-.2-.6-.8-1.067-1.467-1.067-.733 0-1.333.467-1.467 1.133h-2c-.2 0-.4.2-.4.4s.2.333.4.333zM5.867 2.8c.4 0 .733.333.733.733s-.333.733-.733.733-.733-.333-.733-.733c0-.4.333-.733.733-.733zM13.6 7.333c.2 0 .4.2.4.4s-.2.4-.4.4h-2.533c-.2.667-.8 1.133-1.467 1.133s-1.267-.467-1.467-1.133H2.4c-.2 0-.4-.2-.4-.4 0-.267.2-.4.4-.4h5.733c.2-.667.8-1.133 1.467-1.133.733 0 1.267.467 1.467 1.133H13.6zm-4 1.134c.4 0 .733-.4.667-.8 0-.4-.333-.667-.667-.667-.4 0-.733.333-.733.733s.333.733.733.733zm4 3.066c.2 0 .4.2.4.4s-.2.4-.4.4H7.333c-.2.667-.8 1.133-1.467 1.133s-1.267-.467-1.467-1.133h-2c-.2 0-.4-.2-.4-.4s.2-.4.4-.4h2c.2-.667.8-1.133 1.467-1.133.733 0 1.267.467 1.467 1.133H13.6zm-7.733 1.134c.4 0 .733-.333.733-.733s-.333-.733-.733-.733-.733.333-.733.733c0 .4.333.733.733.733z"/></svg>