<!-- Generated by IcoMoon.io -->
<svg version="1.1" xmlns="http://www.w3.org/2000/svg" width="16" height="16" viewBox="0 0 16 16">
<title>filter</title>
<path d="M2.4 3.867h2c0.2 0.667 0.8 1.133 1.467 1.133 0.733 0 1.267-0.467 1.467-1.133h6.267c0.2 0 0.4-0.2 0.4-0.4s-0.2-0.4-0.4-0.4h-6.267c-0.2-0.6-0.8-1.067-1.467-1.067-0.733 0-1.333 0.467-1.467 1.133h-2c-0.2 0-0.4 0.2-0.4 0.4s0.2 0.333 0.4 0.333zM5.867 2.8c0.4 0 0.733 0.333 0.733 0.733s-0.333 0.733-0.733 0.733-0.733-0.333-0.733-0.733c0-0.4 0.333-0.733 0.733-0.733zM13.6 7.333c0.2 0 0.4 0.2 0.4 0.4s-0.2 0.4-0.4 0.4h-2.533c-0.2 0.667-0.8 1.133-1.467 1.133s-1.267-0.467-1.467-1.133h-5.733c-0.2 0-0.4-0.2-0.4-0.4 0-0.267 0.2-0.4 0.4-0.4h5.733c0.2-0.667 0.8-1.133 1.467-1.133 0.733 0 1.267 0.467 1.467 1.133h2.533zM9.6 8.467c0.4 0 0.733-0.4 0.667-0.8 0-0.4-0.333-0.667-0.667-0.667-0.4 0-0.733 0.333-0.733 0.733s0.333 0.733 0.733 0.733zM13.6 11.533c0.2 0 0.4 0.2 0.4 0.4s-0.2 0.4-0.4 0.4h-6.267c-0.2 0.667-0.8 1.133-1.467 1.133s-1.267-0.467-1.467-1.133h-2c-0.2 0-0.4-0.2-0.4-0.4s0.2-0.4 0.4-0.4h2c0.2-0.667 0.8-1.133 1.467-1.133 0.733 0 1.267 0.467 1.467 1.133h6.267zM5.867 12.667c0.4 0 0.733-0.333 0.733-0.733s-0.333-0.733-0.733-0.733-0.733 0.333-0.733 0.733c0 0.4 0.333 0.733 0.733 0.733z"></path>
</svg>
