<svg xmlns="http://www.w3.org/2000/svg" width="16" height="16" viewBox="0 0 16 16"><title>google</title><path d="M13.933 5.933v1.333h1.333v1.333h-1.333v1.333H12.6V8.599h-1.333V7.266H12.6V5.933h1.333zM2 11.267C.2 9.467.2 6.4 2.067 4.6 3.4 3.267 5.334 3 7 3.667l.667.4.733.533-1.2 1.2-.467-.267c-1-.733-2.467-.6-3.4.333-1.133 1.133-1.2 3.067 0 4.267 1.133 1.2 3.067 1.2 4.133 0 .267-.267.6-.733.667-1.2V8.8H5.466V7.333h4.2l.067.4v1c-.067.933-.467 1.933-1.133 2.6-1.733 1.733-4.867 1.733-6.6-.067z"/></svg>