<!-- Generated by IcoMoon.io -->
<svg version="1.1" xmlns="http://www.w3.org/2000/svg" width="16" height="16" viewBox="0 0 16 16">
<title>group</title>
<path d="M15.333 11.133c0-0.867-0.267-1.667-0.733-2.4-0.333-0.533-0.8-0.933-1.333-1.267 0.667-0.6 1-1.467 1-2.333 0-1.767-1.433-3.2-3.2-3.2v0c-1.067 0-2 0.533-2.6 1.333-0.14-0.032-0.301-0.050-0.466-0.050s-0.326 0.018-0.481 0.053l0.015-0.003c-0.6-0.867-1.6-1.333-2.6-1.333-1.8 0.067-3.2 1.533-3.2 3.267 0 0.933 0.4 1.733 1 2.333-0.533 0.333-1 0.733-1.333 1.267-0.452 0.653-0.725 1.46-0.733 2.331l-0 0.002v1.8h3.067v1.333h8.533v-1.333h3.067v-1.8zM11.067 2.8c1.333 0 2.4 1.067 2.4 2.4s-1.067 2.4-2.4 2.4h-0.067c0.067-0.133 0.067-0.267 0.133-0.333v-0.133c0-0.133 0-0.2 0.067-0.333v-0.533c-0.144-1.152-0.859-2.109-1.847-2.591l-0.020-0.009c0.404-0.523 1.028-0.859 1.732-0.867l0.001-0zM7.133 4.267c0.133-0.067 0.2-0.067 0.267-0.067 0.467-0.133 0.933-0.067 1.4 0.067 0.867 0.333 1.467 1.067 1.533 2v0.734c0 0.067-0.067 0.2-0.067 0.267v0.467s0 0.067-0.067 0.067c0 0 0 0.067-0.067 0.067 0 0 0 0.067-0.067 0.067v0.133c0 0.067-0.067 0.067-0.133 0.133l-0.334 0.334c-0.4 0.267-0.867 0.467-1.4 0.467s-1-0.133-1.4-0.467l-0.467-0.467v-0.134s0-0.067-0.067-0.067c0 0 0-0.067-0.067-0.067 0 0 0-0.067-0.067-0.067v-1.405c-0.4-1 0.2-1.733 1-2.067zM2.533 5.2c-0-0.003-0-0.006-0-0.010 0-1.32 1.070-2.39 2.39-2.39 0.004 0 0.007 0 0.011 0h-0.001c0.667 0 1.333 0.267 1.8 0.8-1.043 0.465-1.788 1.431-1.931 2.584l-0.002 0.016v0.534c0 0.133 0 0.2 0.067 0.333v0.133c0.003 0.129 0.053 0.245 0.133 0.333l-0-0c-1.333 0.133-2.467-0.933-2.467-2.333 0 0.067 0 0 0 0zM4.4 10.2c-0.067 0.067-0.067 0.067-0.067 0.133v0.067c-0.067 0.133-0.133 0.267-0.2 0.333v0.067c0 0.067 0 0.067-0.067 0.133l-0.067 0.133c0 0.067 0 0.067-0.067 0.133v0.067c-0.067 0.133-0.067 0.267-0.067 0.4v0.467h-2.4v-1c0-1.333 0.8-2.533 2-3.133 0.6 0.333 1.267 0.4 1.933 0.333 0 0.067 0.067 0.067 0.067 0.133v0.067l0.334 0.334c-0.067 0-0.067 0.067-0.133 0.067-0.067 0.067-0.133 0.067-0.2 0.133-0.067 0-0.067 0.067-0.133 0.067l-0.2 0.2c-0.067 0-0.067 0.067-0.067 0.067l-0.134 0.134-0.267 0.333-0.067 0.067c-0.052 0.104-0.119 0.192-0.199 0.266l-0.001 0.001zM4.533 13.467v-3.002l0.467-0.467c0.333 0.267 0.333 0.2 0.4 0.2l0.067-0.067c0.2-0.2 0.4-0.4 0.6-0.533l0.4-0.2h0.067c0.467 0.267 0.933 0.333 1.467 0.333s1.067-0.133 1.467-0.333h0.067c0.133 0.067 0.2 0.133 0.333 0.2s0.267 0.2 0.333 0.267l0.8 0.8s0 0.067 0.067 0.067v3.067l-6.533-0.333zM12.2 12.133v-0.534c0-0.133-0.067-0.267-0.067-0.4v-0.067c0-0.067 0-0.067-0.067-0.133 0-0.067-0.067-0.067-0.067-0.133 0-0.067 0-0.067-0.067-0.133v-0.067s0-0.067-0.067-0.067v-0.067c-0.067-0.067-0.067-0.133-0.133-0.2v-0.067l-0.067-0.067v-0.067c-0.067-0.067-0.133-0.133-0.133-0.267v-0.067l-0.067-0.067c0-0.067-0.067-0.067-0.067-0.133l-0.467-0.467c-0.067 0-0.067-0.067-0.133-0.067-0.067-0.067-0.133-0.133-0.2-0.133s-0.067-0.067-0.133-0.067l0.2-0.2v-0.067l0.067-0.067c0-0.067 0.067-0.067 0.067-0.133 0.667 0.067 1.333 0 1.933-0.333 1.2 0.6 2 1.8 2 3.133v1l-2.533-0.067z"></path>
</svg>
