<svg xmlns="http://www.w3.org/2000/svg" width="16" height="16" viewBox="0 0 16 16"><title>group</title><path d="M15.333 11.133c0-.867-.267-1.667-.733-2.4-.333-.533-.8-.933-1.333-1.267.667-.6 1-1.467 1-2.333a3.2 3.2 0 0 0-3.2-3.2c-1.067 0-2 .533-2.6 1.333a2.182 2.182 0 0 0-.947.003l.015-.003c-.6-.867-1.6-1.333-2.6-1.333-1.8.067-3.2 1.533-3.2 3.267 0 .933.4 1.733 1 2.333-.533.333-1 .733-1.333 1.267a4.16 4.16 0 0 0-.733 2.331v1.802h3.067v1.333h8.533v-1.333h3.067v-1.8zM11.067 2.8c1.333 0 2.4 1.067 2.4 2.4s-1.067 2.4-2.4 2.4H11c.067-.133.067-.267.133-.333v-.133c0-.133 0-.2.067-.333v-.533a3.337 3.337 0 0 0-1.847-2.591l-.02-.009a2.213 2.213 0 0 1 1.732-.867h.001zM7.133 4.267c.133-.067.2-.067.267-.067.467-.133.933-.067 1.4.067.867.333 1.467 1.067 1.533 2v.734c0 .067-.067.2-.067.267v.467s0 .067-.067.067c0 0 0 .067-.067.067 0 0 0 .067-.067.067v.133c0 .067-.067.067-.133.133l-.334.334c-.4.267-.867.467-1.4.467s-1-.133-1.4-.467l-.467-.467v-.134s0-.067-.067-.067c0 0 0-.067-.067-.067 0 0 0-.067-.067-.067V6.329c-.4-1 .2-1.733 1-2.067zm-4.6.933v-.01a2.39 2.39 0 0 1 2.39-2.39h.011-.001c.667 0 1.333.267 1.8.8a3.274 3.274 0 0 0-1.931 2.584L4.8 6.2v.534c0 .133 0 .2.067.333V7.2A.51.51 0 0 0 5 7.533C3.667 7.666 2.533 6.6 2.533 5.2c0 .067 0 0 0 0zm1.867 5c-.067.067-.067.067-.067.133v.067c-.067.133-.133.267-.2.333v.067c0 .067 0 .067-.067.133l-.067.133c0 .067 0 .067-.067.133v.067c-.067.133-.067.267-.067.4v.467h-2.4v-1c0-1.333.8-2.533 2-3.133.6.333 1.267.4 1.933.333 0 .067.067.067.067.133v.067l.334.334c-.067 0-.067.067-.133.067-.067.067-.133.067-.2.133-.067 0-.067.067-.133.067l-.2.2c-.067 0-.067.067-.067.067l-.134.134-.267.333-.067.067a.918.918 0 0 1-.199.266l-.001.001zm.133 3.267v-3.002L5 9.998c.333.267.333.2.4.2l.067-.067c.2-.2.4-.4.6-.533l.4-.2h.067c.467.267.933.333 1.467.333s1.067-.133 1.467-.333h.067c.133.067.2.133.333.2s.267.2.333.267l.8.8s0 .067.067.067v3.067l-6.533-.333zm7.667-1.334v-.534c0-.133-.067-.267-.067-.4v-.067c0-.067 0-.067-.067-.133 0-.067-.067-.067-.067-.133 0-.067 0-.067-.067-.133v-.067s0-.067-.067-.067v-.067c-.067-.067-.067-.133-.133-.2v-.067l-.067-.067v-.067c-.067-.067-.133-.133-.133-.267v-.067l-.067-.067c0-.067-.067-.067-.067-.133l-.467-.467c-.067 0-.067-.067-.133-.067-.067-.067-.133-.133-.2-.133s-.067-.067-.133-.067l.2-.2v-.067l.067-.067c0-.067.067-.067.067-.133.667.067 1.333 0 1.933-.333 1.2.6 2 1.8 2 3.133v1l-2.533-.067z"/></svg>