<svg xmlns="http://www.w3.org/2000/svg" width="16" height="16" viewBox="0 0 16 16"><title>home</title><path d="M1.2 9.133h1.2v4.8c0 .267.2.533.533.533H6.4c.267 0 .533-.2.533-.533v-3.467h2.133v3.467c0 .267.2.533.533.533h3.333c.267 0 .533-.2.533-.533v-4.8h1.467c.2 0 .4-.133.467-.333s.067-.4-.133-.533L8.599 1.534c-.2-.2-.533-.2-.733 0L.799 8.267c-.133.133-.2.4-.133.533.133.2.267.333.533.333zM8.133 2.6L13.6 8.133h-.733c-.267 0-.533.2-.533.533v4.8h-2.333V9.999c0-.267-.2-.533-.533-.533H6.401c-.267 0-.533.2-.533.533v3.467H3.401v-4.8c0-.267-.2-.533-.533-.533h-.4L8.135 2.6z"/></svg>