<!-- Generated by IcoMoon.io -->
<svg version="1.1" xmlns="http://www.w3.org/2000/svg" width="16" height="16" viewBox="0 0 16 16">
<title>home</title>
<path d="M1.2 9.133h1.2v4.8c0 0.267 0.2 0.533 0.533 0.533h3.467c0.267 0 0.533-0.2 0.533-0.533v-3.467h2.133v3.467c0 0.267 0.2 0.533 0.533 0.533h3.333c0.267 0 0.533-0.2 0.533-0.533v-4.8h1.467c0.2 0 0.4-0.133 0.467-0.333s0.067-0.4-0.133-0.533l-6.667-6.733c-0.2-0.2-0.533-0.2-0.733 0l-7.067 6.733c-0.133 0.133-0.2 0.4-0.133 0.533 0.133 0.2 0.267 0.333 0.533 0.333zM8.133 2.6l5.467 5.533h-0.733c-0.267 0-0.533 0.2-0.533 0.533v4.8h-2.333v-3.467c0-0.267-0.2-0.533-0.533-0.533h-3.067c-0.267 0-0.533 0.2-0.533 0.533v3.467h-2.467v-4.8c0-0.267-0.2-0.533-0.533-0.533h-0.4l5.667-5.533z"></path>
</svg>
