<svg xmlns="http://www.w3.org/2000/svg" width="16" height="16" viewBox="0 0 16 16"><title>instagram</title><path d="M10.933.667H5.066c-2.467 0-4.4 1.933-4.4 4.4V11c0 2.4 1.933 4.333 4.4 4.333h5.933c2.4 0 4.4-1.933 4.4-4.4V5.066c-.067-2.467-2-4.4-4.467-4.4zm2.934 10.266c0 1.6-1.267 2.867-2.867 2.867H5.067A2.846 2.846 0 0 1 2.2 10.933V5.066c0-1.6 1.267-2.867 2.867-2.867H11c1.6 0 2.867 1.267 2.867 2.867v5.867zM8 4.2A3.798 3.798 0 0 0 4.2 8c0 2.067 1.667 3.8 3.8 3.8 2.067 0 3.8-1.667 3.8-3.8 0-2.067-1.733-3.8-3.8-3.8zm3.8.933c.533 0 .933-.4.933-.933s-.4-.867-.933-.867-.933.4-.933.933.4.867.933.867zm-3.8 5.2c-1.267 0-2.333-1-2.333-2.267s1-2.333 2.267-2.333h.067c1.267 0 2.333 1.067 2.333 2.333 0 1.2-1.067 2.267-2.333 2.267z"/></svg>