<!-- Generated by IcoMoon.io -->
<svg version="1.1" xmlns="http://www.w3.org/2000/svg" width="16" height="16" viewBox="0 0 16 16">
<title>instagram</title>
<path d="M10.933 0.667h-5.867c-2.467 0-4.4 1.933-4.4 4.4v5.933c0 2.4 1.933 4.333 4.4 4.333h5.933c2.4 0 4.4-1.933 4.4-4.4v-5.867c-0.067-2.467-2-4.4-4.467-4.4zM13.867 10.933c0 1.6-1.267 2.867-2.867 2.867h-5.933c-1.6 0-2.867-1.267-2.867-2.867v-5.867c0-1.6 1.267-2.867 2.867-2.867h5.933c1.6 0 2.867 1.267 2.867 2.867v5.867zM8 4.2c-2.067 0-3.8 1.667-3.8 3.8 0 2.067 1.667 3.8 3.8 3.8 2.067 0 3.8-1.667 3.8-3.8 0-2.067-1.733-3.8-3.8-3.8zM11.8 5.133c0.533 0 0.933-0.4 0.933-0.933s-0.4-0.867-0.933-0.867v0c-0.533 0-0.933 0.4-0.933 0.933s0.4 0.867 0.933 0.867c0 0 0 0 0 0zM8 10.333c-1.267 0-2.333-1-2.333-2.267s1-2.333 2.267-2.333c0 0 0.067 0 0.067 0 1.267 0 2.333 1.067 2.333 2.333 0 1.2-1.067 2.267-2.333 2.267v0z"></path>
</svg>
