<!-- Generated by IcoMoon.io -->
<svg version="1.1" xmlns="http://www.w3.org/2000/svg" width="16" height="16" viewBox="0 0 16 16">
<title>landmark</title>
<path d="M12.4 12.867s-0.933-0.667-1.667-2.267h0.4v-0.8h-0.733c-0.133-0.4-0.267-0.8-0.4-1.267-0.067-0.133-0.067-0.333-0.133-0.467h0.467v-0.8h-0.6c-0.133-0.8-0.267-1.667-0.267-2.533h0.333v-0.733h-0.4v-1.667h-0.733v-1h-0.8v1h-0.733v1.667h-0.4v0.8h0.333c-0.067 0.867-0.133 1.667-0.267 2.533h-0.6v0.8h0.467c0 0.133-0.067 0.333-0.133 0.467-0.133 0.467-0.2 0.867-0.4 1.267h-0.667v0.8h0.4c-0.2 0.467-0.467 0.867-0.733 1.267-0.533 0.667-0.933 1-0.933 1h-0.2v1.733h3.4v-1.4c0-0.467 0.4-0.867 0.867-0.867s0.867 0.4 0.867 0.867v1.4h3.4v-1.733l-0.133-0.067zM7.933 3.067h0.6v0.867h-0.667c0.067-0.333 0.067-0.6 0.067-0.867zM7.933 4.733h0.733c0.067 0.667 0.133 1.533 0.267 2.467h-1.333c0.2-0.867 0.267-1.733 0.333-2.467zM7.333 8.667c0.067-0.2 0.067-0.4 0.133-0.667h1.6c0.067 0.2 0.067 0.4 0.133 0.667 0.067 0.4 0.2 0.8 0.333 1.133h-2.533c0.138-0.324 0.254-0.704 0.328-1.098l0.005-0.035zM6.667 13.867h-1.867v-0.533h1.867v0.533zM8.267 11.667c-0.667 0-1.2 0.4-1.467 0.933h-1.333c0.467-0.6 0.867-1.267 1.2-2h3.133c0.333 0.733 0.733 1.4 1.2 2h-1.333c-0.2-0.6-0.8-0.933-1.4-0.933zM11.733 13.867h-1.867v-0.533h1.867v0.533z"></path>
</svg>
