<svg xmlns="http://www.w3.org/2000/svg" width="16" height="16" viewBox="0 0 16 16"><title>landmark</title><path d="M12.4 12.867s-.933-.667-1.667-2.267h.4v-.8H10.4c-.133-.4-.267-.8-.4-1.267-.067-.133-.067-.333-.133-.467h.467v-.8h-.6c-.133-.8-.267-1.667-.267-2.533H9.8V4h-.4V2.333h-.733v-1h-.8v1h-.733V4h-.4v.8h.333C7 5.667 6.934 6.467 6.8 7.333h-.6v.8h.467c0 .133-.067.333-.133.467-.133.467-.2.867-.4 1.267h-.667v.8h.4c-.2.467-.467.867-.733 1.267-.533.667-.933 1-.933 1h-.2v1.733h3.4v-1.4c0-.467.4-.867.867-.867s.867.4.867.867v1.4h3.4v-1.733l-.133-.067zm-4.467-9.8h.6v.867h-.667c.067-.333.067-.6.067-.867zm0 1.666h.733c.067.667.133 1.533.267 2.467H7.6c.2-.867.267-1.733.333-2.467zm-.6 3.934c.067-.2.067-.4.133-.667h1.6c.067.2.067.4.133.667.067.4.2.8.333 1.133H6.999a5.6 5.6 0 0 0 .333-1.133zm-.666 5.2H4.8v-.533h1.867v.533zm1.6-2.2c-.667 0-1.2.4-1.467.933H5.467c.467-.6.867-1.267 1.2-2H9.8c.333.733.733 1.4 1.2 2H9.667c-.2-.6-.8-.933-1.4-.933zm3.466 2.2H9.866v-.533h1.867v.533z"/></svg>