<!-- Generated by IcoMoon.io -->
<svg version="1.1" xmlns="http://www.w3.org/2000/svg" width="16" height="16" viewBox="0 0 16 16">
<title>like</title>
<path d="M11 2c2.067 0 3.667 1.6 3.667 3.667 0 0.667-0.133 1.267-0.467 1.933-0.4 0.867-1.133 1.667-2.267 2.8-0.4 0.4-2.733 2.667-3.467 3.4l-0.467 0.467-0.4-0.4c-0.733-0.733-3.133-3-3.467-3.4-1.133-1.133-1.8-2-2.267-2.8-0.4-0.733-0.533-1.4-0.533-2 0-2.067 1.6-3.667 3.667-3.667 1.2 0 2.333 0.533 3 1.467 0.707-0.89 1.786-1.458 2.999-1.467h0.001z"></path>
</svg>
