<!-- Generated by IcoMoon.io -->
<svg version="1.1" xmlns="http://www.w3.org/2000/svg" width="16" height="16" viewBox="0 0 16 16">
<title>line</title>
<path d="M8 0c4.4 0 8 3.067 8 6.867 0 1.533-0.6 2.933-1.733 4.267-1.333 1.6-4.733 4.133-6.067 4.667-0.8 0.333-1.4 0.067-1.4-0.667 0-0.067 0-0.2 0-0.267v-0.067l0.133-0.667c0-0.2 0-0.4 0-0.467 0 0.067-0.133 0-0.267-0.067-3.8-0.4-6.667-3.267-6.667-6.733 0-3.8 3.6-6.867 8-6.867zM13.467 10.467c1-1.133 1.467-2.267 1.467-3.533 0-3.2-3.067-5.8-6.933-5.8s-6.933 2.667-6.933 5.8c0 2.867 2.4 5.267 5.8 5.733 0.533 0.133 0.867 0.333 1.067 0.733 0.133 0.267 0.133 0.6 0.067 1l-0.067 0.267v0.133c1.267-0.6 4.333-2.867 5.533-4.333v0zM6.667 5.533c0.067 0 0.133 0.067 0.133 0.133v3.4c0 0.067-0.067 0.133-0.133 0.133h-0.4c-0.067 0-0.133-0.067-0.133-0.133v-3.4c0-0.067 0.067-0.133 0.133-0.133h0.4zM10.333 5.533c0.067 0 0.133 0.067 0.133 0.133v3.4c0 0.067-0.067 0.133-0.133 0.133h-0.533c0 0 0 0-0.067 0v0c0 0 0 0 0 0v0 0c0 0 0 0 0 0v0 0 0c0 0 0 0-0.067-0.067l-1.467-2.133v2.067c0 0.067-0.067 0.133-0.133 0.133h-0.533c-0.067 0-0.133-0.067-0.133-0.133v-3.4c0-0.067 0.067-0.133 0.133-0.133h0.533c0 0 0 0 0 0v0c0 0 0 0 0 0v0c0 0 0 0 0 0v0 0 0 0c0 0 0 0 0 0v0c0 0 0 0 0 0l1.467 2.133v-2c0-0.067 0.067-0.133 0.133-0.133h0.667zM5.333 8.4c0.067 0 0.133 0.067 0.133 0.133v0.533c0 0.067-0.067 0.133-0.133 0.133h-2.133c-0.067 0-0.067 0-0.133-0.067 0 0 0 0 0 0v0c0 0-0.067-0.067-0.067-0.133v-3.333c0-0.067 0.067-0.133 0.133-0.133h0.533c0.067 0 0.133 0.067 0.133 0.133v2.733c0.067 0 1.533 0 1.533 0zM13.467 6.4h-1.467v0.6h1.467c0.067 0 0.133 0.067 0.133 0.133v0.533c0 0.067-0.067 0.133-0.133 0.133h-1.467v0.6h1.467c0.067 0 0.133 0.067 0.133 0.133v0.533c0 0.067-0.067 0.133-0.133 0.133h-2.2c-0.067 0-0.067 0-0.133-0.067 0 0-0.067-0.067-0.067-0.133v-3.333c0-0.067 0-0.067 0.067-0.133 0 0 0 0 0 0s0 0 0 0 0.067-0.067 0.133-0.067h2.2c0.067 0 0.133 0.067 0.133 0.133v0.533c0 0.2-0.067 0.267-0.133 0.267v0z"></path>
</svg>
