<svg xmlns="http://www.w3.org/2000/svg" width="16" height="16" viewBox="0 0 16 16"><title>line</title><path d="M8 0c4.4 0 8 3.067 8 6.867 0 1.533-.6 2.933-1.733 4.267-1.333 1.6-4.733 4.133-6.067 4.667-.8.333-1.4.067-1.4-.667V14.8l.133-.667v-.467c0 .067-.133 0-.267-.067-3.8-.4-6.667-3.267-6.667-6.733 0-3.8 3.6-6.867 8-6.867zm5.467 10.467c1-1.133 1.467-2.267 1.467-3.533 0-3.2-3.067-5.8-6.933-5.8s-6.933 2.667-6.933 5.8c0 2.867 2.4 5.267 5.8 5.733.533.133.867.333 1.067.733.133.267.133.6.067 1l-.067.267v.133c1.267-.6 4.333-2.867 5.533-4.333zm-6.8-4.934c.067 0 .133.067.133.133v3.4c0 .067-.067.133-.133.133h-.4c-.067 0-.133-.067-.133-.133v-3.4c0-.067.067-.133.133-.133h.4zm3.666 0c.067 0 .133.067.133.133v3.4c0 .067-.067.133-.133.133h-.6l-.067-.067-1.467-2.133v2.067c0 .067-.067.133-.133.133h-.533c-.067 0-.133-.067-.133-.133v-3.4c0-.067.067-.133.133-.133h.533l1.467 2.133v-2c0-.067.067-.133.133-.133h.667zm-5 2.867c.067 0 .133.067.133.133v.533c0 .067-.067.133-.133.133H3.2c-.067 0-.067 0-.133-.067 0 0-.067-.067-.067-.133V5.666c0-.067.067-.133.133-.133h.533c.067 0 .133.067.133.133v2.733h1.533zm8.134-2H12V7h1.467c.067 0 .133.067.133.133v.533c0 .067-.067.133-.133.133H12v.6h1.467c.067 0 .133.067.133.133v.533c0 .067-.067.133-.133.133h-2.2c-.067 0-.067 0-.133-.067 0 0-.067-.067-.067-.133V5.665c0-.067 0-.067.067-.133s.067-.067.133-.067h2.2c.067 0 .133.067.133.133v.533c0 .2-.067.267-.133.267z"/></svg>