<!-- Generated by IcoMoon.io -->
<svg version="1.1" xmlns="http://www.w3.org/2000/svg" width="16" height="16" viewBox="0 0 16 16">
<title>mobile</title>
<path d="M10.8 16s1.667 0 1.667-1.667v-12.667c0-1.667-1.667-1.667-1.667-1.667h-5.8s-1.667 0-1.667 1.667v12.667c0 1.667 1.667 1.667 1.667 1.667h5.8zM7.867 15.333c-0.44-0.006-0.794-0.36-0.8-0.799v-0.001c0-0.467 0.4-0.8 0.8-0.8 0.467 0 0.8 0.4 0.8 0.8 0.067 0.4-0.333 0.8-0.8 0.8zM6.667 1c0-0.133 0.067-0.2 0.133-0.2h2.267c0.067 0 0.133 0.067 0.133 0.2v0.067c0 0.133-0.067 0.2-0.133 0.2h-2.267c-0.067 0-0.133-0.133-0.133-0.267zM4.133 2.067h7.467v11h-7.467v-11z"></path>
</svg>
