<!-- Generated by IcoMoon.io -->
<svg version="1.1" xmlns="http://www.w3.org/2000/svg" width="16" height="16" viewBox="0 0 16 16">
<title>money</title>
<path d="M8 1.333c-3.667 0-6.667 3-6.667 6.667s3 6.667 6.667 6.667 6.667-3 6.667-6.667-3-6.667-6.667-6.667zM8 13.8c-3.2 0-5.8-2.6-5.8-5.8s2.6-5.8 5.8-5.8 5.8 2.6 5.8 5.8-2.6 5.8-5.8 5.8zM8 7.6v-2.533c0.267 0.067 0.467 0.267 0.6 0.467s0.4 0.267 0.6 0.133c0.2-0.133 0.267-0.4 0.133-0.6-0.267-0.467-0.8-0.8-1.333-0.933v-0.667c0-0.267-0.2-0.467-0.4-0.467-0.267 0-0.4 0.2-0.4 0.467v0.733c-1 0.133-1.733 1-1.733 2.067s0.733 1.933 1.667 2.133v2.533c-0.267-0.067-0.467-0.267-0.6-0.467s-0.4-0.267-0.6-0.133c-0.2 0.133-0.267 0.4-0.133 0.6 0.267 0.467 0.8 0.8 1.333 0.933v0.733c0 0.267 0.2 0.467 0.4 0.467s0.4-0.2 0.4-0.467v-0.733c0.933-0.2 1.667-1.067 1.667-2.133s-0.667-1.933-1.6-2.133zM6.333 6.267c0-0.533 0.333-1 0.8-1.2v2.4c-0.467-0.2-0.8-0.667-0.8-1.2zM8 10.933v-2.4c0.467 0.2 0.8 0.667 0.8 1.2s-0.333 1-0.8 1.2z"></path>
</svg>
