<svg xmlns="http://www.w3.org/2000/svg" width="16" height="16" viewBox="0 0 16 16"><title>money</title><path d="M8 1.333c-3.667 0-6.667 3-6.667 6.667s3 6.667 6.667 6.667 6.667-3 6.667-6.667-3-6.667-6.667-6.667zM8 13.8c-3.2 0-5.8-2.6-5.8-5.8S4.8 2.2 8 2.2s5.8 2.6 5.8 5.8-2.6 5.8-5.8 5.8zm0-6.2V5.067c.267.067.467.267.6.467s.4.267.6.133c.2-.133.267-.4.133-.6-.267-.467-.8-.8-1.333-.933v-.667C8 3.2 7.8 3 7.6 3c-.267 0-.4.2-.4.467V4.2c-1 .133-1.733 1-1.733 2.067S6.2 8.2 7.134 8.4v2.533c-.267-.067-.467-.267-.6-.467s-.4-.267-.6-.133c-.2.133-.267.4-.133.6.267.467.8.8 1.333.933v.733c0 .267.2.467.4.467s.4-.2.4-.467v-.733c.933-.2 1.667-1.067 1.667-2.133S8.934 7.8 8.001 7.6zM6.333 6.267c0-.533.333-1 .8-1.2v2.4c-.467-.2-.8-.667-.8-1.2zM8 10.933v-2.4c.467.2.8.667.8 1.2s-.333 1-.8 1.2z"/></svg>