<!-- Generated by IcoMoon.io -->
<svg version="1.1" xmlns="http://www.w3.org/2000/svg" width="16" height="16" viewBox="0 0 16 16">
<title>motor-parking</title>
<path d="M14.133 0.933h-2.867c-0.143 0.010-0.257 0.124-0.267 0.266v0.401l-1.067 0.8c-0.2-1-1.067-1.733-2.067-1.733s-1.867 0.733-2.067 1.667l-1.067-0.733v-0.4c-0.010-0.143-0.124-0.257-0.266-0.267h-2.868c-0.143 0.010-0.257 0.124-0.267 0.266v1.068c0 0.133 0.133 0.267 0.267 0.267h2.867c0.143-0.010 0.257-0.124 0.267-0.266v-0.001l0.867 0.6c-0.4 0.333-0.667 0.8-0.667 1.333l-0.333 6.133c0 0.467 0.133 0.933 0.467 1.267 0.267 0.267 0.667 0.467 1.067 0.467h0.267v1.733c0 0.867 0.733 1.6 1.6 1.6s1.6-0.733 1.6-1.6v-1.733h0.267c0.4 0 0.8-0.133 1.067-0.467 0.333-0.333 0.467-0.8 0.467-1.267l-0.333-6.133c0-0.533-0.267-1-0.667-1.333l0.867-0.6c0 0.133 0.133 0.267 0.267 0.267h2.867c0.143-0.010 0.257-0.124 0.267-0.266v-1.068c-0.267-0.133-0.333-0.267-0.533-0.267zM4.2 2h-2.333v-0.533h2.333v0.533zM8.4 1.267c0.6 0.2 1.067 0.8 1.067 1.467 0 0.867-0.733 1.6-1.6 1.6-0.6 0-1.133-0.333-1.4-0.867l1.933-2.2zM7.8 1.2l-1.467 1.667v-0.133c0-0.8 0.6-1.467 1.467-1.533zM8.933 13.733c0 0.6-0.533 1-1.067 1s-1-0.467-1-1v-3.933c0-0.6 0.467-1.067 1.067-1.067s1.067 0.467 1.067 1.067c-0.067 0.067-0.067 3.933-0.067 3.933zM10.333 4.2l0.333 6.133c0 0.333-0.067 0.667-0.267 0.867s-0.4 0.267-0.667 0.267h-0.267v-1.667c0-0.867-0.733-1.6-1.6-1.6s-1.6 0.733-1.6 1.6v1.667h-0.2c-0.267 0-0.467-0.133-0.667-0.267-0.175-0.178-0.283-0.422-0.283-0.692 0-0.062 0.006-0.123 0.017-0.181l-0.001 0.006 0.333-6.133c0-0.333 0.2-0.667 0.4-0.933 0.267 0.933 1.067 1.533 2 1.533s1.8-0.667 2-1.533c0.267 0.267 0.467 0.6 0.467 0.933zM13.933 2h-2.333v-0.533h2.333v0.533z"></path>
</svg>
