<svg xmlns="http://www.w3.org/2000/svg" width="16" height="16" viewBox="0 0 16 16"><title>motor-parking</title><path d="M14.133.933h-2.867a.288.288 0 0 0-.267.266V1.6l-1.067.8c-.2-1-1.067-1.733-2.067-1.733S5.998 1.4 5.798 2.334l-1.067-.733v-.4a.288.288 0 0 0-.266-.267H1.597a.288.288 0 0 0-.267.266v1.068c0 .133.133.267.267.267h2.867a.288.288 0 0 0 .267-.266v-.001l.867.6c-.4.333-.667.8-.667 1.333l-.333 6.133c0 .467.133.933.467 1.267.267.267.667.467 1.067.467h.267v1.733c0 .867.733 1.6 1.6 1.6s1.6-.733 1.6-1.6v-1.733h.267c.4 0 .8-.133 1.067-.467.333-.333.467-.8.467-1.267l-.333-6.133c0-.533-.267-1-.667-1.333l.867-.6c0 .133.133.267.267.267h2.867a.288.288 0 0 0 .267-.266V1.201c-.267-.133-.333-.267-.533-.267zM4.2 2H1.867v-.533H4.2V2zm4.2-.733c.6.2 1.067.8 1.067 1.467 0 .867-.733 1.6-1.6 1.6-.6 0-1.133-.333-1.4-.867l1.933-2.2zM7.8 1.2L6.333 2.867v-.133c0-.8.6-1.467 1.467-1.533zm1.133 12.533c0 .6-.533 1-1.067 1s-1-.467-1-1V9.8c0-.6.467-1.067 1.067-1.067S9 9.2 9 9.8c-.067.067-.067 3.933-.067 3.933zm1.4-9.533l.333 6.133c0 .333-.067.667-.267.867s-.4.267-.667.267h-.267V9.8c0-.867-.733-1.6-1.6-1.6s-1.6.733-1.6 1.6v1.667h-.2c-.267 0-.467-.133-.667-.267a.983.983 0 0 1-.266-.873l-.001.006.333-6.133c0-.333.2-.667.4-.933.267.933 1.067 1.533 2 1.533s1.8-.667 2-1.533c.267.267.467.6.467.933zm3.6-2.2H11.6v-.533h2.333V2z"/></svg>