<svg xmlns="http://www.w3.org/2000/svg" width="16" height="16" viewBox="0 0 16 16"><title>nocharge</title><path d="M8 1.333c-3.667 0-6.667 3-6.667 6.667s3 6.667 6.667 6.667 6.667-3 6.667-6.667-3-6.667-6.667-6.667zM2.867 6.2l3.4 1.533 1.067.467.8.333.667.267c.133.133.2.267.2.4 0 .267-.067.4-.267.533-.133.133-.333.133-.6.133h-.01a2.065 2.065 0 0 1-1.458-.6l-.933.933c.6.533 1.267.8 2 .8v1h.8v-1c.467-.067.867-.2 1.2-.467s.533-.6.667-1l2.467 1.133c-1 2.867-4.067 4.333-6.933 3.333S1.601 9.931 2.601 7.065c0-.333.133-.6.267-.867zm7 1.733L8.8 7.466l-.6-.267-.867-.4v-.2c0-.2.067-.333.267-.4.133-.067.333-.133.533-.133.4 0 .8.133 1.133.4l.867-.867c-.467-.4-1.067-.6-1.667-.6V3.932h-.8v1c-.4 0-.8.133-1.067.333-.333.267-.533.533-.6.933l-2.533-1.2c1.667-2.533 5-3.2 7.533-1.6 2 1.267 2.867 3.667 2.267 6l-3.4-1.467z"/></svg>