<!-- Generated by IcoMoon.io -->
<svg version="1.1" xmlns="http://www.w3.org/2000/svg" width="16" height="16" viewBox="0 0 16 16">
<title>nocharge</title>
<path d="M8 1.333c-3.667 0-6.667 3-6.667 6.667s3 6.667 6.667 6.667 6.667-3 6.667-6.667-3-6.667-6.667-6.667zM2.867 6.2l3.4 1.533 1.067 0.467 0.8 0.333 0.667 0.267c0.133 0.133 0.2 0.267 0.2 0.4 0 0.267-0.067 0.4-0.267 0.533-0.133 0.133-0.333 0.133-0.6 0.133-0.003 0-0.006 0-0.010 0-0.569 0-1.083-0.229-1.458-0.6l0 0-0.933 0.933c0.6 0.533 1.267 0.8 2 0.8v1h0.8v-1c0.467-0.067 0.867-0.2 1.2-0.467s0.533-0.6 0.667-1l2.467 1.133c-1 2.867-4.067 4.333-6.933 3.333s-4.333-4.067-3.333-6.933c0-0.333 0.133-0.6 0.267-0.867zM9.867 7.933l-1.067-0.467-0.6-0.267-0.867-0.4v-0.2c0-0.2 0.067-0.333 0.267-0.4 0.133-0.067 0.333-0.133 0.533-0.133 0.4 0 0.8 0.133 1.133 0.4l0.867-0.867c-0.467-0.4-1.067-0.6-1.667-0.6v-1.067h-0.8v1c-0.4 0-0.8 0.133-1.067 0.333-0.333 0.267-0.533 0.533-0.6 0.933l-2.533-1.2c1.667-2.533 5-3.2 7.533-1.6 2 1.267 2.867 3.667 2.267 6l-3.4-1.467z"></path>
</svg>
