<svg xmlns="http://www.w3.org/2000/svg" width="26" height="16" viewBox="0 0 26 16"><title>nonhalal</title><path fill="#fa8700" d="M9.223 13.768a6.3 6.3 0 0 0 2.782.636A6.4 6.4 0 0 0 16.28 3.242l-.006-.005-7.053 10.531zm-1.344-.87L14.96 2.324a6.314 6.314 0 0 0-2.965-.728A6.4 6.4 0 0 0 7.871 12.89l.01.008zM12 16a8 8 0 1 1 0-16 8 8 0 0 1 0 16z"/><path fill="#008735" d="M7.8 12.817l-1.336.236-.587-3.332-3.448.608.588 3.332-1.34.236L.355 6.399l1.34-.236.55 3.12 3.448-.608-.55-3.12 1.335-.235L7.8 12.817zm4.882-.861a1.042 1.042 0 0 1-.125-.209l-.003-.007a3.057 3.057 0 0 1-.104-.252l-.008-.025a2.352 2.352 0 0 1-.241.293l.001-.001c-.092.095-.194.18-.303.254l-.007.004c-.24.165-.525.283-.832.336l-.013.002a2.35 2.35 0 0 1-.825.011l.014.002a1.879 1.879 0 0 1-.687-.246l.009.005a1.673 1.673 0 0 1-.493-.453l-.003-.005a1.518 1.518 0 0 1-.26-.624l-.001-.009a1.77 1.77 0 0 1 .038-.837l-.003.012c.076-.25.212-.472.407-.666s.447-.36.756-.497a4.492 4.492 0 0 1 1.056-.312l.027-.004.81-.143-.064-.366c-.051-.288-.176-.504-.372-.648s-.464-.186-.803-.127a1.348 1.348 0 0 0-.402.133 1.048 1.048 0 0 0-.287.215l-.001.001a.736.736 0 0 0-.158.269l-.001.005a.625.625 0 0 0-.018.316l-.001-.004-1.287.226a1.334 1.334 0 0 1 .057-.675l-.003.009c.075-.224.202-.434.378-.63s.402-.367.676-.514.592-.253.952-.317c.322-.056.625-.068.911-.036s.542.112.768.237.414.296.566.516c.151.219.255.488.312.808l.435 2.472c.088.501.231.888.429 1.161l.016.088-1.314.231zm-1.572-.652c.399-.07.738-.29.961-.598l.003-.004c.064-.094.111-.187.142-.278l-.186-1.05-.694.122c-.477.084-.821.228-1.032.432a.79.79 0 0 0-.239.753l-.001-.005c.02.114.058.214.114.304s.129.162.219.219c.09.056.194.094.312.114s.252.017.4-.01zm5.386-.02l-1.287.226-1.394-7.91 1.287-.226 1.394 7.91zm4.825-.851a1.042 1.042 0 0 1-.125-.209l-.003-.007a3.057 3.057 0 0 1-.104-.252l-.008-.025a2.352 2.352 0 0 1-.241.293l.001-.001c-.092.095-.194.18-.303.254l-.007.004c-.24.165-.525.283-.832.336l-.013.002a2.35 2.35 0 0 1-.825.011l.014.002a1.879 1.879 0 0 1-.687-.246l.009.005a1.673 1.673 0 0 1-.493-.453l-.003-.005a1.518 1.518 0 0 1-.26-.624l-.001-.009a1.766 1.766 0 0 1 .038-.836l-.003.012c.076-.25.211-.472.406-.666s.448-.36.756-.497a4.492 4.492 0 0 1 1.056-.312l.027-.004.81-.143-.064-.366c-.051-.288-.175-.504-.372-.648s-.464-.186-.803-.127a1.348 1.348 0 0 0-.402.133 1.048 1.048 0 0 0-.287.215l-.001.001a.736.736 0 0 0-.158.269l-.001.005a.625.625 0 0 0-.017.316l-.001-.004-1.287.226a1.334 1.334 0 0 1 .057-.675l-.003.009c.076-.224.202-.434.378-.63s.402-.367.676-.514.592-.253.952-.317c.322-.056.625-.068.911-.036s.542.112.768.237.414.296.566.516c.151.219.255.488.312.808l.435 2.472c.088.501.232.888.429 1.161l.016.088-1.314.231zm-1.573-.652c.399-.07.738-.29.961-.598l.003-.004c.064-.094.111-.187.142-.278l-.186-1.05-.694.122c-.477.084-.821.228-1.032.432a.79.79 0 0 0-.239.753l-.001-.005c.02.114.058.214.114.304s.129.162.219.219c.09.056.194.094.312.114s.252.017.4-.01zm5.386-.02l-1.287.226-1.394-7.91 1.287-.226 1.394 7.91z"/></svg>