<!-- Generated by IcoMoon.io -->
<svg version="1.1" xmlns="http://www.w3.org/2000/svg" width="26" height="16" viewBox="0 0 26 16">
<title>nonhalal</title>
<path fill="#fa8700" d="M9.223 13.768c0.806 0.401 1.755 0.636 2.759 0.636 0.008 0 0.016 0 0.025 0h-0.001c3.534-0.001 6.399-2.866 6.399-6.4 0-1.888-0.818-3.585-2.118-4.757l-0.012-0.010-7.053 10.531zM7.879 12.898l7.081-10.574c-0.853-0.459-1.867-0.728-2.943-0.728-0.008 0-0.015 0-0.023 0h0.001c-3.535 0-6.4 2.865-6.4 6.4 0 1.959 0.88 3.712 2.266 4.886l0.009 0.008 0.010 0.008zM12 16c-4.418 0-8-3.582-8-8s3.582-8 8-8v0c4.418 0 8 3.582 8 8s-3.582 8-8 8v0z"></path>
<path fill="#008735" d="M7.8 12.817l-1.336 0.236-0.587-3.332-3.448 0.608 0.588 3.332-1.34 0.236-1.322-7.498 1.34-0.236 0.55 3.12 3.448-0.608-0.55-3.12 1.335-0.235 1.322 7.497zM12.682 11.956c-0.047-0.061-0.089-0.129-0.122-0.203l-0.006-0.014c-0.031-0.063-0.066-0.146-0.097-0.231l-0.007-0.021-0.008-0.025c-0.076 0.109-0.155 0.205-0.242 0.294l0.002-0.002c-0.092 0.095-0.194 0.18-0.303 0.254l-0.007 0.004c-0.24 0.165-0.525 0.283-0.832 0.336l-0.013 0.002c-0.133 0.027-0.287 0.042-0.443 0.042-0.135 0-0.267-0.011-0.396-0.033l0.028 0.004c-0.258-0.039-0.49-0.126-0.695-0.251l0.008 0.005 0.009 0.005c-0.196-0.119-0.36-0.27-0.49-0.448l-0.006-0.010c-0.127-0.176-0.218-0.387-0.259-0.615l-0.002-0.018c-0.021-0.102-0.033-0.22-0.033-0.341 0-0.177 0.026-0.348 0.074-0.509l-0.003 0.013-0.003 0.012c0.076-0.25 0.212-0.472 0.407-0.666s0.447-0.36 0.756-0.497c0.305-0.137 0.659-0.245 1.029-0.308l0.054-0.008 0.81-0.143-0.064-0.366c-0.051-0.288-0.176-0.504-0.372-0.648s-0.464-0.186-0.803-0.127c-0.151 0.025-0.286 0.071-0.409 0.137l0.007-0.004c-0.111 0.057-0.206 0.129-0.287 0.215v0l-0.001 0.001c-0.069 0.075-0.123 0.165-0.156 0.264l-0.002 0.005-0.001 0.005c-0.019 0.057-0.030 0.124-0.030 0.192 0 0.044 0.005 0.086 0.013 0.128l-0.002-0.008-1.287 0.226c-0.013-0.069-0.020-0.148-0.020-0.229 0-0.16 0.028-0.313 0.080-0.455l-0.006 0.018c0.075-0.224 0.202-0.434 0.378-0.63s0.402-0.367 0.676-0.514 0.592-0.253 0.952-0.317c0.322-0.056 0.625-0.068 0.911-0.036s0.542 0.112 0.768 0.237 0.414 0.296 0.566 0.516c0.151 0.219 0.255 0.488 0.312 0.808l0.435 2.472c0.088 0.501 0.231 0.888 0.429 1.161l0.016 0.088-1.314 0.231zM11.11 11.304c0.399-0.070 0.738-0.29 0.961-0.598l0.003-0.004c0.064-0.094 0.111-0.187 0.142-0.278l-0.186-1.050-0.694 0.122c-0.477 0.084-0.821 0.228-1.032 0.432-0.158 0.145-0.257 0.353-0.257 0.583 0 0.060 0.007 0.119 0.019 0.175l-0.002-0.010c0.020 0.114 0.058 0.214 0.114 0.304s0.129 0.162 0.219 0.219c0.090 0.056 0.194 0.094 0.312 0.114s0.252 0.017 0.4-0.010zM16.496 11.284l-1.287 0.226-1.394-7.91 1.287-0.226 1.394 7.91zM21.321 10.433c-0.047-0.061-0.089-0.129-0.122-0.203l-0.006-0.014c-0.031-0.063-0.066-0.146-0.097-0.231l-0.007-0.021-0.008-0.025c-0.076 0.109-0.155 0.205-0.242 0.294l0.002-0.002c-0.092 0.095-0.194 0.18-0.303 0.254l-0.007 0.004c-0.24 0.165-0.525 0.283-0.832 0.336l-0.013 0.002c-0.133 0.027-0.287 0.042-0.443 0.042-0.135 0-0.267-0.011-0.395-0.033l0.028 0.004c-0.258-0.039-0.49-0.126-0.695-0.251l0.008 0.005 0.009 0.005c-0.196-0.119-0.36-0.27-0.49-0.448l-0.006-0.010c-0.127-0.176-0.218-0.387-0.259-0.615l-0.002-0.018c-0.021-0.102-0.033-0.22-0.033-0.34 0-0.177 0.026-0.347 0.074-0.508l-0.006 0.024c0.076-0.25 0.211-0.472 0.406-0.666s0.448-0.36 0.756-0.497c0.305-0.137 0.659-0.245 1.029-0.308l0.054-0.008 0.81-0.143-0.064-0.366c-0.051-0.288-0.175-0.504-0.372-0.648s-0.464-0.186-0.803-0.127c-0.151 0.025-0.286 0.071-0.409 0.137l0.007-0.004c-0.111 0.057-0.206 0.129-0.287 0.215v0l-0.001 0.001c-0.069 0.075-0.123 0.165-0.156 0.264l-0.002 0.005-0.001 0.005c-0.019 0.057-0.030 0.122-0.030 0.19 0 0.044 0.005 0.088 0.013 0.13l-0.002-0.008-1.287 0.226c-0.013-0.069-0.020-0.148-0.020-0.229 0-0.16 0.028-0.313 0.080-0.455l-0.006 0.018c0.076-0.224 0.202-0.434 0.378-0.63s0.402-0.367 0.676-0.514 0.592-0.253 0.952-0.317c0.322-0.056 0.625-0.068 0.911-0.036s0.542 0.112 0.768 0.237 0.414 0.296 0.566 0.516c0.151 0.219 0.255 0.488 0.312 0.808l0.435 2.472c0.088 0.501 0.232 0.888 0.429 1.161l0.016 0.088-1.314 0.231zM19.748 9.781c0.399-0.070 0.738-0.29 0.961-0.598l0.003-0.004c0.064-0.094 0.111-0.187 0.142-0.278l-0.186-1.050-0.694 0.122c-0.477 0.084-0.821 0.228-1.032 0.432-0.158 0.145-0.257 0.353-0.257 0.583 0 0.060 0.007 0.119 0.019 0.175l-0.002-0.010c0.020 0.114 0.058 0.214 0.114 0.304s0.129 0.162 0.219 0.219c0.090 0.056 0.194 0.094 0.312 0.114s0.252 0.017 0.4-0.010zM25.134 9.761l-1.287 0.226-1.394-7.91 1.287-0.226 1.394 7.91z"></path>
</svg>
