<svg xmlns="http://www.w3.org/2000/svg" width="26" height="16" viewBox="0 0 26 16"><title>nonhalal</title><path fill="#fa8700" d="M9.223 13.768a6.217 6.217 0 0 0 2.759.636h.025-.001a6.4 6.4 0 0 0 4.281-11.157l-.012-.01-7.053 10.531zm-1.344-.87L14.96 2.324a6.228 6.228 0 0 0-2.943-.728h-.023.001a6.4 6.4 0 0 0-4.134 11.286l.009.008.01.008zM12 16a8 8 0 0 1 0-16 8 8 0 0 1 0 16z"/><path fill="#008735" d="M7.8 12.817l-1.336.236-.587-3.332-3.448.608.588 3.332-1.34.236L.355 6.399l1.34-.236.55 3.12 3.448-.608-.55-3.12 1.335-.235L7.8 12.817zm4.882-.861a1.003 1.003 0 0 1-.122-.203l-.006-.014a2.449 2.449 0 0 1-.097-.231l-.007-.021-.008-.025a2.283 2.283 0 0 1-.242.294l.002-.002c-.092.095-.194.18-.303.254l-.007.004c-.24.165-.525.283-.832.336l-.013.002a2.352 2.352 0 0 1-.839.009l.028.004a1.858 1.858 0 0 1-.695-.251l.008.005.009.005a1.685 1.685 0 0 1-.49-.448l-.006-.01a1.511 1.511 0 0 1-.259-.615l-.002-.018a1.78 1.78 0 0 1 .041-.85l-.003.013-.003.012c.076-.25.212-.472.407-.666s.447-.36.756-.497a4.309 4.309 0 0 1 1.029-.308l.054-.008.81-.143-.064-.366c-.051-.288-.176-.504-.372-.648s-.464-.186-.803-.127a1.306 1.306 0 0 0-.409.137l.007-.004a1.048 1.048 0 0 0-.287.215l-.001.001a.734.734 0 0 0-.156.264l-.002.005-.001.005a.618.618 0 0 0-.017.32l-.002-.008-1.287.226a1.32 1.32 0 0 1 .06-.684l-.006.018c.075-.224.202-.434.378-.63s.402-.367.676-.514.592-.253.952-.317c.322-.056.625-.068.911-.036s.542.112.768.237.414.296.566.516c.151.219.255.488.312.808l.435 2.472c.088.501.231.888.429 1.161l.016.088-1.314.231zm-1.572-.652c.399-.07.738-.29.961-.598l.003-.004c.064-.094.111-.187.142-.278l-.186-1.05-.694.122c-.477.084-.821.228-1.032.432a.79.79 0 0 0-.238.758l-.002-.01c.02.114.058.214.114.304s.129.162.219.219c.09.056.194.094.312.114s.252.017.4-.01zm5.386-.02l-1.287.226-1.394-7.91 1.287-.226 1.394 7.91zm4.825-.851a1.003 1.003 0 0 1-.122-.203l-.006-.014a2.449 2.449 0 0 1-.097-.231l-.007-.021-.008-.025a2.283 2.283 0 0 1-.242.294l.002-.002c-.092.095-.194.18-.303.254l-.007.004c-.24.165-.525.283-.832.336l-.013.002a2.331 2.331 0 0 1-.838.009l.028.004a1.858 1.858 0 0 1-.695-.251l.008.005.009.005a1.685 1.685 0 0 1-.49-.448l-.006-.01a1.511 1.511 0 0 1-.259-.615l-.002-.018a1.773 1.773 0 0 1 .041-.848l-.006.024c.076-.25.211-.472.406-.666s.448-.36.756-.497a4.309 4.309 0 0 1 1.029-.308l.054-.008.81-.143-.064-.366c-.051-.288-.175-.504-.372-.648s-.464-.186-.803-.127a1.306 1.306 0 0 0-.409.137l.007-.004a1.048 1.048 0 0 0-.287.215l-.001.001a.734.734 0 0 0-.156.264l-.002.005-.001.005a.605.605 0 0 0-.017.32l-.002-.008-1.287.226a1.32 1.32 0 0 1 .06-.684l-.006.018c.076-.224.202-.434.378-.63s.402-.367.676-.514.592-.253.952-.317c.322-.056.625-.068.911-.036s.542.112.768.237.414.296.566.516c.151.219.255.488.312.808l.435 2.472c.088.501.232.888.429 1.161l.016.088-1.314.231zm-1.573-.652c.399-.07.738-.29.961-.598l.003-.004c.064-.094.111-.187.142-.278l-.186-1.05-.694.122c-.477.084-.821.228-1.032.432a.79.79 0 0 0-.238.758l-.002-.01c.02.114.058.214.114.304s.129.162.219.219c.09.056.194.094.312.114s.252.017.4-.01zm5.386-.02l-1.287.226-1.394-7.91 1.287-.226 1.394 7.91z"/></svg>