<svg xmlns="http://www.w3.org/2000/svg" width="16" height="16" viewBox="0 0 16 16"><title>pencial</title><path d="M14.8 2.533l-1.267-1.267c-.4-.4-.867-.6-1.333-.6s-.933.2-1.267.533L3.066 9.066c-.333.333-1.467 1.733-1.467 2.2l-.933 4.067 4.067-.933s1.867-1.067 2.2-1.467L14.8 5.066c.733-.667.733-1.867 0-2.533zm-10.4 11l-2.467.533.6-2.6v-.133L4.6 13.4l-.2.133zm1.867-1.2c-.133.067-.467.333-.933.6l-2.4-2.4c.267-.333.533-.667.667-.867l5.933-5.933 2.6 2.6-5.867 6zm7.866-7.866l-1.267 1.267-2.6-2.6 1.267-1.267c.2-.2.4-.267.667-.267s.467.067.667.267l1.267 1.267c.2.2.267.4.267.667s-.067.467-.267.667z"/></svg>