<!-- Generated by IcoMoon.io -->
<svg version="1.1" xmlns="http://www.w3.org/2000/svg" width="16" height="16" viewBox="0 0 16 16">
<title>pencial</title>
<path d="M14.8 2.533l-1.267-1.267c-0.4-0.4-0.867-0.6-1.333-0.6s-0.933 0.2-1.267 0.533l-7.867 7.867c-0.333 0.333-1.467 1.733-1.467 2.2l-0.933 4.067 4.067-0.933s1.867-1.067 2.2-1.467l7.867-7.867c0.733-0.667 0.733-1.867 0-2.533zM4.4 13.533l-2.467 0.533 0.6-2.6v-0.133l2.067 2.067-0.2 0.133zM6.267 12.333c-0.133 0.067-0.467 0.333-0.933 0.6l-2.4-2.4c0.267-0.333 0.533-0.667 0.667-0.867l5.933-5.933 2.6 2.6-5.867 6zM14.133 4.467l-1.267 1.267-2.6-2.6 1.267-1.267c0.2-0.2 0.4-0.267 0.667-0.267s0.467 0.067 0.667 0.267l1.267 1.267c0.2 0.2 0.267 0.4 0.267 0.667s-0.067 0.467-0.267 0.667z"></path>
</svg>
