<svg xmlns="http://www.w3.org/2000/svg" width="16" height="16" viewBox="0 0 16 16"><title>pet</title><path d="M10.333 12.533c.333.133.733 0 .867-.333.067-.2.067-.467-.067-.667l-1.6-2.467c-.6-.933-1.8-1.2-2.733-.6-.263.13-.47.337-.597.592l-.003.008-1.533 2.467c-.2.333-.133.733.2.933.2.133.4.133.6.067 1.6-.667 3.333-.667 4.867 0zm.2-4.066l1.6 2.467c.533.867.267 2-.533 2.533-.533.333-1.133.4-1.733.133C8.6 13.067 7.2 13.067 6 13.6c-.933.4-2 0-2.4-.933-.267-.533-.2-1.2.133-1.733l1.6-2.467C6.266 7 8.2 6.6 9.666 7.534c.333.267.667.533.867.933zM3.6 7.2c.067-.067.2-.267.067-.6-.067-.333-.333-.4-.4-.4-.067.067-.2.267-.067.6.133.267.333.4.4.4zm.467 1c-.733.267-1.6-.2-1.933-1.067s0-1.8.733-2.067c.733-.2 1.533.267 1.867 1.133s0 1.733-.667 2zm2.8-2.667c.267 0 .6-.333.6-.867s-.333-.867-.6-.867c-.267 0-.533.333-.533.867s.267.867.533.867zm0 1.134c-.933 0-1.733-.933-1.733-2 0-1.133.8-2 1.733-2s1.733.933 1.733 2c0 1.133-.733 2-1.733 2zm3.6-.467c.267.067.667-.133.8-.667.133-.467 0-.933-.267-1s-.667.133-.8.667c-.2.467 0 .933.267 1zm-.4 1.067C9.2 7 8.734 5.867 9.067 4.8s1.333-1.667 2.267-1.4c.867.267 1.333 1.4 1 2.467-.333 1.133-1.333 1.733-2.267 1.4zm2.866.866c-.2.267-.2.533-.067.6.067.067.333 0 .533-.267s.2-.533.067-.6c-.067 0-.333 0-.533.267zM14.133 7c.6.467.667 1.4.133 2.133s-1.467.933-2.133.467c-.6-.467-.667-1.4-.133-2.133.6-.733 1.533-.933 2.133-.467z"/></svg>