<!-- Generated by IcoMoon.io -->
<svg version="1.1" xmlns="http://www.w3.org/2000/svg" width="16" height="16" viewBox="0 0 16 16">
<title>pet</title>
<path d="M10.333 12.533c0.333 0.133 0.733 0 0.867-0.333 0.067-0.2 0.067-0.467-0.067-0.667l-1.6-2.467c-0.6-0.933-1.8-1.2-2.733-0.6-0.263 0.13-0.47 0.337-0.597 0.592l-0.003 0.008-1.533 2.467c-0.2 0.333-0.133 0.733 0.2 0.933 0.2 0.133 0.4 0.133 0.6 0.067 1.6-0.667 3.333-0.667 4.867 0zM10.533 8.467l1.6 2.467c0.533 0.867 0.267 2-0.533 2.533-0.533 0.333-1.133 0.4-1.733 0.133-1.267-0.533-2.667-0.533-3.867 0-0.933 0.4-2 0-2.4-0.933-0.267-0.533-0.2-1.2 0.133-1.733l1.6-2.467c0.933-1.467 2.867-1.867 4.333-0.933 0.333 0.267 0.667 0.533 0.867 0.933zM3.6 7.2c0.067-0.067 0.2-0.267 0.067-0.6-0.067-0.333-0.333-0.4-0.4-0.4-0.067 0.067-0.2 0.267-0.067 0.6 0.133 0.267 0.333 0.4 0.4 0.4zM4.067 8.2c-0.733 0.267-1.6-0.2-1.933-1.067s0-1.8 0.733-2.067c0.733-0.2 1.533 0.267 1.867 1.133s0 1.733-0.667 2zM6.867 5.533c0.267 0 0.6-0.333 0.6-0.867s-0.333-0.867-0.6-0.867c-0.267 0-0.533 0.333-0.533 0.867s0.267 0.867 0.533 0.867zM6.867 6.667c-0.933 0-1.733-0.933-1.733-2 0-1.133 0.8-2 1.733-2s1.733 0.933 1.733 2c0 1.133-0.733 2-1.733 2zM10.467 6.2c0.267 0.067 0.667-0.133 0.8-0.667 0.133-0.467 0-0.933-0.267-1s-0.667 0.133-0.8 0.667c-0.2 0.467 0 0.933 0.267 1zM10.067 7.267c-0.867-0.267-1.333-1.4-1-2.467s1.333-1.667 2.267-1.4c0.867 0.267 1.333 1.4 1 2.467-0.333 1.133-1.333 1.733-2.267 1.4zM12.933 8.133c-0.2 0.267-0.2 0.533-0.067 0.6 0.067 0.067 0.333 0 0.533-0.267s0.2-0.533 0.067-0.6c-0.067 0-0.333 0-0.533 0.267zM14.133 7c0.6 0.467 0.667 1.4 0.133 2.133s-1.467 0.933-2.133 0.467c-0.6-0.467-0.667-1.4-0.133-2.133 0.6-0.733 1.533-0.933 2.133-0.467z"></path>
</svg>
