<!-- Generated by IcoMoon.io -->
<svg version="1.1" xmlns="http://www.w3.org/2000/svg" width="16" height="16" viewBox="0 0 16 16">
<title>photo</title>
<path d="M14.667 2h-13.333c-0.4 0-0.667 0.267-0.667 0.667v10.8c0 0.333 0.267 0.667 0.667 0.667h13.333c0.368-0.001 0.666-0.299 0.667-0.667v-10.8c0-0.4-0.267-0.667-0.667-0.667zM14.667 13.467h-13.333v-10.8h13.333v10.8zM13.467 3.533h-10.933c-0.2 0-0.333 0.133-0.333 0.333v7.133c0 0.2 0.133 0.333 0.333 0.333h10.933c0.2 0 0.333-0.133 0.333-0.333v-7.133c0-0.2-0.133-0.333-0.333-0.333zM2.867 4.2h10.267v5.467l-2.067-2.067c-0.059-0.062-0.142-0.1-0.233-0.1s-0.175 0.038-0.233 0.1l-0 0-1.267 1.267-2.8-2.867c-0.059-0.062-0.142-0.1-0.234-0.1s-0.175 0.038-0.233 0.1l-0 0-3.267 3.267v-5.067zM2.867 10.667v-0.533l3.467-3.467 4 4h-7.467zM13.133 10.667h-1.933l-1.333-1.333 1-1 2.267 2.267v0.067zM9.4 4.8c-0.667 0-1.2 0.533-1.2 1.2s0.533 1.2 1.2 1.2c0.667 0 1.2-0.533 1.2-1.2s-0.533-1.2-1.2-1.2zM9.4 6.6c-0.333 0-0.533-0.267-0.533-0.6 0-0.267 0.267-0.533 0.533-0.533 0.333 0 0.533 0.267 0.533 0.6 0 0.267-0.267 0.533-0.533 0.533z"></path>
</svg>
