<svg xmlns="http://www.w3.org/2000/svg" width="16" height="16" viewBox="0 0 16 16"><title>photo</title><path d="M14.667 2H1.334c-.4 0-.667.267-.667.667v10.8c0 .333.267.667.667.667h13.333a.669.669 0 0 0 .667-.667v-10.8c0-.4-.267-.667-.667-.667zm0 11.467H1.334v-10.8h13.333v10.8zm-1.2-9.934H2.534c-.2 0-.333.133-.333.333v7.133c0 .2.133.333.333.333h10.933c.2 0 .333-.133.333-.333V3.866c0-.2-.133-.333-.333-.333zm-10.6.667h10.267v5.467L11.067 7.6a.32.32 0 0 0-.466 0L9.334 8.867 6.534 6a.321.321 0 0 0-.467 0L2.8 9.267V4.2zm0 6.467v-.533l3.467-3.467 4 4H2.867zm10.266 0H11.2L9.867 9.334l1-1 2.267 2.267v.067zM9.4 4.8c-.667 0-1.2.533-1.2 1.2s.533 1.2 1.2 1.2c.667 0 1.2-.533 1.2-1.2s-.533-1.2-1.2-1.2zm0 1.8c-.333 0-.533-.267-.533-.6 0-.267.267-.533.533-.533.333 0 .533.267.533.6 0 .267-.267.533-.533.533z"/></svg>