<!-- Generated by IcoMoon.io -->
<svg version="1.1" xmlns="http://www.w3.org/2000/svg" width="16" height="16" viewBox="0 0 16 16">
<title>point</title>
<path d="M13.867 7.667c0-1.067-1.467-1.867-3.267-1.867-0.533 0-1 0.067-1.4 0.2v-3.467c0-1.067-1.467-1.867-3.267-1.867s-3.267 0.8-3.267 1.867v7.8c0 1.067 1.467 1.867 3.267 1.867 0.467 0 0.933-0.067 1.4-0.133v1.4c0 1.067 1.467 1.867 3.267 1.867s3.267-0.8 3.267-1.867v-5.8zM3.533 3.8c0 0 0.067 0.067 0.067 0.067 0.067 0.067 0.133 0.067 0.267 0.133l0.267 0.133c0.067 0 0.067 0 0.067 0.067 0.067 0 0.133 0.067 0.2 0.067s0.067 0 0.133 0.067c0.067 0 0.133 0.067 0.2 0.067s0.067 0 0.133 0 0.133 0 0.2 0.067c0.067 0 0.067 0 0.133 0s0.133 0 0.267 0c0.067 0 0.067 0 0.133 0 0.133 0 0.267 0 0.4 0s0.267 0 0.333 0c0.067 0 0.067 0 0.133 0s0.133 0 0.267 0c0.067 0 0.067 0 0.133 0s0.133 0 0.2-0.067c0.067 0 0.067 0 0.133 0s0.133-0.067 0.2-0.067c0.067 0 0.067 0 0.133-0.067 0.067 0 0.133-0.067 0.2-0.067s0.067 0 0.067-0.067l0.2-0.133c0.067-0.067 0.133-0.067 0.267-0.133 0 0 0.067-0.067 0.067-0.067 0.067-0.067 0.133-0.067 0.133-0.133 0 0 0 0 0.067 0v0.733c0 0.533-1.067 1.2-2.6 1.2s-2.6-0.667-2.6-1.2v-0.733c0 0 0 0 0.067 0 0 0.067 0.067 0.133 0.133 0.133zM9.133 9.267c0.067 0 0.067 0 0.133 0.067 0.067 0 0.133 0.067 0.2 0.067s0.067 0 0.133 0 0.133 0 0.2 0.067c0.067 0 0.067 0 0.133 0s0.133 0 0.267 0c0.067 0 0.067 0 0.133 0 0.133 0 0.267 0 0.333 0 0.133 0 0.267 0 0.333 0s0.067 0 0.133 0 0.133 0 0.267 0c0.067 0 0.067 0 0.133 0s0.133 0 0.2-0.067c0.067 0 0.067 0 0.133 0s0.133-0.067 0.2-0.067c0.067 0 0.067 0 0.133-0.067 0.067 0 0.133-0.067 0.2-0.067s0.067 0 0.067-0.067l0.267-0.133c0.067-0.067 0.133-0.067 0.267-0.133 0 0 0.067-0.067 0.067-0.067 0.067-0.067 0.133-0.067 0.133-0.133 0 0 0 0 0.067 0v0.733c0 0.6-1.067 1.2-2.6 1.2-0.667 0-1.267-0.133-1.667-0.267 0 0 0 0 0 0-0.467-0.2-0.8-0.467-0.867-0.8v0-0.8c0.067 0 0.067 0.067 0.067 0.067v0c0 0 0 0 0.067 0s0.067 0.067 0.067 0.067c0.067 0 0.067 0.067 0.067 0.067v0c0 0 0 0 0.067 0 0.067 0.067 0.133 0.067 0.267 0.133 0 0 0.067 0 0.067 0 0.067 0 0.067 0.067 0.133 0.067s0.067 0 0.067 0.067c-0.067 0.067 0 0.067 0.133 0.067zM7.333 9.333c-0.467 0.133-0.933 0.2-1.4 0.2-1.533 0-2.6-0.6-2.6-1.2v-0.733c0.6 0.467 1.533 0.733 2.6 0.733 0.467 0 0.933-0.067 1.4-0.133v1.133zM13.2 11.467c0 0.6-1.067 1.2-2.6 1.2-1.467 0-2.533-0.6-2.6-1.133v-0.8c0.133 0.133 0.333 0.2 0.467 0.267 0.067 0 0.067 0.067 0.067 0.067s0.067 0 0.067 0c0.6 0.267 1.267 0.4 1.933 0.333 1.067 0 2-0.267 2.6-0.733 0.067 0.133 0.067 0.8 0.067 0.8zM7.6 6.933c-0.067 0.067-0.067 0.067-0.067 0.133 0 0 0 0.067-0.067 0.067 0 0.067-0.067 0.067-0.067 0.067 0 0.067 0 0.067-0.067 0.067 0 0 0 0 0 0.067-0.4 0.133-0.933 0.2-1.4 0.2-1.533 0-2.6-0.6-2.6-1.133v-0.733c0.6 0.467 1.533 0.733 2.6 0.733s2-0.267 2.6-0.733v0.533c-0.4 0.133-0.733 0.4-0.933 0.733 0 0 0 0 0 0v0zM13.2 7.667c0 0.6-1.067 1.2-2.6 1.2-0.733 0-1.333-0.133-1.733-0.333-0.067 0-0.133-0.067-0.133-0.067s0 0 0 0v0l-0.067-0.067c-0.067-0.067-0.067-0.067-0.067-0.067s0 0 0 0v0c-0.067 0-0.067-0.067-0.133-0.067v0l-0.067-0.067c0 0-0.067-0.067-0.067-0.067l-0.067-0.067c0 0-0.067-0.067-0.067-0.067s0-0.067-0.067-0.067c0 0 0-0.067-0.067-0.067-0.067-0.067-0.067-0.133-0.067-0.2v-0.067c0-0.067 0-0.067 0-0.133 0.067-0.267 0.467-0.6 1-0.8v0c0.467-0.067 1-0.133 1.667-0.133 1.467-0.067 2.533 0.533 2.533 1.133zM5.933 1.333c1.533 0 2.6 0.6 2.6 1.2s-1.067 1.2-2.6 1.2c-1.533 0-2.6-0.667-2.6-1.2s1.067-1.2 2.6-1.2zM3.333 10.333v-0.733c0.6 0.467 1.533 0.733 2.6 0.733 0.467 0 0.933-0.067 1.4-0.133v1.133c-0.467 0.133-0.933 0.2-1.4 0.2-1.533 0-2.6-0.6-2.6-1.2v0zM13.2 13.467c0 0.6-1.067 1.2-2.6 1.2s-2.6-0.6-2.6-1.2v-0.733c0.6 0.467 1.533 0.733 2.6 0.733s2-0.267 2.6-0.733c0 0 0 0.733 0 0.733z"></path>
</svg>
