<svg xmlns="http://www.w3.org/2000/svg" width="16" height="16" viewBox="0 0 16 16"><title>point</title><path d="M13.867 7.667C13.867 6.6 12.4 5.8 10.6 5.8c-.533 0-1 .067-1.4.2V2.533C9.2 1.466 7.733.666 5.933.666s-3.267.8-3.267 1.867v7.8c0 1.067 1.467 1.867 3.267 1.867.467 0 .933-.067 1.4-.133v1.4c0 1.067 1.467 1.867 3.267 1.867s3.267-.8 3.267-1.867v-5.8zM3.533 3.8l.067.067c.067.067.133.067.267.133l.267.133c.067 0 .067 0 .067.067.067 0 .133.067.2.067s.067 0 .133.067c.067 0 .133.067.2.067h.133c.066 0 .133 0 .2.067h1.799c.066 0 .133 0 .2-.067h.133c.066 0 .133-.067.2-.067s.067 0 .133-.067c.067 0 .133-.067.2-.067s.067 0 .067-.067l.2-.133c.067-.067.133-.067.267-.133l.067-.067c.067-.067.133-.067.133-.133h.067V4.4c0 .533-1.067 1.2-2.6 1.2s-2.6-.667-2.6-1.2v-.733H3.4c0 .067.067.133.133.133zm5.6 5.467c.067 0 .067 0 .133.067.067 0 .133.067.2.067h.133c.066 0 .133 0 .2.067h1.732c.066 0 .133 0 .2-.067h.133c.066 0 .133-.067.2-.067s.067 0 .133-.067c.067 0 .133-.067.2-.067s.067 0 .067-.067L12.731 9c.067-.067.133-.067.267-.133l.067-.067c.067-.067.133-.067.133-.133h.067V9.4c0 .6-1.067 1.2-2.6 1.2a5.414 5.414 0 0 1-1.667-.267c-.467-.2-.8-.467-.867-.8v-.8c.067 0 .067.067.067.067h.067c.067 0 .067.067.067.067.067 0 .067.067.067.067h.067c.067.067.133.067.267.133H8.8c.067 0 .067.067.133.067s.067 0 .067.067c-.067.067 0 .067.133.067zm-1.8.066c-.467.133-.933.2-1.4.2-1.533 0-2.6-.6-2.6-1.2V7.6c.6.467 1.533.733 2.6.733.467 0 .933-.067 1.4-.133v1.133zm5.867 2.134c0 .6-1.067 1.2-2.6 1.2-1.467 0-2.533-.6-2.6-1.133v-.8c.133.133.333.2.467.267.067 0 .067.067.067.067h.067c.6.267 1.267.4 1.933.333 1.067 0 2-.267 2.6-.733.067.133.067.8.067.8zM7.6 6.933c-.067.067-.067.067-.067.133 0 0 0 .067-.067.067 0 .067-.067.067-.067.067 0 .067 0 .067-.067.067v.067c-.4.133-.933.2-1.4.2-1.533 0-2.6-.6-2.6-1.133v-.733c.6.467 1.533.733 2.6.733s2-.267 2.6-.733v.533c-.4.133-.733.4-.933.733zm5.6.734c0 .6-1.067 1.2-2.6 1.2-.733 0-1.333-.133-1.733-.333-.067 0-.133-.067-.133-.067L8.667 8.4 8.6 8.333c-.067 0-.067-.067-.133-.067L8.4 8.199l-.067-.067-.067-.067-.067-.067s0-.067-.067-.067c0 0 0-.067-.067-.067-.067-.067-.067-.133-.067-.2v-.2c.067-.267.467-.6 1-.8.467-.067 1-.133 1.667-.133 1.467-.067 2.533.533 2.533 1.133zM5.933 1.333c1.533 0 2.6.6 2.6 1.2s-1.067 1.2-2.6 1.2c-1.533 0-2.6-.667-2.6-1.2s1.067-1.2 2.6-1.2zm-2.6 9V9.6c.6.467 1.533.733 2.6.733.467 0 .933-.067 1.4-.133v1.133c-.467.133-.933.2-1.4.2-1.533 0-2.6-.6-2.6-1.2zm9.867 3.134c0 .6-1.067 1.2-2.6 1.2s-2.6-.6-2.6-1.2v-.733c.6.467 1.533.733 2.6.733s2-.267 2.6-.733v.733z"/></svg>