<!-- Generated by IcoMoon.io -->
<svg version="1.1" xmlns="http://www.w3.org/2000/svg" width="16" height="16" viewBox="0 0 16 16">
<title>reserve</title>
<path d="M14.667 10.867l-1-6.333c-0.067-0.267-0.267-0.4-0.533-0.4h-10.267c-0.249 0.008-0.457 0.171-0.532 0.396l-0.001 0.004-1 6.333c-0.067 0.267 0.133 0.533 0.4 0.6h12.4c0.267 0 0.533-0.2 0.533-0.533v-0.067zM2.467 10.4l0.4-2.6 0.4 2.6h-0.8zM4.333 10.4l-0.867-5.267h9.2l0.867 5.267h-9.2zM11.6 7.267h-6.2c-0.267 0-0.533 0.267-0.467 0.533 0 0.267 0.2 0.467 0.467 0.467h6.133c0.267 0 0.533-0.267 0.467-0.533 0.067-0.267-0.133-0.467-0.4-0.467z"></path>
</svg>
