<!-- Generated by IcoMoon.io -->
<svg version="1.1" xmlns="http://www.w3.org/2000/svg" width="16" height="16" viewBox="0 0 16 16">
<title>review</title>
<path d="M14.467 2.6c0.333 0.267 0.333 0.533 0 0.867l-1.133 1.133-1.933-1.933 1.067-1.133c0.333-0.333 0.6-0.333 0.867 0 0.067 0 1.133 1.067 1.133 1.067zM11.067 3l1.933 1.933-6.133 6-2.2 0.4 0.467-2.2 5.933-6.133zM12.4 8l1.133-1.133v6.933c0 0.2-0.067 0.4-0.2 0.6-0.133 0.133-0.333 0.2-0.6 0.2h-10.6c-0.2 0-0.4-0.067-0.6-0.2-0.124-0.134-0.2-0.315-0.2-0.513 0-0.007 0-0.014 0-0.021v0.001-10.6c0-0.2 0.067-0.4 0.2-0.6 0.133-0.133 0.333-0.2 0.6-0.2h6.933l-1.067 1.133h-5.2c-0.267 0-0.4 0.133-0.4 0.333v9.267c0 0.2 0.133 0.333 0.333 0.333h9.333c0.2 0 0.333-0.133 0.333-0.333v-5.2z"></path>
</svg>
