<svg xmlns="http://www.w3.org/2000/svg" width="16" height="16" viewBox="0 0 16 16"><title>review</title><path d="M14.467 2.6c.333.267.333.533 0 .867L13.334 4.6l-1.933-1.933 1.067-1.133c.333-.333.6-.333.867 0 .067 0 1.133 1.067 1.133 1.067zm-3.4.4L13 4.933l-6.133 6-2.2.4.467-2.2L11.067 3zM12.4 8l1.133-1.133V13.8c0 .2-.067.4-.2.6-.133.133-.333.2-.6.2h-10.6c-.2 0-.4-.067-.6-.2a.754.754 0 0 1-.2-.513v-.021.001-10.6c0-.2.067-.4.2-.6.133-.133.333-.2.6-.2h6.933L7.999 3.6h-5.2c-.267 0-.4.133-.4.333V13.2c0 .2.133.333.333.333h9.333c.2 0 .333-.133.333-.333V8z"/></svg>