<!-- Generated by IcoMoon.io -->
<svg version="1.1" xmlns="http://www.w3.org/2000/svg" width="16" height="16" viewBox="0 0 16 16">
<title>search</title>
<path d="M6.6 11.867c-2.867 0-5.267-2.333-5.267-5.267 0-2.867 2.4-5.267 5.267-5.267 0.009-0 0.020-0 0.031-0 2.892 0 5.236 2.344 5.236 5.236 0 0.011-0 0.022-0 0.033l0-0.002c0 1.133-0.333 2.2-1 3.067l3.533 3.533c0.149 0.145 0.242 0.347 0.242 0.571 0 0.255-0.12 0.482-0.307 0.628l-0.002 0.001c-0.153 0.154-0.366 0.25-0.6 0.25s-0.447-0.095-0.6-0.25l-3.533-3.533c-0.8 0.667-1.867 1-3 1zM6.6 3.067c-1.933 0-3.533 1.6-3.533 3.533 0 2 1.6 3.533 3.533 3.533s3.533-1.6 3.533-3.533c0.067-1.933-1.533-3.533-3.533-3.533z"></path>
</svg>
