<!-- Generated by IcoMoon.io -->
<svg version="1.1" xmlns="http://www.w3.org/2000/svg" width="16" height="16" viewBox="0 0 16 16">
<title>seat</title>
<path d="M15.133 8.533c-0.067 0.267-0.267 0.4-0.533 0.4h-0.2l1.133 2.733c0.133 0.267 0 0.6-0.267 0.733s-0.6 0-0.733-0.267l-1.067-2.533h-1.667l-1.067 2.533c-0.133 0.267-0.4 0.4-0.733 0.267-0.267-0.133-0.4-0.4-0.267-0.733l1.133-2.733h-0.2c-0.267 0-0.533-0.267-0.533-0.533s0.267-0.533 0.533-0.533h3.4l0.733-3.467c0.067-0.267 0.333-0.467 0.6-0.4s0.467 0.333 0.4 0.6v0.067l-0.667 3.867zM5.067 8.933l1.133 2.733c0.133 0.267 0 0.6-0.267 0.733s-0.6 0-0.733-0.267l-1.067-2.533h-1.667l-1.067 2.533c-0.133 0.267-0.4 0.4-0.733 0.267s-0.333-0.4-0.2-0.667l1.133-2.733h-0.2c-0.249-0.008-0.457-0.171-0.532-0.396l-0.001-0.004-0.867-3.933c-0.067-0.267 0.133-0.6 0.4-0.667s0.6 0.133 0.667 0.4l0.733 3.467h3.4c0.267 0 0.533 0.267 0.533 0.533s-0.267 0.533-0.533 0.533h-0.133zM8.867 11.2c0.267 0 0.533 0.267 0.533 0.6s-0.267 0.6-0.533 0.6h-1.667c-0.267 0-0.533-0.267-0.533-0.6s0.267-0.6 0.533-0.6h0.333v-5.333h-2.933c-0.267 0-0.533-0.267-0.533-0.6s0.2-0.6 0.533-0.6h6.867c0.267 0 0.533 0.267 0.533 0.6s-0.267 0.6-0.533 0.6h-2.867v5.333h0.267z"></path>
</svg>
