<svg xmlns="http://www.w3.org/2000/svg" width="16" height="16" viewBox="0 0 16 16"><title>seat</title><path d="M15.133 8.533c-.067.267-.267.4-.533.4h-.2l1.133 2.733c.133.267 0 .6-.267.733s-.6 0-.733-.267l-1.067-2.533h-1.667l-1.067 2.533c-.133.267-.4.4-.733.267-.267-.133-.4-.4-.267-.733l1.133-2.733h-.2c-.267 0-.533-.267-.533-.533s.267-.533.533-.533h3.4l.733-3.467c.067-.267.333-.467.6-.4s.467.333.4.6v.067l-.667 3.867zm-10.066.4L6.2 11.666c.133.267 0 .6-.267.733s-.6 0-.733-.267L4.133 9.599H2.466l-1.067 2.533c-.133.267-.4.4-.733.267s-.333-.4-.2-.667l1.133-2.733h-.2a.58.58 0 0 1-.533-.4l-.867-3.933c-.067-.267.133-.6.4-.667s.6.133.667.4l.733 3.467h3.4c.267 0 .533.267.533.533s-.267.533-.533.533h-.133zm3.8 2.267c.267 0 .533.267.533.6s-.267.6-.533.6H7.2c-.267 0-.533-.267-.533-.6s.267-.6.533-.6h.333V5.867H4.6c-.267 0-.533-.267-.533-.6s.2-.6.533-.6h6.867c.267 0 .533.267.533.6s-.267.6-.533.6H8.6V11.2h.267z"/></svg>