<svg xmlns="http://www.w3.org/2000/svg" width="16" height="16" viewBox="0 0 16 16"><title>setting</title><path d="M14.6 6.467l-1-.2-.4-1 .6-.867c.267-.333.2-.867-.067-1.2l-.933-.933a.83.83 0 0 0-1.133-.067l-.867.6a2.95 2.95 0 0 0-1.067-.4l-.2-1C9.466 1 9.066.667 8.6.667H7.333c-.467 0-.8.333-.867.733l-.2 1.067-1 .4-.867-.6a1.248 1.248 0 0 0-.533-.133.856.856 0 0 0-.667.267l-.867.867c-.333.333-.333.8-.067 1.2l.6.867a3.15 3.15 0 0 0-.4 1l-1.067.133c-.4.067-.733.467-.733.933v1.267c0 .467.333.8.733.867l1.067.2.4 1-.6.867c-.267.333-.2.867.067 1.2l.933.933c.333.267.8.267 1.2 0l.867-.6 1 .4.2 1c0 .467.4.8.8.8h1.333c.467 0 .8-.333.867-.733l.2-1 1-.4.867.6c.133.133.333.2.533.2a.856.856 0 0 0 .667-.267l.933-.933c.333-.333.333-.8.067-1.2l-.6-.867c.2-.333.333-.667.4-1l1-.2c.467-.067.733-.467.733-.867V7.335c0-.4-.333-.8-.733-.867zm-.067 2.2c0 .067 0 .067-.067.067l-1.267.2c-.133 0-.267.133-.333.333-.133.467-.267.867-.533 1.267a.568.568 0 0 0 0 .467l.733 1.067v.133l-.933.933h-.134l-1.067-.733c-.133-.067-.333-.133-.467 0-.4.267-.8.4-1.267.533a.804.804 0 0 0-.333.333l-.2 1.267c0 .067-.067.067-.067.067H7.331c-.067 0-.067 0-.067-.067l-.2-1.267c0-.133-.133-.267-.333-.333-.467-.133-.867-.267-1.267-.533-.067-.067-.133-.067-.2-.067s-.2 0-.267.067l-1 .667h-.134l-.933-.933v-.133l.733-1.067c.067-.133.133-.333 0-.467-.267-.4-.4-.8-.533-1.267a.804.804 0 0 0-.333-.333l-1.267-.2c-.067 0-.067-.067-.067-.067V7.334c0-.067 0-.067.067-.067l1.267-.2c.133 0 .267-.133.333-.333.133-.467.267-.867.533-1.267a.568.568 0 0 0 0-.467L2.93 4v-.133l.933-.933h.134l1.067.733c.133.067.333.133.467 0 .333-.2.733-.333 1.2-.467a.804.804 0 0 0 .333-.333l.2-1.267c0-.067.067-.067.067-.067h1.267c.067 0 .067 0 .067.067l.2 1.267c0 .133.133.267.333.333.467.133.933.267 1.333.533a.568.568 0 0 0 .467 0L12.065 3h.134l.933.933v.133l-.733 1.067c-.067.133-.133.333 0 .467.267.4.4.8.533 1.267.067.133.2.267.333.333l1.267.2c.067 0 .067.067.067.067l-.067 1.2z"/><path d="M8 4.8c-1.733 0-3.133 1.4-3.133 3.133s1.4 3.133 3.133 3.133a3.13 3.13 0 0 0 3.133-3.133C11.133 6.266 9.733 4.8 8 4.8zm0 5.533c-1.267 0-2.333-1.067-2.333-2.333S6.734 5.667 8 5.667c1.267 0 2.333 1.067 2.333 2.333S9.266 10.333 8 10.333z"/></svg>