<!-- Generated by IcoMoon.io -->
<svg version="1.1" xmlns="http://www.w3.org/2000/svg" width="16" height="16" viewBox="0 0 16 16">
<title>setting</title>
<path d="M14.6 6.467l-1-0.2-0.4-1 0.6-0.867c0.267-0.333 0.2-0.867-0.067-1.2l-0.933-0.933c-0.152-0.16-0.365-0.259-0.602-0.259-0.202 0-0.388 0.072-0.532 0.193l0.001-0.001-0.867 0.6c-0.306-0.192-0.665-0.332-1.050-0.398l-0.017-0.002-0.2-1c-0.067-0.4-0.467-0.733-0.933-0.733h-1.267c-0.467 0-0.8 0.333-0.867 0.733l-0.2 1.067-1 0.4-0.867-0.6c-0.155-0.080-0.338-0.128-0.532-0.133l-0.001-0c-0.013-0.001-0.029-0.001-0.045-0.001-0.245 0-0.466 0.103-0.622 0.268l-0 0-0.867 0.867c-0.333 0.333-0.333 0.8-0.067 1.2l0.6 0.867c-0.18 0.287-0.318 0.622-0.396 0.979l-0.004 0.021-1.067 0.133c-0.4 0.067-0.733 0.467-0.733 0.933v1.267c0 0.467 0.333 0.8 0.733 0.867l1.067 0.2 0.4 1-0.6 0.867c-0.267 0.333-0.2 0.867 0.067 1.2l0.933 0.933c0.333 0.267 0.8 0.267 1.2 0l0.867-0.6 1 0.4 0.2 1c0 0.467 0.4 0.8 0.8 0.8h1.333c0.467 0 0.8-0.333 0.867-0.733l0.2-1 1-0.4 0.867 0.6c0.133 0.133 0.333 0.2 0.533 0.2 0.013 0.001 0.029 0.001 0.045 0.001 0.245 0 0.466-0.103 0.622-0.268l0-0 0.933-0.933c0.333-0.333 0.333-0.8 0.067-1.2l-0.6-0.867c0.2-0.333 0.333-0.667 0.4-1l1-0.2c0.467-0.067 0.733-0.467 0.733-0.867v-1.333c0-0.4-0.333-0.8-0.733-0.867zM14.533 8.667c0 0.067 0 0.067-0.067 0.067l-1.267 0.2c-0.133 0-0.267 0.133-0.333 0.333-0.133 0.467-0.267 0.867-0.533 1.267-0.032 0.069-0.050 0.149-0.050 0.233s0.018 0.165 0.052 0.237l-0.001-0.004 0.733 1.067v0.133l-0.933 0.933h-0.134l-1.067-0.733c-0.133-0.067-0.333-0.133-0.467 0-0.4 0.267-0.8 0.4-1.267 0.533-0.142 0.077-0.256 0.191-0.331 0.329l-0.002 0.004-0.2 1.267c0 0.067-0.067 0.067-0.067 0.067h-1.267c-0.067 0-0.067 0-0.067-0.067l-0.2-1.267c0-0.133-0.133-0.267-0.333-0.333-0.467-0.133-0.867-0.267-1.267-0.533-0.067-0.067-0.133-0.067-0.2-0.067s-0.2 0-0.267 0.067l-1 0.667h-0.134l-0.933-0.933v-0.133l0.733-1.067c0.067-0.133 0.133-0.333 0-0.467-0.267-0.4-0.4-0.8-0.533-1.267-0.077-0.142-0.191-0.256-0.329-0.331l-0.004-0.002-1.267-0.2c-0.067 0-0.067-0.067-0.067-0.067v-1.267c0-0.067 0-0.067 0.067-0.067l1.267-0.2c0.133 0 0.267-0.133 0.333-0.333 0.133-0.467 0.267-0.867 0.533-1.267 0.032-0.069 0.050-0.149 0.050-0.234s-0.018-0.165-0.052-0.237l0.001 0.004-0.733-1v-0.133l0.933-0.933h0.134l1.067 0.733c0.133 0.067 0.333 0.133 0.467 0 0.333-0.2 0.733-0.333 1.2-0.467 0.142-0.077 0.256-0.191 0.331-0.329l0.002-0.004 0.2-1.267c0-0.067 0.067-0.067 0.067-0.067h1.267c0.067 0 0.067 0 0.067 0.067l0.2 1.267c0 0.133 0.133 0.267 0.333 0.333 0.467 0.133 0.933 0.267 1.333 0.533 0.069 0.032 0.149 0.050 0.233 0.050s0.165-0.018 0.237-0.052l-0.004 0.001 1.067-0.733h0.134l0.933 0.933v0.133l-0.733 1.067c-0.067 0.133-0.133 0.333 0 0.467 0.267 0.4 0.4 0.8 0.533 1.267 0.067 0.133 0.2 0.267 0.333 0.333l1.267 0.2c0.067 0 0.067 0.067 0.067 0.067l-0.067 1.2z"></path>
<path d="M8 4.8c-1.733 0-3.133 1.4-3.133 3.133s1.4 3.133 3.133 3.133c0.001 0 0.002 0 0.003 0 1.729 0 3.13-1.401 3.13-3.13 0-0.001 0-0.002 0-0.003v0c0-1.667-1.4-3.133-3.133-3.133zM8 10.333c-1.267 0-2.333-1.067-2.333-2.333s1.067-2.333 2.333-2.333c1.267 0 2.333 1.067 2.333 2.333s-1.067 2.333-2.333 2.333z"></path>
</svg>
