<!-- Generated by IcoMoon.io -->
<svg version="1.1" xmlns="http://www.w3.org/2000/svg" width="16" height="16" viewBox="0 0 16 16">
<title>share</title>
<path d="M12 10.733c-0.533 0-0.933 0.2-1.333 0.533l-4.733-2.8c0.067-0.133 0.067-0.267 0.067-0.467 0-0.133 0-0.333-0.067-0.467l4.733-2.733c0.333 0.333 0.8 0.533 1.333 0.533 1.133 0 2-0.867 2-2s-0.867-2-2-2-2 0.867-2 2c0 0.133 0 0.333 0.067 0.467l-4.733 2.733c-0.336-0.33-0.796-0.533-1.304-0.533-0.010 0-0.020 0-0.030 0h0.002c-1.133 0-2 0.867-2 2s0.867 2 2 2c0.533 0 1-0.2 1.333-0.533l4.733 2.8c-0.067 0.133-0.067 0.267-0.067 0.467 0 1.067 0.867 1.933 1.933 1.933s1.933-0.867 1.933-1.933c0.067-1.067-0.8-2-1.867-2z"></path>
</svg>
