<svg xmlns="http://www.w3.org/2000/svg" width="16" height="16" viewBox="0 0 16 16"><title>share</title><path d="M12 10.733c-.533 0-.933.2-1.333.533l-4.733-2.8c.067-.133.067-.267.067-.467 0-.133 0-.333-.067-.467l4.733-2.733c.333.333.8.533 1.333.533 1.133 0 2-.867 2-2s-.867-2-2-2-2 .867-2 2c0 .133 0 .333.067.467L5.334 6.532a1.862 1.862 0 0 0-1.333-.533c-1.133 0-2 .867-2 2s.867 2 2 2c.533 0 1-.2 1.333-.533l4.733 2.8c-.067.133-.067.267-.067.467 0 1.067.867 1.933 1.933 1.933s1.933-.867 1.933-1.933c.067-1.067-.8-2-1.867-2z"/></svg>