<!-- Generated by IcoMoon.io -->
<svg version="1.1" xmlns="http://www.w3.org/2000/svg" width="16" height="16" viewBox="0 0 16 16">
<title>shop</title>
<path d="M15 6v-0.067l-1.467-3.667c-0.133-0.133-0.267-0.267-0.533-0.267h-9.533c-0.2 0-0.4 0.133-0.467 0.267l-1.533 3.6v0.067l-0.067 0.133v0.133c-0.067 0.133-0.067 0.267-0.067 0.4 0 0.8 0.6 1.467 1.4 1.733v5.333c0 0.267 0.2 0.4 0.467 0.4h10.267c0.267 0 0.467-0.2 0.467-0.4v-5.4c0.667-0.333 1.2-0.933 1.2-1.667 0-0.133 0-0.267-0.067-0.4 0-0.067 0-0.133-0.067-0.2zM13.333 7.533h-0.466c-0.067 0-0.133 0-0.133-0.067-0.4-0.133-0.667-0.467-0.667-0.8v-0.067c0-0.267-0.2-0.4-0.467-0.4s-0.467 0.2-0.467 0.4v0.067c-0.067 0.4-0.333 0.667-0.733 0.8-0.133 0.067-0.267 0.067-0.4 0.067h-0.2c-0.067 0-0.133 0-0.133-0.067-0.367-0.121-0.644-0.42-0.732-0.793l-0.001-0.007v-0.067c0-0.267-0.2-0.4-0.467-0.4s-0.467 0.2-0.467 0.4v0.067c-0.067 0.4-0.333 0.667-0.667 0.8-0.133 0.067-0.267 0.067-0.4 0.067h-0.2c-0.067 0-0.133 0-0.2-0.067-0.367-0.121-0.644-0.42-0.732-0.793l-0.001-0.007v-0.067c0-0.267-0.2-0.4-0.467-0.4s-0.467 0.2-0.467 0.4v0.067c-0.067 0.4-0.333 0.667-0.733 0.8-0.067 0-0.133 0-0.133 0.067h-0.8c-0.533-0.067-0.933-0.467-0.933-0.933 0-0.067 0-0.133 0.067-0.267v-0.067l1.4-3.467h8.933l1.4 3.4v0.134c0 0.067 0.067 0.2 0.067 0.267 0 0.003 0 0.006 0 0.010 0 0.468-0.345 0.856-0.795 0.923l-0.005 0.001zM13 13.2h-9.333v-4.8h0.067c0.467-0.067 0.933-0.267 1.267-0.6 0.4 0.4 0.933 0.667 1.6 0.667s1.2-0.267 1.6-0.667c0.4 0.4 0.933 0.667 1.6 0.667s1.2-0.267 1.6-0.667c0.267 0.267 0.667 0.467 1.067 0.6h0.467v4.8z"></path>
</svg>
