<svg xmlns="http://www.w3.org/2000/svg" width="16" height="16" viewBox="0 0 16 16"><title>shop</title><path d="M15 6v-.067l-1.467-3.667c-.133-.133-.267-.267-.533-.267H3.467c-.2 0-.4.133-.467.267l-1.533 3.6v.067l-.067.133v.133c-.067.133-.067.267-.067.4 0 .8.6 1.467 1.4 1.733v5.333c0 .267.2.4.467.4h10.267c.267 0 .467-.2.467-.4v-5.4c.667-.333 1.2-.933 1.2-1.667 0-.133 0-.267-.067-.4 0-.067 0-.133-.067-.2zm-1.667 1.533h-.466c-.067 0-.133 0-.133-.067-.4-.133-.667-.467-.667-.8v-.067c0-.267-.2-.4-.467-.4s-.467.2-.467.4v.067c-.067.4-.333.667-.733.8-.133.067-.267.067-.4.067h-.2c-.067 0-.133 0-.133-.067a1.098 1.098 0 0 1-.733-.8v-.067c0-.267-.2-.4-.467-.4s-.467.2-.467.4v.067c-.067.4-.333.667-.667.8-.133.067-.267.067-.4.067h-.2c-.067 0-.133 0-.2-.067a1.098 1.098 0 0 1-.733-.8v-.067c0-.267-.2-.4-.467-.4s-.467.2-.467.4v.067c-.067.4-.333.667-.733.8-.067 0-.133 0-.133.067h-.8c-.533-.067-.933-.467-.933-.933 0-.067 0-.133.067-.267v-.067l1.4-3.467h8.933l1.4 3.4v.134c0 .067.067.2.067.267a.933.933 0 0 1-.8.933zM13 13.2H3.667V8.4h.067c.467-.067.933-.267 1.267-.6.4.4.933.667 1.6.667s1.2-.267 1.6-.667c.4.4.933.667 1.6.667s1.2-.267 1.6-.667c.267.267.667.467 1.067.6h.467v4.8z"/></svg>