<svg xmlns="http://www.w3.org/2000/svg" width="16" height="16" viewBox="0 0 16 16"><title>smoke</title><path d="M13.2 10.533H1.067c-.2 0-.4.2-.4.4v2.4c0 .2.2.4.4.4h12.067c.2 0 .4-.2.4-.4v-2.4c.067-.2-.133-.4-.333-.4zm-9.667 2.4H1.466v-1.6h2.067v1.6zm7.4 0h-6.6v-1.6h6.6v1.6zm1.8 0h-1v-1.6h1v1.6zM14.4 5.467c.667.667.933 1.333.933 2.067 0 1.2-.933 2-.933 2-.067.067-.4.2-.6 0-.133-.133-.133-.4 0-.6 0 0 .667-.6.667-1.467 0-.533-.2-1-.733-1.467-.667-.667-1-1.4-.933-2.133.067-1.133.933-1.8 1-1.867.2 0 .467 0 .6.2.133.2.133.4-.067.6 0 0-.667.533-.667 1.267 0 .467.2.933.733 1.4zm-1.867 0c.667.667.933 1.333.933 2.067 0 1.2-.933 2-.933 2-.067.067-.4.2-.6 0-.133-.133-.133-.4 0-.6 0 0 .667-.6.667-1.467 0-.533-.2-1-.733-1.467-.667-.667-1-1.4-.933-2.133.067-1.133.933-1.8 1-1.867.2 0 .467 0 .6.2.133.2.133.4-.067.6 0 0-.667.533-.667 1.267 0 .467.267.933.733 1.4z"/></svg>