<!-- Generated by IcoMoon.io -->
<svg version="1.1" xmlns="http://www.w3.org/2000/svg" width="16" height="16" viewBox="0 0 16 16">
<title>smoke</title>
<path d="M13.2 10.533h-12.133c-0.2 0-0.4 0.2-0.4 0.4v2.4c0 0.2 0.2 0.4 0.4 0.4h12.067c0.2 0 0.4-0.2 0.4-0.4v-2.4c0.067-0.2-0.133-0.4-0.333-0.4zM3.533 12.933h-2.067v-1.6h2.067v1.6zM10.933 12.933h-6.6v-1.6h6.6v1.6zM12.733 12.933h-1v-1.6h1v1.6zM14.4 5.467c0.667 0.667 0.933 1.333 0.933 2.067 0 1.2-0.933 2-0.933 2-0.067 0.067-0.4 0.2-0.6 0-0.133-0.133-0.133-0.4 0-0.6 0 0 0.667-0.6 0.667-1.467 0-0.533-0.2-1-0.733-1.467-0.667-0.667-1-1.4-0.933-2.133 0.067-1.133 0.933-1.8 1-1.867 0.2 0 0.467 0 0.6 0.2s0.133 0.4-0.067 0.6c0 0-0.667 0.533-0.667 1.267 0 0.467 0.2 0.933 0.733 1.4zM12.533 5.467c0.667 0.667 0.933 1.333 0.933 2.067 0 1.2-0.933 2-0.933 2-0.067 0.067-0.4 0.2-0.6 0-0.133-0.133-0.133-0.4 0-0.6 0 0 0.667-0.6 0.667-1.467 0-0.533-0.2-1-0.733-1.467-0.667-0.667-1-1.4-0.933-2.133 0.067-1.133 0.933-1.8 1-1.867 0.2 0 0.467 0 0.6 0.2s0.133 0.4-0.067 0.6c0 0-0.667 0.533-0.667 1.267 0 0.467 0.267 0.933 0.733 1.4z"></path>
</svg>
