<svg xmlns="http://www.w3.org/2000/svg" width="16" height="16" viewBox="0 0 16 16"><title>socket</title><path d="M13.933 2H7.8c-.8 0-1.4.667-1.4 1.4v6.267c0 .8.6 1.4 1.4 1.4h6.133c.8 0 1.4-.667 1.4-1.4V3.4c0-.733-.6-1.4-1.4-1.4zM13.6 6.533c0 1.533-1.2 2.733-2.733 2.733S8.134 7.999 8.134 6.533C8.134 5 9.334 3.8 10.867 3.8S13.6 5 13.6 6.533zm-.867-.266v.467a.526.526 0 0 1-.533.533h-.467a.526.526 0 0 1-.533-.533v-.467c0-.333.267-.533.533-.533h.467c.333 0 .533.267.533.533zm-2.2 0v.467a.526.526 0 0 1-.533.533h-.467A.526.526 0 0 1 9 6.734v-.467c0-.333.267-.533.533-.533H10c.267 0 .533.267.533.533zm4.134 6.533a.526.526 0 0 1-.533.533h-8.8c-1.533 0-2.733-1.267-2.733-2.8V8.266c-.867-.2-1.533-.933-1.533-1.867V5.132c-.267-.067-.4-.333-.4-.533 0-.333.267-.6.533-.6h.467V2.932c0-.333.267-.533.533-.533s.533.267.533.533v1.067h.8V2.932c0-.333.267-.533.533-.533.333 0 .533.267.533.533v1.067h.467c.333 0 .533.267.533.533s-.133.467-.4.533v1.267c0 .933-.667 1.733-1.533 1.867v2.267a1.65 1.65 0 0 0 1.667 1.667h8.8c.333.067.533.333.533.667z"/></svg>