<!-- Generated by IcoMoon.io -->
<svg version="1.1" xmlns="http://www.w3.org/2000/svg" width="16" height="16" viewBox="0 0 16 16">
<title>socket</title>
<path d="M13.933 2h-6.133c-0.8 0-1.4 0.667-1.4 1.4v6.267c0 0.8 0.6 1.4 1.4 1.4h6.133c0.8 0 1.4-0.667 1.4-1.4v-6.267c0-0.733-0.6-1.4-1.4-1.4zM13.6 6.533c0 1.533-1.2 2.733-2.733 2.733s-2.733-1.267-2.733-2.733c0-1.533 1.2-2.733 2.733-2.733s2.733 1.2 2.733 2.733zM12.733 6.267v0.467c0 0.002 0 0.005 0 0.007 0 0.29-0.236 0.526-0.526 0.526-0.002 0-0.005-0-0.007-0h-0.467c-0.002 0-0.005 0-0.007 0-0.29 0-0.526-0.236-0.526-0.526 0-0.002 0-0.005 0-0.007v0-0.467c0-0.333 0.267-0.533 0.533-0.533h0.467c0.333 0 0.533 0.267 0.533 0.533zM10.533 6.267v0.467c0 0.002 0 0.005 0 0.007 0 0.29-0.236 0.526-0.526 0.526-0.002 0-0.005-0-0.007-0h-0.467c-0.002 0-0.005 0-0.007 0-0.29 0-0.526-0.236-0.526-0.526 0-0.002 0-0.005 0-0.007v0-0.467c0-0.333 0.267-0.533 0.533-0.533h0.467c0.267 0 0.533 0.267 0.533 0.533zM14.667 12.8c0 0.002 0 0.005 0 0.007 0 0.29-0.236 0.526-0.526 0.526-0.002 0-0.005-0-0.007-0h-8.8c-1.533 0-2.733-1.267-2.733-2.8v-2.267c-0.867-0.2-1.533-0.933-1.533-1.867v-1.267c-0.267-0.067-0.4-0.333-0.4-0.533 0-0.333 0.267-0.6 0.533-0.6h0.467v-1.067c0-0.333 0.267-0.533 0.533-0.533s0.533 0.267 0.533 0.533v1.067h0.8v-1.067c0-0.333 0.267-0.533 0.533-0.533 0.333 0 0.533 0.267 0.533 0.533v1.067h0.467c0.333 0 0.533 0.267 0.533 0.533s-0.133 0.467-0.4 0.533v1.267c0 0.933-0.667 1.733-1.533 1.867v2.267c-0 0.005-0 0.011-0 0.017 0 0.911 0.739 1.65 1.65 1.65 0.006 0 0.012-0 0.018-0h8.799c0.333 0.067 0.533 0.333 0.533 0.667z"></path>
</svg>
