<svg xmlns="http://www.w3.org/2000/svg" width="16" height="16" viewBox="0 0 16 16"><title>takeaway</title><path d="M2.733 4c.133-.2.4-.267.6-.2l.2.2H3.6l-2 10.467h7.667L11.8 1.534H2.467v1.267H10.6c.267 0 .467.2.467.4s-.2.467-.4.467h-8.6c-.267 0-.4-.2-.4-.4v-2.2c-.067-.2.133-.4.4-.4h10.267a.51.51 0 0 1 .333.133c0 .067 0 .133.067.267l2.6 13.667c0 .067.067.133.067.2v.067c-.067.2-.2.333-.4.333H1.068c-.2 0-.333-.133-.4-.4v-.2L2.735 4.002h.133v.2h-.133v-.2zm10.134 8.867l1.533.733-1.533-9v8.267zm-.734 0V3.134L9.866 14.401l2.267-1.533zm2.6 2l-2.2-1.333-2.2 1.333h4.4zm-10.6-7.2s-.067 0-.067.067l-.4 2.067s0 .067.067.067h5.133s.067 0 .067-.067l.4-2.067s0-.067-.067-.067H4.133zm5.934-.067L9.6 9.933c0 .267-.2.4-.4.4H3.333c-.2 0-.4-.2-.4-.467L3.4 7.533c0-.267.2-.4.4-.4h5.867c.2 0 .4.2.4.467z"/></svg>