<!-- Generated by IcoMoon.io -->
<svg version="1.1" xmlns="http://www.w3.org/2000/svg" width="16" height="16" viewBox="0 0 16 16">
<title>takeaway</title>
<path d="M2.733 4c0.133-0.2 0.4-0.267 0.6-0.2l0.2 0.2h0.067l-2 10.467h7.667l2.533-12.933h-9.333v1.267h8.133c0.267 0 0.467 0.2 0.467 0.4s-0.2 0.467-0.4 0.467h-8.6c-0.267 0-0.4-0.2-0.4-0.4v-2.2c-0.067-0.2 0.133-0.4 0.4-0.4h10.267c0.129 0.003 0.245 0.053 0.333 0.133v0c0 0.067 0 0.133 0.067 0.267l2.6 13.667c0 0.067 0.067 0.133 0.067 0.2v0.067c-0.067 0.2-0.2 0.333-0.4 0.333h-13.933c-0.2 0-0.333-0.133-0.4-0.4v-0.2l2.067-10.733h0.133v0.2h-0.133v-0.2zM12.867 12.867l1.533 0.733-1.533-9v8.267zM12.133 12.867v-9.733l-2.267 11.267 2.267-1.533zM14.733 14.867l-2.2-1.333-2.2 1.333h4.4zM4.133 7.667s-0.067 0-0.067 0.067l-0.4 2.067s0 0.067 0.067 0.067h5.133s0.067 0 0.067-0.067l0.4-2.067s0-0.067-0.067-0.067h-5.133zM10.067 7.6l-0.467 2.333c0 0.267-0.2 0.4-0.4 0.4h-5.867c-0.2 0-0.4-0.2-0.4-0.467l0.467-2.333c0-0.267 0.2-0.4 0.4-0.4h5.867c0.2 0 0.4 0.2 0.4 0.467z"></path>
</svg>
