<svg xmlns="http://www.w3.org/2000/svg" width="16" height="16" viewBox="0 0 16 16"><title>tax</title><path d="M11.2 6.6V.533C11.2.266 11 0 10.667 0H1.2C.933 0 .667.267.667.533v14.2c0 .267.267.533.533.533h7.733c.6.267 1.267.467 2 .467 2.533 0 4.533-2.067 4.533-4.533s-1.867-4.467-4.267-4.6zM1.733 1.067h8.4v5.6C8 7.067 6.4 8.934 6.4 11.134c0 1.133.4 2.2 1.133 3H1.8L1.733 1.067zm9.2 13.6c-1.933 0-3.467-1.533-3.467-3.467s1.533-3.467 3.467-3.467h.024a3.442 3.442 0 0 1 3.443 3.443v.025-.001c0 1.867-1.533 3.4-3.467 3.467z"/><path d="M12.533 9.6c-.2-.2-.533-.2-.733 0l-2.333 2.333c-.2.2-.2.533 0 .733s.533.2.733 0l2.333-2.333c.2-.2.2-.533 0-.733zm-2.8.933c.133 0 .267-.067.4-.133.2-.2.2-.533 0-.733-.133-.067-.267-.133-.4-.133s-.267.067-.4.133c-.067.133-.133.267-.133.4s.067.267.133.4c.133 0 .267.067.4.067zm2.4 1.267c-.267 0-.533.267-.533.533 0 .133.067.267.133.4.133.067.267.133.4.133s.267-.067.4-.133c.133-.133.133-.267.133-.4s-.067-.267-.133-.4c-.133-.067-.267-.133-.4-.133zM4.067 3.933h3.8c.267 0 .533-.267.533-.533s-.267-.533-.533-.533h-3.8c-.267 0-.533.267-.533.533s.267.533.533.533zm0 2.8h3.8c.267 0 .533-.267.533-.533s-.267-.533-.533-.533h-3.8c-.267 0-.533.267-.533.533 0 .333.267.533.533.533zM5 8.533h-.933c-.267 0-.533.267-.533.533s.267.533.533.533H5c.267 0 .533-.267.533-.533 0-.333-.2-.533-.533-.533z"/></svg>