<!-- Generated by IcoMoon.io -->
<svg version="1.1" xmlns="http://www.w3.org/2000/svg" width="16" height="16" viewBox="0 0 16 16">
<title>tax</title>
<path d="M11.2 6.6v-6.067c0-0.267-0.2-0.533-0.533-0.533h-9.467c-0.267 0-0.533 0.267-0.533 0.533v14.2c0 0.267 0.267 0.533 0.533 0.533h7.733c0.6 0.267 1.267 0.467 2 0.467 2.533 0 4.533-2.067 4.533-4.533s-1.867-4.467-4.267-4.6zM1.733 1.067h8.4v5.6c-2.133 0.4-3.733 2.267-3.733 4.467 0 1.133 0.4 2.2 1.133 3h-5.733l-0.067-13.067zM10.933 14.667c-1.933 0-3.467-1.533-3.467-3.467s1.533-3.467 3.467-3.467c0.007-0 0.016-0 0.024-0 1.902 0 3.443 1.541 3.443 3.443 0 0.008-0 0.017-0 0.025v-0.001c0 1.867-1.533 3.4-3.467 3.467z"></path>
<path d="M12.533 9.6c-0.2-0.2-0.533-0.2-0.733 0l-2.333 2.333c-0.2 0.2-0.2 0.533 0 0.733s0.533 0.2 0.733 0l2.333-2.333c0.2-0.2 0.2-0.533 0-0.733zM9.733 10.533c0.133 0 0.267-0.067 0.4-0.133 0.2-0.2 0.2-0.533 0-0.733-0.133-0.067-0.267-0.133-0.4-0.133s-0.267 0.067-0.4 0.133c-0.067 0.133-0.133 0.267-0.133 0.4s0.067 0.267 0.133 0.4c0.133 0 0.267 0.067 0.4 0.067zM12.133 11.8c-0.267 0-0.533 0.267-0.533 0.533 0 0.133 0.067 0.267 0.133 0.4 0.133 0.067 0.267 0.133 0.4 0.133s0.267-0.067 0.4-0.133c0.133-0.133 0.133-0.267 0.133-0.4s-0.067-0.267-0.133-0.4c-0.133-0.067-0.267-0.133-0.4-0.133zM4.067 3.933h3.8c0.267 0 0.533-0.267 0.533-0.533s-0.267-0.533-0.533-0.533h-3.8c-0.267 0-0.533 0.267-0.533 0.533s0.267 0.533 0.533 0.533zM4.067 6.733h3.8c0.267 0 0.533-0.267 0.533-0.533s-0.267-0.533-0.533-0.533h-3.8c-0.267 0-0.533 0.267-0.533 0.533 0 0.333 0.267 0.533 0.533 0.533zM5 8.533h-0.933c-0.267 0-0.533 0.267-0.533 0.533s0.267 0.533 0.533 0.533h0.933c0.267 0 0.533-0.267 0.533-0.533 0-0.333-0.2-0.533-0.533-0.533z"></path>
</svg>
