<svg xmlns="http://www.w3.org/2000/svg" width="16" height="16" viewBox="0 0 16 16"><title>thumbsup</title><path d="M5.8 8.133v5.733h6.133c.733 0 1.667-.667 2-2.067l.533-3.133c0-1.067-.933-1.933-2-1.933h-1.933c-.2 0-.4-.2-.4-.4v-.067c.133-.733.2-1.533.2-2.267v-.2c0-.333 0-1.133-.333-1.467a.607.607 0 0 0-.467-.2c-.467 0-.533.533-.6 1.933-.067 1.6-.2 4.067-2.8 4.067H5.8zm6.133 6.534h-10.2c-.2 0-.4-.2-.4-.4V7.734c0-.2.2-.4.4-.4h4.4c1.733 0 1.933-1.267 2-3.267 0-1.267.067-2.733 1.4-2.733.467 0 .8.133 1.067.4.6.6.6 1.6.6 2.067v.067c0 .8-.067 1.533-.133 2h1.4c1.533 0 2.8 1.267 2.8 2.8v.067l-.533 3.2c-.467 1.867-1.733 2.733-2.8 2.733zm-9.8-.8h2.8V8.134h-2.8v5.733z"/></svg>