<!-- Generated by IcoMoon.io -->
<svg version="1.1" xmlns="http://www.w3.org/2000/svg" width="16" height="16" viewBox="0 0 16 16">
<title>thumbsup</title>
<path d="M5.8 8.133v5.733h6.133c0.733 0 1.667-0.667 2-2.067l0.533-3.133c0-1.067-0.933-1.933-2-1.933h-1.933c-0.2 0-0.4-0.2-0.4-0.4v-0.067c0.133-0.733 0.2-1.533 0.2-2.267v-0.2c0-0.333 0-1.133-0.333-1.467-0.112-0.123-0.272-0.2-0.451-0.2-0.006 0-0.012 0-0.017 0h0.001c-0.467 0-0.533 0.533-0.6 1.933-0.067 1.6-0.2 4.067-2.8 4.067h-0.333zM11.933 14.667h-10.2c-0.2 0-0.4-0.2-0.4-0.4v-6.533c0-0.2 0.2-0.4 0.4-0.4h4.4c1.733 0 1.933-1.267 2-3.267 0-1.267 0.067-2.733 1.4-2.733 0.467 0 0.8 0.133 1.067 0.4 0.6 0.6 0.6 1.6 0.6 2.067v0.067c0 0.8-0.067 1.533-0.133 2h1.4c1.533 0 2.8 1.267 2.8 2.8v0.067l-0.533 3.2c-0.467 1.867-1.733 2.733-2.8 2.733zM2.133 13.867h2.8v-5.733h-2.8v5.733z"></path>
</svg>
