<svg xmlns="http://www.w3.org/2000/svg" width="16" height="16" viewBox="0 0 16 16"><title>trash</title><path d="M13.467 3.267h-2.8V2.8c0-.8-.667-1.467-1.467-1.467H6.533c-.733 0-1.4.667-1.4 1.467v.467H2.4c-.2 0-.4.133-.4.333s.133.4.4.4h.667v8.667c0 1.067.867 2 2 2h5.8c1.067 0 2-.867 2-2V4h.667c.2 0 .4-.133.4-.4a.504.504 0 0 0-.467-.333zm-7.6-.467c0-.4.333-.733.733-.733h2.667c.4 0 .733.333.733.733v.467H5.867V2.8zm6.2 9.867c0 .667-.533 1.267-1.267 1.267H4.999a1.266 1.266 0 0 1-1.266-1.266V4h8.333v8.667zM7.933 12.6c.2 0 .4-.133.4-.4V5.667c0-.2-.133-.4-.4-.4-.2 0-.4.133-.4.4V12.2c0 .2.2.4.4.4zm-2.4-.4c.2 0 .4-.133.4-.4V6.067c0-.2-.133-.4-.4-.4-.2.067-.4.2-.4.4V11.8c0 .2.2.4.4.4zm4.8 0c.2 0 .4-.133.4-.333v-5.8c0-.2-.133-.4-.4-.4-.2 0-.4.133-.4.4V11.8c.067.2.2.4.4.4z"/></svg>