<!-- Generated by IcoMoon.io -->
<svg version="1.1" xmlns="http://www.w3.org/2000/svg" width="16" height="16" viewBox="0 0 16 16">
<title>user</title>
<path d="M15.333 8c0-4.067-3.267-7.333-7.333-7.333s-7.333 3.267-7.333 7.333c0.003 2.139 0.926 4.062 2.394 5.395l0.006 0.005 0.267 0.2 0.067 0.067c0.133 0.133 0.267 0.2 0.4 0.333l0.6 0.4 0.067 0.067c0.133 0.067 0.333 0.2 0.533 0.267h0.067c0.733 0.333 1.6 0.6 2.4 0.667h1.334c0.2 0 0.4-0.067 0.6-0.067h0.067c0.6-0.133 1.2-0.267 1.733-0.533h0.067c0.333-0.2 0.667-0.333 1-0.6 0.067 0 0.067-0.067 0.133-0.133 0.133-0.067 0.2-0.2 0.333-0.267l0.067-0.067 0.267-0.2c1.4-1.467 2.267-3.467 2.267-5.533zM1.2 8c0-3.733 3.067-6.8 6.8-6.8s6.8 3.067 6.8 6.8c0 2-0.867 3.867-2.267 5.067-0.067-0.067-0.133-0.133-0.267-0.133l-2.267-1.133c-0.2-0.133-0.333-0.333-0.333-0.533v-0.8c0.067-0.067 0.133-0.133 0.133-0.2 0.267-0.4 0.533-0.867 0.667-1.333 0.333-0.133 0.533-0.467 0.533-0.867v-0.933c0-0.2-0.067-0.467-0.267-0.6v-1.333c0-0.133 0.067-0.933-0.533-1.533-0.467-0.533-1.267-0.867-2.333-0.867s-1.867 0.267-2.333 0.867c-0.533 0.667-0.533 1.4-0.533 1.533v1.267c-0.133 0.2-0.267 0.4-0.267 0.6v0.933c0 0.267 0.133 0.6 0.333 0.733 0.2 0.867 0.667 1.467 0.8 1.733v0.8c0 0.2-0.133 0.4-0.333 0.533l-2.133 1.133c-0.067 0.067-0.133 0.067-0.2 0.133-1.2-1.267-2-3.133-2-5.067z"></path>
</svg>
