<svg xmlns="http://www.w3.org/2000/svg" width="16" height="16" viewBox="0 0 16 16"><title>user</title><path d="M15.333 8C15.333 3.933 12.066.667 8 .667S.667 3.934.667 8a7.28 7.28 0 0 0 2.394 5.395l.006.005.267.2.067.067c.133.133.267.2.4.333l.6.4.067.067c.133.067.333.2.533.267h.067c.733.333 1.6.6 2.4.667h1.334c.2 0 .4-.067.6-.067h.067c.6-.133 1.2-.267 1.733-.533h.067c.333-.2.667-.333 1-.6.067 0 .067-.067.133-.133.133-.067.2-.2.333-.267l.067-.067.267-.2c1.4-1.467 2.267-3.467 2.267-5.533zM1.2 8c0-3.733 3.067-6.8 6.8-6.8s6.8 3.067 6.8 6.8c0 2-.867 3.867-2.267 5.067-.067-.067-.133-.133-.267-.133l-2.267-1.133c-.2-.133-.333-.333-.333-.533v-.8c.067-.067.133-.133.133-.2.267-.4.533-.867.667-1.333.333-.133.533-.467.533-.867v-.933c0-.2-.067-.467-.267-.6V5.202c0-.133.067-.933-.533-1.533-.467-.533-1.267-.867-2.333-.867s-1.867.267-2.333.867C5 4.336 5 5.069 5 5.202v1.267c-.133.2-.267.4-.267.6v.933c0 .267.133.6.333.733.2.867.667 1.467.8 1.733v.8c0 .2-.133.4-.333.533L3.4 12.934c-.067.067-.133.067-.2.133C2 11.8 1.2 9.934 1.2 8z"/></svg>