<svg xmlns="http://www.w3.org/2000/svg" width="16" height="16" viewBox="0 0 16 16"><title>whatsapp</title><path d="M7.667 1.333C4.134 1.533 1.334 4.466 1.334 8c0 1.067.267 2.067.733 3l-.733 3.467c0 .133.067.267.2.333h.133L5 14c.867.467 1.867.667 2.867.667 3.6.067 6.667-2.8 6.8-6.467a6.652 6.652 0 0 0-7-6.867zm4 10.334c-1 1-2.333 1.533-3.667 1.533-.8 0-1.6-.2-2.333-.533L5.2 12.4l-2.067.467.467-2.133-.267-.333a4.93 4.93 0 0 1-.6-2.4c0-1.4.533-2.733 1.533-3.667 1-1 2.333-1.533 3.733-1.533s2.733.533 3.667 1.533c1 1 1.533 2.333 1.533 3.667 0 1.4-.533 2.733-1.533 3.667zm-.4-2.2L10 9.067c-.2-.067-.333 0-.467.133l-.333.333a.518.518 0 0 1-.533.133c-.6-.267-1.867-1.4-2.2-1.933-.067-.133-.067-.4.067-.533l.267-.333a.413.413 0 0 0 .067-.467l-.6-1.333c-.133-.267-.4-.333-.667-.267-.067 0-.067.067-.133.067-.333.333-.733.8-.8 1.333-.067.933.267 2.067 1.733 3.4 1.667 1.6 3.067 1.8 3.933 1.6.533-.133.933-.6 1.133-1 .133-.2.067-.533-.133-.667 0-.067-.067-.067-.067-.067z"/></svg>