<!-- Generated by IcoMoon.io -->
<svg version="1.1" xmlns="http://www.w3.org/2000/svg" width="16" height="16" viewBox="0 0 16 16">
<title>whatsapp</title>
<path d="M7.667 1.333c-3.533 0.2-6.333 3.133-6.333 6.667 0 1.067 0.267 2.067 0.733 3l-0.733 3.467c0 0.133 0.067 0.267 0.2 0.333 0.067 0 0.067 0 0.133 0l3.333-0.8c0.867 0.467 1.867 0.667 2.867 0.667 3.6 0.067 6.667-2.8 6.8-6.467 0.133-3.867-3.067-7.067-7-6.867v0zM11.667 11.667c-1 1-2.333 1.533-3.667 1.533-0.8 0-1.6-0.2-2.333-0.533l-0.467-0.267-2.067 0.467 0.467-2.133-0.267-0.333c-0.4-0.733-0.6-1.533-0.6-2.4 0-1.4 0.533-2.733 1.533-3.667 1-1 2.333-1.533 3.733-1.533s2.733 0.533 3.667 1.533c1 1 1.533 2.333 1.533 3.667 0 1.4-0.533 2.733-1.533 3.667zM11.267 9.467l-1.267-0.4c-0.2-0.067-0.333 0-0.467 0.133l-0.333 0.333c-0.133 0.133-0.333 0.2-0.533 0.133-0.6-0.267-1.867-1.4-2.2-1.933-0.067-0.133-0.067-0.4 0.067-0.533l0.267-0.333c0.133-0.133 0.133-0.333 0.067-0.467l-0.6-1.333c-0.133-0.267-0.4-0.333-0.667-0.267-0.067 0-0.067 0.067-0.133 0.067-0.333 0.333-0.733 0.8-0.8 1.333-0.067 0.933 0.267 2.067 1.733 3.4 1.667 1.6 3.067 1.8 3.933 1.6 0.533-0.133 0.933-0.6 1.133-1 0.133-0.2 0.067-0.533-0.133-0.667 0-0.067-0.067-0.067-0.067-0.067v0z"></path>
</svg>
