<!-- Generated by IcoMoon.io -->
<svg version="1.1" xmlns="http://www.w3.org/2000/svg" width="16" height="16" viewBox="0 0 16 16">
<title>wifi</title>
<path d="M14.533 5.4c0.067 0.067 0.133 0.2 0.133 0.333s-0.067 0.267-0.133 0.333l-0.733 0.733c-0.2 0.2-0.533 0.2-0.733 0-1.333-1.333-3.2-2.133-5.067-2.133-2 0-3.8 0.8-5.067 2.133-0.2 0.2-0.533 0.2-0.733 0l-0.733-0.667c-0.067-0.133-0.133-0.267-0.133-0.4s0.067-0.267 0.133-0.333c1.667-1.733 4-2.733 6.533-2.733s4.8 1 6.533 2.733zM8 6.8c1.467 0 2.667 0.533 3.6 1.467 0.2 0.2 0.2 0.533 0 0.733l-0.733 0.733c-0.2 0.2-0.533 0.2-0.733 0-0.533-0.533-1.333-0.867-2.133-0.867s-1.6 0.333-2.133 0.867c-0.2 0.2-0.533 0.2-0.733 0l-0.733-0.733c-0.2-0.2-0.2-0.533 0-0.733 0.849-0.907 2.054-1.472 3.39-1.472 0.074 0 0.147 0.002 0.22 0.005l-0.010-0zM8 12.933c-0.533 0-1-0.467-1-1s0.467-1 1-1c0.533 0 1 0.467 1 1s-0.467 1-1 1z"></path>
</svg>
