<svg xmlns="http://www.w3.org/2000/svg" width="16" height="16" viewBox="0 0 16 16"><title>wifi</title><path d="M14.533 5.4c.067.067.133.2.133.333s-.067.267-.133.333l-.733.733c-.2.2-.533.2-.733 0C11.734 5.466 9.867 4.666 8 4.666c-2 0-3.8.8-5.067 2.133-.2.2-.533.2-.733 0l-.733-.667c-.067-.133-.133-.267-.133-.4s.067-.267.133-.333c1.667-1.733 4-2.733 6.533-2.733s4.8 1 6.533 2.733zM8 6.8c1.467 0 2.667.533 3.6 1.467.2.2.2.533 0 .733l-.733.733c-.2.2-.533.2-.733 0-.533-.533-1.333-.867-2.133-.867s-1.6.333-2.133.867c-.2.2-.533.2-.733 0L4.402 9c-.2-.2-.2-.533 0-.733A4.63 4.63 0 0 1 8.012 6.8h-.01zm0 6.133c-.533 0-1-.467-1-1s.467-1 1-1c.533 0 1 .467 1 1s-.467 1-1 1z"/></svg>