<svg style="position: absolute; width: 0; height: 0; overflow: hidden;" version="1.1" xmlns="http://www.w3.org/2000/svg" xmlns:xlink="http://www.w3.org/1999/xlink">
<defs>
<symbol id="icon_ac" viewBox="0 0 16 16">
<title>ac</title>
<path d="M14.6 1.333h-13.2c-0.4 0-0.733 0.333-0.733 0.867v6.6c0 0.467 0.333 0.867 0.733 0.867h13.2c0.4 0 0.733-0.333 0.733-0.867v-6.6c0-0.533-0.333-0.867-0.733-0.867zM14.6 9.067h-13.2c-0.143-0.010-0.257-0.124-0.267-0.266v-6.601c0-0.2 0.133-0.267 0.267-0.267h13.2c0.133 0 0.267 0.133 0.267 0.267v6.6c-0.010 0.143-0.124 0.257-0.266 0.267h-0.001z"></path>
<path d="M7.267 3.867c-0.133 0-0.267-0.133-0.267-0.333s0.133-0.333 0.267-0.333h2.067c0.133 0 0.267 0.133 0.267 0.333s-0.133 0.333-0.267 0.333h-2.067zM14.467 7.067c0.133 0 0.267 0.133 0.267 0.333s-0.067 0.333-0.267 0.333h-12.267c-0.133 0-0.267-0.133-0.267-0.333s0.067-0.333 0.267-0.333h12.267zM14.467 5.8c0.133 0 0.267 0.133 0.267 0.333s-0.067 0.333-0.267 0.333h-12.267c-0.133 0-0.267-0.133-0.267-0.333s0.067-0.333 0.267-0.333h12.267zM7.8 12.267c0.333 0.2 0.533 0.533 0.533 0.933 0 0.333-0.2 0.667-0.533 0.933h-0.133c-0.066 0-0.133-0.067-0.2-0.133-0.067-0.133 0-0.267 0.067-0.333 0.2-0.133 0.333-0.267 0.333-0.4s-0.133-0.267-0.333-0.4-0.533-0.6-0.533-0.933c0-0.333 0.2-0.667 0.533-0.933 0.133-0.067 0.267 0 0.267 0.133 0.067 0.133 0 0.267-0.067 0.333-0.156 0.101-0.26 0.271-0.267 0.466v0.001c0 0.067 0.133 0.2 0.333 0.333zM4.6 12.267c0.333 0.2 0.533 0.533 0.533 0.933 0 0.333-0.2 0.667-0.533 0.933h-0.133c-0.066 0-0.133-0.067-0.2-0.133-0.067-0.133 0-0.267 0.067-0.333 0.2-0.133 0.333-0.267 0.333-0.4s-0.133-0.267-0.333-0.4-0.533-0.6-0.533-0.933c0-0.333 0.2-0.667 0.533-0.933 0.133-0.067 0.2 0 0.267 0.133s0 0.267-0.067 0.333c-0.156 0.101-0.26 0.271-0.267 0.466v0.001c0 0.067 0.133 0.2 0.333 0.333zM11 12.267c0.333 0.2 0.533 0.533 0.533 0.933 0 0.333-0.2 0.667-0.533 0.933h-0.133c-0.066 0-0.133-0.067-0.2-0.133-0.067-0.133 0-0.267 0.067-0.333 0.2-0.133 0.333-0.267 0.333-0.4s-0.133-0.267-0.333-0.4-0.533-0.6-0.533-0.933c0-0.333 0.2-0.667 0.533-0.933 0.133-0.067 0.267 0 0.267 0.133 0.067 0.133 0 0.267-0.067 0.333-0.156 0.101-0.26 0.271-0.267 0.466v0.001c0 0.067 0.067 0.2 0.333 0.333z"></path>
</symbol>
<symbol id="icon_add" viewBox="0 0 16 16">
<title>add</title>
<path d="M7.333 3.333v4h-4v1.333h4v4h1.333v-4h4v-1.333h-4v-4h-1.333z"></path>
</symbol>
<symbol id="icon_allday" viewBox="0 0 16 16">
<title>allday</title>
<path d="M7.2 2.6c-0.267-0.067-0.467-0.2-0.667-0.267v-0.067c-2.667 0.533-4.667 2.933-4.667 5.733 0 3.2 2.6 5.867 5.867 5.867 1.467 0 2.933-0.533 4-1.6l0.8 0.867c-1.333 1.2-3 1.933-4.8 1.933-3.867-0.067-7.067-3.2-7.067-7.067 0-3.733 2.933-6.8 6.533-7.067v-0.733c0-0.067 0.067-0.2 0.2-0.2h0.067l2.133 1.4c0.067 0.067 0.133 0.2 0.067 0.267 0 0 0 0.067-0.067 0.067l-2.133 1.4c-0.067 0.067-0.2 0.067-0.267-0.067v-0.466zM5.333 8.667c0.933-0.933 1.4-1.4 1.4-1.933 0-0.4-0.2-0.6-0.6-0.6-0.2 0-0.4 0.067-0.6 0.2-0.133 0.133-0.333 0.067-0.4-0.067v-0.067l-0.067-0.133c-0.067-0.067-0.067-0.2 0.067-0.333 0.333-0.267 0.733-0.4 1.133-0.4 0.933 0 1.333 0.667 1.333 1.267 0 0.8-0.6 1.4-1.4 2.2h1.2c0.133 0 0.267 0.133 0.267 0.267v0.2c-0.010 0.143-0.124 0.257-0.266 0.267h-2.201c-0.143-0.010-0.257-0.124-0.267-0.266v-0.134c0-0.067 0-0.133 0.067-0.2l0.333-0.267zM9.467 5.467h0.267c0.133 0 0.267 0.133 0.267 0.267v2.133h0.267c0.133 0 0.267 0.133 0.267 0.267v0.2c-0.010 0.143-0.124 0.257-0.266 0.267h-0.268v0.8c-0.010 0.143-0.124 0.257-0.266 0.267h-0.268c-0.143-0.010-0.257-0.124-0.267-0.266v-0.801h-1.533c-0.143-0.010-0.257-0.124-0.267-0.266v-0.201c0-0.067 0-0.133 0.067-0.133l1.667-2.4c0.067-0.067 0.133-0.133 0.2-0.133h0.133zM9.2 7.867v-1.2c-0.267 0.4-0.6 0.933-0.8 1.2h0.8zM13.733 4.333l-1 0.6c-0.217-0.353-0.46-0.659-0.733-0.933v0l0.867-0.8c0.333 0.333 0.667 0.733 0.867 1.133zM13.533 7.2c-0.065-0.432-0.158-0.814-0.281-1.182l0.014 0.049 1.133-0.4c0.133 0.467 0.267 0.867 0.333 1.333l-1.2 0.2zM12.267 11.667c0.267-0.333 0.467-0.6 0.667-0.933l1.067 0.533c-0.2 0.4-0.467 0.8-0.8 1.133 0 0.067-0.933-0.733-0.933-0.733zM13.6 8.4l1.2 0.067c-0.067 0.467-0.133 0.933-0.267 1.4l-1.133-0.333c0.067-0.333 0.133-0.733 0.2-1.133z"></path>
</symbol>
<symbol id="icon_arrowback" viewBox="0 0 16 16">
<title>arrowback</title>
<path d="M13.333 7.333h-8.133l3.733-3.733-0.933-0.933-5.333 5.333 5.333 5.333 0.933-0.933-3.733-3.733h8.133v-1.333z"></path>
</symbol>
<symbol id="icon_booth" viewBox="0 0 16 16">
<title>booth</title>
<path d="M13.8 11.867c0.667 0 1.2-0.533 1.2-1.133v-2.933c0-0.267-0.2-0.467-0.467-0.467h-0.667c-0.2 0-0.4 0.2-0.4 0.467v2.067c0 0.267-0.2 0.533-0.533 0.533-0.267 0-0.467-0.133-0.467-0.4h-8.867c-0.067 0.267-0.267 0.467-0.533 0.467s-0.467-0.2-0.533-0.467c-0.267 0-0.4-0.2-0.4-0.333 0-0.2 0.2-0.333 0.4-0.333v-1.4c0-0.267-0.2-0.533-0.467-0.533h-0.533c-0.267 0-0.533 0.267-0.533 0.533v3.134c0.133 0.533 0.6 0.867 1.133 0.867h0.067c0.067-0.267 0.267-0.467 0.467-0.467 0.067 0 0.133 0 0.267 0.067 0.067-0.067 0.133-0.067 0.267-0.067 0.267 0 0.467 0.2 0.467 0.467h8.733c0.067-0.267 0.267-0.467 0.467-0.467 0.067 0 0.2 0 0.267 0.067 0.067-0.067 0.133-0.067 0.267-0.067 0.2-0.067 0.333 0.133 0.4 0.4zM13.8 12.867v0.2c0 0.333-0.2 0.533-0.467 0.533h-0.467c-0.267 0-0.467-0.267-0.467-0.533v-0.2h-8.733v0.2c0 0.333-0.2 0.533-0.467 0.533h-0.533c-0.267 0-0.467-0.267-0.467-0.533v-0.2h-0.067c-1.067 0-1.933-0.733-2.133-1.8v-3.2c0-0.8 0.667-1.467 1.467-1.533v-1.667c0-1.067 0.933-2 2.067-2h8.933c1.133 0 2.067 0.933 2.067 2v1.6c0.8 0 1.467 0.667 1.467 1.467v2.933c0 1.2-1 2.2-2.2 2.2zM3.667 9.2h8.867v-1.4c0-0.667 0.467-1.267 1.067-1.4v-1.733c0-0.533-0.467-1.067-1.067-1.067h-9c-0.6 0.067-1.067 0.533-1.067 1.067v1.667c0.667 0.133 1.2 0.8 1.2 1.533v1.333z"></path>
</symbol>
<symbol id="icon_call" viewBox="0 0 16 16">
<title>call</title>
<path d="M13.267 13.867c-0.533 0.533-1.133 0.8-1.933 0.8h-0.2c-0.867-0.067-1.667-0.333-2.6-0.8-1.733-0.867-3.333-2.067-4.6-3.533-1.067-1.267-1.733-2.4-2.2-3.733-0.267-0.8-0.467-1.467-0.4-2.267 0.067-0.603 0.334-1.134 0.733-1.533v0l0.933-1c0.4-0.267 0.8-0.467 1.267-0.467s0.867 0.2 1.2 0.533c0.133 0.133 0.333 0.267 0.533 0.533l1.067 1.067c0.733 0.733 0.733 1.733 0 2.467l-0.067 0.067h-0.067l-0.266 0.266c-0.133 0.133-0.267 0.2-0.333 0.333 0.133 0.267 0.333 0.6 0.6 0.867 0.733 0.867 1.467 1.533 2.267 2.067 0 0 0.067 0.067 0.133 0.067s0.067 0.067 0.133 0.067l0.733-0.733c0.333-0.333 0.8-0.533 1.2-0.533 0.467 0 0.867 0.2 1.2 0.533l1.533 1.533c0.333 0.333 0.533 0.8 0.533 1.2 0 0.467-0.2 0.867-0.533 1.2l-0.6 0.6c-0.067 0.133-0.133 0.267-0.267 0.4l-0.267-0.267 0.333 0.133-0.067 0.133c0-0.067 0-0.067 0 0l0.067-0.067c0-0.067-0.067 0.067-0.067 0.067zM11.333 9.133c-0.267 0-0.467 0.133-0.733 0.333l-1.067 1.067-0.4-0.267c-0.067 0-0.133-0.067-0.133-0.067-0.067 0-0.133-0.067-0.133-0.067-0.867-0.533-1.667-1.267-2.4-2.2-0.372-0.359-0.684-0.778-0.921-1.241l-0.012-0.026-0.067-0.267 0.2-0.2c0.067-0.067 0.2-0.133 0.333-0.267 0-0.067 0.067-0.067 0.133-0.133l0.4-0.4c0.467-0.467 0.467-1 0-1.467l-1.6-1.6c-0.2-0.2-0.467-0.333-0.667-0.333-0.267 0.067-0.533 0.133-0.733 0.333l-0.933 1c-0.333 0.333-0.467 0.667-0.533 1.067-0.067 0.667 0.067 1.267 0.333 2 0.467 1.2 1.133 2.333 2.133 3.467 1.2 1.467 2.667 2.6 4.333 3.4 0.867 0.4 1.6 0.667 2.333 0.667h0.133c0.533 0 1-0.2 1.333-0.6l0.533-0.533c0.133-0.133 0.267-0.2 0.333-0.333 0.2-0.2 0.333-0.467 0.333-0.733s-0.133-0.467-0.333-0.733l-1.533-1.533c-0.133-0.2-0.4-0.333-0.667-0.333zM12.733 13.333c0 0.067 0 0.067 0 0z"></path>
</symbol>
<symbol id="icon_camera" viewBox="0 0 16 16">
<title>camera</title>
<path d="M14 5h-2.8l-0.067-0.667-0.067-0.4c0-0.2-0.133-0.333-0.267-0.467-0.2-0.067-0.333-0.133-0.533-0.133h-4.533c-0.2 0-0.333 0.067-0.533 0.2-0.133 0.133-0.2 0.267-0.267 0.4l-0.067 0.467-0.133 0.667h-2.733c-0.4-0.067-0.667 0.267-0.667 0.6v7c0 0.333 0.267 0.667 0.667 0.667h12c0.4 0 0.667-0.267 0.667-0.667v-7c-0.001-0.368-0.299-0.666-0.667-0.667v0zM13.867 12.533h-11.733v-6.733h2.667c0.4 0 0.733-0.267 0.8-0.667l0.067-0.667 0.067-0.4h4.533l0.067 0.4 0.133 0.667c0.067 0.333 0.4 0.667 0.8 0.667h2.667v6.733h-0.067zM12.6 7.6c0.333 0 0.667-0.267 0.667-0.6s-0.267-0.6-0.667-0.6c-0.333 0-0.667 0.267-0.667 0.6s0.267 0.6 0.667 0.6zM8 6c-0.8 0-1.533 0.267-2.133 0.867-0.6 0.533-0.867 1.267-0.867 2 0 0.8 0.267 1.467 0.867 2s1.267 0.8 2.133 0.867c1.6 0 3-1.333 3-2.867 0-0.8-0.267-1.467-0.867-2-0.6-0.6-1.333-0.867-2.133-0.867zM9.533 10.333c-0.4 0.4-0.933 0.6-1.533 0.6s-1.133-0.2-1.533-0.6c-0.4-0.4-0.667-0.933-0.667-1.467 0-0.6 0.2-1.067 0.667-1.467 0.4-0.4 1-0.6 1.533-0.6 0.6 0 1.133 0.2 1.533 0.6s0.667 0.933 0.667 1.467c0 0.533-0.2 1.067-0.667 1.467z"></path>
</symbol>
<symbol id="icon_car-parking" viewBox="0 0 16 16">
<title>car-parking</title>
<path d="M15.067 11.133h-0.267c-0.001-1.067-0.866-1.932-1.933-1.933h-1.8l-1.133-2.533c-0.067-0.067-0.133-0.133-0.2-0.133h-6.867c-0.143 0.010-0.257 0.124-0.267 0.266v2.468h-0.467c-0.143 0.010-0.257 0.124-0.267 0.266v1.734h-0.933c-0.143 0.010-0.257 0.124-0.267 0.266v1.468c0 0.133 0.133 0.267 0.267 0.267h1.467c0.133 0.733 0.733 1.2 1.467 1.2s1.333-0.533 1.467-1.2h5.4c0.133 0.733 0.733 1.2 1.467 1.2s1.333-0.533 1.467-1.2h1.467c0.143-0.010 0.257-0.124 0.267-0.266v-1.468c-0.067-0.267-0.2-0.4-0.333-0.4zM5.067 7h4.467l1 2.2h-5.467v-2.2zM3.133 7h1.467v2.2h-1.467v-2.2zM3.867 13.8c-0.533 0-1-0.467-1-1s0.467-1 1-1c0.533 0 1 0.467 1 1-0.067 0.6-0.467 1-1 1zM12.133 13.8c-0.533 0-1-0.467-1-1s0.467-1 1-1c0.533 0 1 0.467 1 1 0 0.6-0.467 1-1 1zM14.867 12.6h-1.267c0-0.133-0.067-0.333-0.133-0.467-0.067-0.067-0.067-0.133-0.133-0.2l-0.133-0.133c-0.067-0.067-0.133-0.067-0.2-0.133-0.067-0.067-0.133-0.067-0.2-0.067h-0.067c-0.067 0-0.133-0.067-0.2-0.067h-0.534c-0.067 0-0.133 0.067-0.2 0.067h-0.067c-0.067 0-0.133 0.067-0.2 0.067-0.067 0.067-0.133 0.067-0.2 0.133l-0.133 0.133c-0.067 0.067-0.067 0.133-0.133 0.2-0.067 0.133-0.133 0.267-0.133 0.467h-5.667c0-0.133-0.067-0.333-0.133-0.467-0.067-0.067-0.067-0.133-0.133-0.2l-0.133-0.133c-0.067-0.067-0.133-0.067-0.2-0.133-0.067-0.067-0.133-0.067-0.2-0.067h-0.067c-0.067 0-0.133-0.067-0.2-0.067h-0.534c-0.067 0-0.133 0.067-0.2 0.067h-0.067c-0.067 0-0.133 0.067-0.2 0.067-0.067 0.067-0.133 0.067-0.2 0.133l-0.133 0.133c-0.2 0-0.267 0.067-0.267 0.133-0.067 0.133-0.133 0.267-0.133 0.467h-1.333v-1h1c0.143-0.010 0.257-0.124 0.267-0.266v-1.734h10.467c0.8 0 1.467 0.667 1.467 1.467v0.2c0 0.133 0.067 0.267 0.2 0.267h0.334v1.133zM12.4 6.733c1.467 0 2.667-1.2 2.667-2.667s-1.2-2.667-2.667-2.667c-1.467 0-2.667 1.2-2.667 2.667s1.2 2.667 2.667 2.667zM12.4 1.867c1.2 0 2.2 1 2.2 2.2s-1 2.2-2.2 2.2-2.2-1-2.2-2.2 1-2.2 2.2-2.2z"></path>
<path d="M11.933 4.267h1.2c0.143-0.010 0.257-0.124 0.267-0.266v-0.934c-0.010-0.143-0.124-0.257-0.266-0.267h-1.734v2.467h0.467c0.067 0 0.067-1 0.067-1zM11.933 3.333h1v0.467h-1v-0.467z"></path>
</symbol>
<symbol id="icon_check" viewBox="0 0 16 16">
<title>check</title>
<path d="M6 10.8l-2.8-2.8-0.933 0.933 3.733 3.733 8-8-0.933-0.933-7.067 7.067z"></path>
</symbol>
<symbol id="icon_checkin" viewBox="0 0 16 16">
<title>checkin</title>
<path d="M13.333 14.867l-1.867-3.933-0.2-0.2-0.933-0.4 1.6-2.667c0.333-0.6 0.467-1.333 0.467-2 0-1.2-0.467-2.267-1.333-3.133-0.836-0.781-1.962-1.262-3.199-1.267h-0.001c-1.196 0.006-2.278 0.489-3.067 1.267v0c-1.333 1.333-1.667 3.4-0.8 5.067l1.6 2.667-0.933 0.4c-0.067 0.067-0.133 0.067-0.2 0.2l-1.867 3.933c0.067 0.2 0.067 0.333 0.133 0.4 0.133 0.133 0.267 0.133 0.4 0.133l2.333-1 2.333 1c0.067 0.067 0.2 0.067 0.267 0l2.333-1 2.333 1c0.133 0.067 0.267 0 0.4-0.067 0.2-0.133 0.2-0.267 0.2-0.4zM4.667 7.333c-0.252-0.48-0.4-1.049-0.4-1.652 0-0.005 0-0.011 0-0.016v0.001c0-2 1.667-3.6 3.667-3.667 1 0 1.933 0.333 2.667 1.067 0.697 0.639 1.133 1.554 1.133 2.57 0 0.010 0 0.021 0 0.031v-0.002c0 0.6-0.133 1.133-0.4 1.667l-3 5c-0.067 0.133-0.2 0.2-0.333 0.2s-0.267-0.067-0.333-0.2l-3-5zM10.667 13.6c-0.035-0.031-0.082-0.050-0.133-0.050s-0.098 0.019-0.134 0.051v0l-2.4 1-2.333-1c-0.035-0.031-0.082-0.050-0.133-0.050s-0.098 0.019-0.134 0.051v0l-1.6 0.733 1.333-3 0.867-0.4 1.067 1.733c0.2 0.333 0.533 0.533 0.933 0.533s0.733-0.2 0.933-0.533l1.067-1.733 0.867 0.4 1.4 2.933-1.6-0.667zM8 3.933c0.867 0 1.6 0.667 1.6 1.533s-0.733 1.533-1.6 1.533-1.6-0.667-1.6-1.533c0-0.867 0.733-1.533 1.6-1.533zM8 6.333c0.467 0 0.867-0.4 0.867-0.867s-0.4-0.867-0.867-0.867-0.867 0.4-0.867 0.867 0.4 0.867 0.867 0.867z"></path>
</symbol>
<symbol id="icon_child" viewBox="0 0 16 16">
<title>child</title>
<path d="M14.533 6.133c-0.867-2.8-3.467-4.8-6.533-4.8s-5.667 2-6.533 4.8c-0.867 0.267-1.467 1.067-1.467 2s0.6 1.733 1.467 2c0.867 2.8 3.467 4.8 6.533 4.8s5.667-2 6.533-4.8c0.867-0.267 1.467-1.067 1.467-2s-0.6-1.733-1.467-2zM1.333 9.4c-0.467-0.267-0.733-0.733-0.733-1.267s0.267-1 0.733-1.267c-0.095 0.38-0.15 0.817-0.15 1.267s0.055 0.886 0.158 1.304l-0.008-0.037zM8 14.333c-3.4 0-6.2-2.8-6.2-6.2 0-2.4 1.333-4.4 3.267-5.467 0.267 0.6 1.2 2.2 3.467 3.067 0.133 0.067 0.333 0 0.4-0.133s0-0.333-0.133-0.4c-2-0.8-2.867-2.267-3.133-2.8 0.667-0.267 1.467-0.467 2.2-0.467 0.2 0.4 0.8 1.4 2 1.933 0.133 0.067 0.333 0 0.4-0.133s0-0.333-0.133-0.4c-0.8-0.4-1.333-1-1.6-1.4 3.2 0.267 5.733 2.933 5.733 6.2-0.067 3.4-2.867 6.2-6.267 6.2zM14.667 9.4c0.063-0.381 0.1-0.819 0.1-1.267s-0.036-0.886-0.106-1.313l0.006 0.047c0.467 0.267 0.733 0.733 0.733 1.267s-0.267 1-0.733 1.267zM5.467 7.8c0.733 0 1.267 0.6 1.267 1.267 0 0.133-0.133 0.333-0.267 0.333s-0.333-0.133-0.333-0.267c0-0.4-0.333-0.667-0.733-0.667-0.333 0-0.667 0.333-0.667 0.667 0 0.133-0.133 0.267-0.267 0.267s-0.267-0.133-0.267-0.267c-0.067-0.8 0.533-1.333 1.267-1.333zM10.533 7.8c0.733 0 1.267 0.6 1.267 1.267 0 0.133-0.133 0.333-0.267 0.333s-0.333-0.133-0.333-0.267c0-0.4-0.333-0.667-0.733-0.667-0.333 0-0.667 0.333-0.667 0.667 0 0.133-0.133 0.267-0.267 0.267s-0.267-0.133-0.267-0.267c0-0.8 0.6-1.333 1.267-1.333zM9.8 11.067c0.133 0.133 0.133 0.333 0 0.4-0.467 0.533-1.067 0.8-1.8 0.8-0.701 0-1.336-0.28-1.8-0.733v0.001c-0.133-0.133-0.133-0.333 0-0.4s0.333-0.133 0.4 0c0.733 0.733 2 0.733 2.733 0 0.2-0.2 0.4-0.2 0.467-0.067zM8.4 9.533c0.133 0 0.267 0.133 0.267 0.267s-0.133 0.267-0.267 0.267h-0.8c-0.133 0-0.267-0.133-0.267-0.267s0.133-0.267 0.267-0.267h0.8z"></path>
</symbol>
<symbol id="icon_close" viewBox="0 0 16 16">
<title>close</title>
<path d="M12.667 4.267l-0.933-0.933-3.733 3.733-3.733-3.733-0.933 0.933 3.733 3.733-3.733 3.733 0.933 0.933 3.733-3.733 3.733 3.733 0.933-0.933-3.733-3.733 3.733-3.733z"></path>
</symbol>
<symbol id="icon_comment" viewBox="0 0 16 16">
<title>comment</title>
<path d="M4.333 11.6h-2.667c-0.003 0-0.007 0-0.011 0-0.252 0-0.456-0.204-0.456-0.456 0-0.004 0-0.008 0-0.012v0.001-8.8c0-0.267 0.2-0.467 0.467-0.467h12.6c0.267 0 0.467 0.2 0.467 0.467v8.733c0 0.267-0.2 0.467-0.467 0.467h-6.733l-2.333 2.467c-0.333 0.333-0.8 0.067-0.8-0.333l-0.067-2.067zM7.333 10.667h6.733v-8.067h-12.133v8.067h2.933c0.133 0 0.2 0.067 0.2 0.2v1.933l2.133-2.067c0-0.067 0.067-0.067 0.133-0.067z"></path>
</symbol>
<symbol id="icon_credit-card" viewBox="0 0 16 16">
<title>credit-card</title>
<path d="M15 2.333c-0.267-0.2-0.533-0.333-0.867-0.333h-12.267c-0.333 0-0.667 0.133-0.867 0.333-0.2 0.267-0.333 0.533-0.333 0.867v9.267c0 0.333 0.133 0.6 0.333 0.867 0.267 0.267 0.533 0.333 0.867 0.333h12.2c0.333 0 0.667-0.133 0.867-0.333 0.267-0.2 0.333-0.533 0.333-0.867v-9.267c0.067-0.333-0.067-0.6-0.267-0.867zM14.333 12.467c0 0.067 0 0.133-0.067 0.2h-12.4c-0.067 0-0.133 0-0.2-0.067s-0.067-0.133-0.067-0.2v-4.6h12.733v4.667zM14.333 4.933h-12.667v-1.733c0-0.067 0-0.133 0.067-0.2s0.133-0.067 0.2-0.067h12.2c0.067 0 0.133 0 0.2 0.067s0.067 0.133 0.067 0.2l-0.067 1.733zM2.667 10.667h2v1h-2v-1zM5.667 10.667h3v1h-3v-1z"></path>
</symbol>
<symbol id="icon_delivery" viewBox="0 0 16 16">
<title>delivery</title>
<path d="M15.933 8.4l-2.333-2.733c-0.067-0.067-0.133-0.133-0.267-0.133h-2.067v-1.867c0-0.2-0.133-0.333-0.333-0.333h-10c-0.2 0-0.333 0.133-0.333 0.333v7h-0.267c-0.2 0-0.333 0.133-0.333 0.333s0.133 0.333 0.333 0.333h0.267v0.4c0 0.2 0.133 0.333 0.333 0.333h0.6c0.133 0.667 0.733 1.133 1.4 1.133s1.267-0.467 1.4-1.133h7.467c0.133 0.667 0.733 1.133 1.4 1.133s1.267-0.467 1.4-1.133h1c0.2 0 0.333-0.133 0.333-0.333v-3.067c0.067-0.133 0.067-0.2 0-0.267zM2.933 12.467c-0.467 0-0.8-0.333-0.8-0.8s0.333-0.8 0.8-0.8 0.8 0.333 0.8 0.8c0.067 0.467-0.333 0.8-0.8 0.8zM10.6 11.333h-6.2c-0.133-0.667-0.733-1.133-1.4-1.133s-1.267 0.467-1.4 1.133h-0.333v-1.4h9.4c-0.067 0-0.067 1.4-0.067 1.4zM10.6 9.333h-9.333v-5.333h9.4c-0.067 0-0.067 5.333-0.067 5.333zM13.6 6.733l1.4 1.6h-1.4v-1.6zM13.267 12.467c-0.467 0-0.8-0.333-0.8-0.8s0.333-0.8 0.8-0.8 0.8 0.333 0.8 0.8-0.333 0.8-0.8 0.8zM15.333 11.333h-0.667c-0.133-0.667-0.733-1.133-1.4-1.133s-1.267 0.467-1.4 1.133h-0.6v-5.133h1.733v2.4c0 0.2 0.133 0.333 0.333 0.333h2v2.4z"></path>
</symbol>
<symbol id="icon_discount" viewBox="0 0 16 16">
<title>discount</title>
<path d="M2.133 3.333h11.667c0.533 0 0.867 0.333 0.867 0.8v2.067c0 0.2-0.2 0.4-0.4 0.4-0.667 0-1.267 0.533-1.267 1.267 0 0.667 0.533 1.267 1.267 1.267 0.2 0 0.4 0.2 0.4 0.4v2.067c0 0.467-0.333 0.8-0.8 0.8h-11.733c-0.467 0-0.8-0.333-0.8-0.8v-7.467c0-0.467 0.333-0.8 0.8-0.8zM2.133 11.667h11.667v-1.733c-1-0.2-1.667-1.067-1.667-2.067s0.667-1.867 1.667-2.067v-1.667h-11.667v7.533zM11.333 5v0.8h-0.8v-0.8h0.8zM11.333 10v0.8h-0.8v-0.8h0.8zM11.333 8.333v0.8h-0.8v-0.8h0.8zM11.333 6.667v0.8h-0.8v-0.8h0.8z"></path>
</symbol>
<symbol id="icon_download" viewBox="0 0 16 16">
<title>download</title>
<path d="M7.2 9.6v-7.8c0-0.267 0.2-0.467 0.467-0.467s0.467 0.2 0.467 0.467v7.8l3.6-3.733c0.133-0.2 0.467-0.2 0.667-0.067s0.2 0.467 0.067 0.667v0.067l-4.467 4.467c-0.2 0.2-0.467 0.2-0.667 0l-4.4-4.533c-0.133-0.2-0.133-0.467 0.067-0.6s0.467-0.133 0.6 0l3.6 3.733zM13.067 9.667c0-0.267 0.2-0.467 0.467-0.467s0.4 0.2 0.467 0.467v4c0 0.267-0.2 0.467-0.467 0.467h-11.733c-0.003 0-0.007 0-0.011 0-0.252 0-0.456-0.204-0.456-0.456 0-0.004 0-0.008 0-0.012v0.001-4c0-0.267 0.2-0.467 0.467-0.467s0.4 0.2 0.467 0.467v3.533h10.867c-0.067 0-0.067-3.533-0.067-3.533z"></path>
</symbol>
<symbol id="icon_email" viewBox="0 0 16 16">
<title>email</title>
<path d="M13.533 2.667h-11.067c-1 0-1.8 0.8-1.8 1.8v7.6c0 1 0.8 1.8 1.8 1.8h11.067c1 0 1.8-0.8 1.8-1.8v-7.6c0-1-0.8-1.8-1.8-1.8zM14.533 12.067c0 0.533-0.467 1-1 1h-11.067c-0.533 0-1-0.467-1-1v-7.6c0-0.533 0.467-1 1-1h11.067c0.533 0 1 0.467 1 1v7.6zM9.933 8.133l3.6-3.2c0.2-0.133 0.2-0.4 0-0.6-0.133-0.2-0.4-0.2-0.6 0l-4.933 4.4-0.933-0.867-0.067-0.067-3.933-3.467c-0.083-0.062-0.187-0.1-0.3-0.1s-0.217 0.037-0.301 0.101l0.001-0.001c-0.133 0.2-0.133 0.4 0 0.6l3.6 3.267-3.6 3.4c-0.133 0.133-0.133 0.4 0 0.6 0.133 0.133 0.4 0.133 0.533 0l3.667-3.4 1 0.867c0.133 0.133 0.4 0.133 0.533 0l1-0.933 3.667 3.467c0.133 0.133 0.4 0.133 0.6 0 0.133-0.133 0.133-0.4 0-0.6l-3.533-3.467z"></path>
</symbol>
<symbol id="icon_facebook" viewBox="0 0 16 16">
<title>facebook</title>
<path d="M9.8 7.667h-1.4v5h-2.067v-5h-1v-1.733h1v-1.133c0-0.8 0.4-2.133 2.133-2.133h1.533v1.733h-1.133c-0.2 0-0.467 0.067-0.467 0.467v1.067h1.6l-0.2 1.733z"></path>
</symbol>
<symbol id="icon_filter" viewBox="0 0 16 16">
<title>filter</title>
<path d="M2.4 3.867h2c0.2 0.667 0.8 1.133 1.467 1.133 0.733 0 1.267-0.467 1.467-1.133h6.267c0.2 0 0.4-0.2 0.4-0.4s-0.2-0.4-0.4-0.4h-6.267c-0.2-0.6-0.8-1.067-1.467-1.067-0.733 0-1.333 0.467-1.467 1.133h-2c-0.2 0-0.4 0.2-0.4 0.4s0.2 0.333 0.4 0.333zM5.867 2.8c0.4 0 0.733 0.333 0.733 0.733s-0.333 0.733-0.733 0.733-0.733-0.333-0.733-0.733c0-0.4 0.333-0.733 0.733-0.733zM13.6 7.333c0.2 0 0.4 0.2 0.4 0.4s-0.2 0.4-0.4 0.4h-2.533c-0.2 0.667-0.8 1.133-1.467 1.133s-1.267-0.467-1.467-1.133h-5.733c-0.2 0-0.4-0.2-0.4-0.4 0-0.267 0.2-0.4 0.4-0.4h5.733c0.2-0.667 0.8-1.133 1.467-1.133 0.733 0 1.267 0.467 1.467 1.133h2.533zM9.6 8.467c0.4 0 0.733-0.4 0.667-0.8 0-0.4-0.333-0.667-0.667-0.667-0.4 0-0.733 0.333-0.733 0.733s0.333 0.733 0.733 0.733zM13.6 11.533c0.2 0 0.4 0.2 0.4 0.4s-0.2 0.4-0.4 0.4h-6.267c-0.2 0.667-0.8 1.133-1.467 1.133s-1.267-0.467-1.467-1.133h-2c-0.2 0-0.4-0.2-0.4-0.4s0.2-0.4 0.4-0.4h2c0.2-0.667 0.8-1.133 1.467-1.133 0.733 0 1.267 0.467 1.467 1.133h6.267zM5.867 12.667c0.4 0 0.733-0.333 0.733-0.733s-0.333-0.733-0.733-0.733-0.733 0.333-0.733 0.733c0 0.4 0.333 0.733 0.733 0.733z"></path>
</symbol>
<symbol id="icon_group" viewBox="0 0 16 16">
<title>group</title>
<path d="M15.333 11.133c0-0.867-0.267-1.667-0.733-2.4-0.333-0.533-0.8-0.933-1.333-1.267 0.667-0.6 1-1.467 1-2.333 0-1.767-1.433-3.2-3.2-3.2v0c-1.067 0-2 0.533-2.6 1.333-0.14-0.032-0.301-0.050-0.466-0.050s-0.326 0.018-0.481 0.053l0.015-0.003c-0.6-0.867-1.6-1.333-2.6-1.333-1.8 0.067-3.2 1.533-3.2 3.267 0 0.933 0.4 1.733 1 2.333-0.533 0.333-1 0.733-1.333 1.267-0.452 0.653-0.725 1.46-0.733 2.331v1.802h3.067v1.333h8.533v-1.333h3.067v-1.8zM11.067 2.8c1.333 0 2.4 1.067 2.4 2.4s-1.067 2.4-2.4 2.4h-0.067c0.067-0.133 0.067-0.267 0.133-0.333v-0.133c0-0.133 0-0.2 0.067-0.333v-0.533c-0.144-1.152-0.859-2.109-1.847-2.591l-0.020-0.009c0.404-0.523 1.028-0.859 1.732-0.867h0.001zM7.133 4.267c0.133-0.067 0.2-0.067 0.267-0.067 0.467-0.133 0.933-0.067 1.4 0.067 0.867 0.333 1.467 1.067 1.533 2v0.734c0 0.067-0.067 0.2-0.067 0.267v0.467s0 0.067-0.067 0.067c0 0 0 0.067-0.067 0.067 0 0 0 0.067-0.067 0.067v0.133c0 0.067-0.067 0.067-0.133 0.133l-0.334 0.334c-0.4 0.267-0.867 0.467-1.4 0.467s-1-0.133-1.4-0.467l-0.467-0.467v-0.134s0-0.067-0.067-0.067c0 0 0-0.067-0.067-0.067 0 0 0-0.067-0.067-0.067v-1.405c-0.4-1 0.2-1.733 1-2.067zM2.533 5.2c0-0.003 0-0.006 0-0.010 0-1.32 1.070-2.39 2.39-2.39 0.004 0 0.007 0 0.011 0h-0.001c0.667 0 1.333 0.267 1.8 0.8-1.043 0.465-1.788 1.431-1.931 2.584l-0.002 0.016v0.534c0 0.133 0 0.2 0.067 0.333v0.133c0.003 0.129 0.053 0.245 0.133 0.333v0c-1.333 0.133-2.467-0.933-2.467-2.333 0 0.067 0 0 0 0zM4.4 10.2c-0.067 0.067-0.067 0.067-0.067 0.133v0.067c-0.067 0.133-0.133 0.267-0.2 0.333v0.067c0 0.067 0 0.067-0.067 0.133l-0.067 0.133c0 0.067 0 0.067-0.067 0.133v0.067c-0.067 0.133-0.067 0.267-0.067 0.4v0.467h-2.4v-1c0-1.333 0.8-2.533 2-3.133 0.6 0.333 1.267 0.4 1.933 0.333 0 0.067 0.067 0.067 0.067 0.133v0.067l0.334 0.334c-0.067 0-0.067 0.067-0.133 0.067-0.067 0.067-0.133 0.067-0.2 0.133-0.067 0-0.067 0.067-0.133 0.067l-0.2 0.2c-0.067 0-0.067 0.067-0.067 0.067l-0.134 0.134-0.267 0.333-0.067 0.067c-0.052 0.104-0.119 0.192-0.199 0.266l-0.001 0.001zM4.533 13.467v-3.002l0.467-0.467c0.333 0.267 0.333 0.2 0.4 0.2l0.067-0.067c0.2-0.2 0.4-0.4 0.6-0.533l0.4-0.2h0.067c0.467 0.267 0.933 0.333 1.467 0.333s1.067-0.133 1.467-0.333h0.067c0.133 0.067 0.2 0.133 0.333 0.2s0.267 0.2 0.333 0.267l0.8 0.8s0 0.067 0.067 0.067v3.067l-6.533-0.333zM12.2 12.133v-0.534c0-0.133-0.067-0.267-0.067-0.4v-0.067c0-0.067 0-0.067-0.067-0.133 0-0.067-0.067-0.067-0.067-0.133 0-0.067 0-0.067-0.067-0.133v-0.067s0-0.067-0.067-0.067v-0.067c-0.067-0.067-0.067-0.133-0.133-0.2v-0.067l-0.067-0.067v-0.067c-0.067-0.067-0.133-0.133-0.133-0.267v-0.067l-0.067-0.067c0-0.067-0.067-0.067-0.067-0.133l-0.467-0.467c-0.067 0-0.067-0.067-0.133-0.067-0.067-0.067-0.133-0.133-0.2-0.133s-0.067-0.067-0.133-0.067l0.2-0.2v-0.067l0.067-0.067c0-0.067 0.067-0.067 0.067-0.133 0.667 0.067 1.333 0 1.933-0.333 1.2 0.6 2 1.8 2 3.133v1l-2.533-0.067z"></path>
</symbol>
<symbol id="icon_home" viewBox="0 0 16 16">
<title>home</title>
<path d="M1.2 9.133h1.2v4.8c0 0.267 0.2 0.533 0.533 0.533h3.467c0.267 0 0.533-0.2 0.533-0.533v-3.467h2.133v3.467c0 0.267 0.2 0.533 0.533 0.533h3.333c0.267 0 0.533-0.2 0.533-0.533v-4.8h1.467c0.2 0 0.4-0.133 0.467-0.333s0.067-0.4-0.133-0.533l-6.667-6.733c-0.2-0.2-0.533-0.2-0.733 0l-7.067 6.733c-0.133 0.133-0.2 0.4-0.133 0.533 0.133 0.2 0.267 0.333 0.533 0.333zM8.133 2.6l5.467 5.533h-0.733c-0.267 0-0.533 0.2-0.533 0.533v4.8h-2.333v-3.467c0-0.267-0.2-0.533-0.533-0.533h-3.067c-0.267 0-0.533 0.2-0.533 0.533v3.467h-2.467v-4.8c0-0.267-0.2-0.533-0.533-0.533h-0.4l5.667-5.533z"></path>
</symbol>
<symbol id="icon_hotarea" viewBox="0 0 16 16">
<title>hotarea</title>
<path d="M12.733 3.267c-1.267-1.267-2.933-1.933-4.733-1.933s-3.467 0.667-4.733 1.933c-1.267 1.267-1.933 2.933-1.933 4.733s0.667 3.467 1.933 4.733c1.267 1.267 2.933 1.933 4.733 1.933s3.467-0.667 4.733-1.933c1.267-1.267 1.933-2.933 1.933-4.733s-0.667-3.467-1.933-4.733zM8 13.8c-3.2 0-5.8-2.6-5.8-5.8s2.6-5.8 5.8-5.8c1.4 0 2.733 0.533 3.733 1.4l-1.6 1.6c-0.6-0.467-1.4-0.733-2.2-0.733-1.933 0-3.533 1.6-3.533 3.533s1.6 3.533 3.533 3.533c1.933 0 3.533-1.6 3.533-3.533 0-0.8-0.267-1.6-0.733-2.2l1.6-1.6c0.867 1.067 1.4 2.4 1.4 3.733 0.001 0.043 0.002 0.095 0.002 0.146 0 3.16-2.561 5.721-5.721 5.721-0.005 0-0.010 0-0.015 0h0.001zM7.667 8.333c0.2 0.2 0.467 0.2 0.6 0l1.867-1.867c0.333 0.467 0.467 1 0.467 1.533 0 1.467-1.2 2.667-2.667 2.667s-2.667-1.2-2.667-2.667 1.2-2.667 2.667-2.667c0.6 0 1.133 0.2 1.533 0.467l-1.867 1.867c-0.067 0.2-0.067 0.467 0.067 0.667z"></path>
</symbol>
<symbol id="icon_instagram" viewBox="0 0 16 16">
<title>instagram</title>
<path d="M10.933 0.667h-5.867c-2.467 0-4.4 1.933-4.4 4.4v5.933c0 2.4 1.933 4.333 4.4 4.333h5.933c2.4 0 4.4-1.933 4.4-4.4v-5.867c-0.067-2.467-2-4.4-4.467-4.4zM13.867 10.933c0 1.6-1.267 2.867-2.867 2.867h-5.933c-1.6 0-2.867-1.267-2.867-2.867v-5.867c0-1.6 1.267-2.867 2.867-2.867h5.933c1.6 0 2.867 1.267 2.867 2.867v5.867zM8 4.2c-2.067 0-3.8 1.667-3.8 3.8 0 2.067 1.667 3.8 3.8 3.8 2.067 0 3.8-1.667 3.8-3.8 0-2.067-1.733-3.8-3.8-3.8zM11.8 5.133c0.533 0 0.933-0.4 0.933-0.933s-0.4-0.867-0.933-0.867v0c-0.533 0-0.933 0.4-0.933 0.933s0.4 0.867 0.933 0.867c0 0 0 0 0 0zM8 10.333c-1.267 0-2.333-1-2.333-2.267s1-2.333 2.267-2.333c0 0 0.067 0 0.067 0 1.267 0 2.333 1.067 2.333 2.333 0 1.2-1.067 2.267-2.333 2.267v0z"></path>
</symbol>
<symbol id="icon_landmark" viewBox="0 0 16 16">
<title>landmark</title>
<path d="M12.4 12.867s-0.933-0.667-1.667-2.267h0.4v-0.8h-0.733c-0.133-0.4-0.267-0.8-0.4-1.267-0.067-0.133-0.067-0.333-0.133-0.467h0.467v-0.8h-0.6c-0.133-0.8-0.267-1.667-0.267-2.533h0.333v-0.733h-0.4v-1.667h-0.733v-1h-0.8v1h-0.733v1.667h-0.4v0.8h0.333c-0.067 0.867-0.133 1.667-0.267 2.533h-0.6v0.8h0.467c0 0.133-0.067 0.333-0.133 0.467-0.133 0.467-0.2 0.867-0.4 1.267h-0.667v0.8h0.4c-0.2 0.467-0.467 0.867-0.733 1.267-0.533 0.667-0.933 1-0.933 1h-0.2v1.733h3.4v-1.4c0-0.467 0.4-0.867 0.867-0.867s0.867 0.4 0.867 0.867v1.4h3.4v-1.733l-0.133-0.067zM7.933 3.067h0.6v0.867h-0.667c0.067-0.333 0.067-0.6 0.067-0.867zM7.933 4.733h0.733c0.067 0.667 0.133 1.533 0.267 2.467h-1.333c0.2-0.867 0.267-1.733 0.333-2.467zM7.333 8.667c0.067-0.2 0.067-0.4 0.133-0.667h1.6c0.067 0.2 0.067 0.4 0.133 0.667 0.067 0.4 0.2 0.8 0.333 1.133h-2.533c0.138-0.324 0.254-0.704 0.328-1.098l0.005-0.035zM6.667 13.867h-1.867v-0.533h1.867v0.533zM8.267 11.667c-0.667 0-1.2 0.4-1.467 0.933h-1.333c0.467-0.6 0.867-1.267 1.2-2h3.133c0.333 0.733 0.733 1.4 1.2 2h-1.333c-0.2-0.6-0.8-0.933-1.4-0.933zM11.733 13.867h-1.867v-0.533h1.867v0.533z"></path>
</symbol>
<symbol id="icon_like" viewBox="0 0 16 16">
<title>like</title>
<path d="M11 2c2.067 0 3.667 1.6 3.667 3.667 0 0.667-0.133 1.267-0.467 1.933-0.4 0.867-1.133 1.667-2.267 2.8-0.4 0.4-2.733 2.667-3.467 3.4l-0.467 0.467-0.4-0.4c-0.733-0.733-3.133-3-3.467-3.4-1.133-1.133-1.8-2-2.267-2.8-0.4-0.733-0.533-1.4-0.533-2 0-2.067 1.6-3.667 3.667-3.667 1.2 0 2.333 0.533 3 1.467 0.707-0.89 1.786-1.458 2.999-1.467h0.001z"></path>
</symbol>
<symbol id="icon_line" viewBox="0 0 16 16">
<title>line</title>
<path d="M8 0c4.4 0 8 3.067 8 6.867 0 1.533-0.6 2.933-1.733 4.267-1.333 1.6-4.733 4.133-6.067 4.667-0.8 0.333-1.4 0.067-1.4-0.667 0-0.067 0-0.2 0-0.267v-0.067l0.133-0.667c0-0.2 0-0.4 0-0.467 0 0.067-0.133 0-0.267-0.067-3.8-0.4-6.667-3.267-6.667-6.733 0-3.8 3.6-6.867 8-6.867zM13.467 10.467c1-1.133 1.467-2.267 1.467-3.533 0-3.2-3.067-5.8-6.933-5.8s-6.933 2.667-6.933 5.8c0 2.867 2.4 5.267 5.8 5.733 0.533 0.133 0.867 0.333 1.067 0.733 0.133 0.267 0.133 0.6 0.067 1l-0.067 0.267v0.133c1.267-0.6 4.333-2.867 5.533-4.333v0zM6.667 5.533c0.067 0 0.133 0.067 0.133 0.133v3.4c0 0.067-0.067 0.133-0.133 0.133h-0.4c-0.067 0-0.133-0.067-0.133-0.133v-3.4c0-0.067 0.067-0.133 0.133-0.133h0.4zM10.333 5.533c0.067 0 0.133 0.067 0.133 0.133v3.4c0 0.067-0.067 0.133-0.133 0.133h-0.533c0 0 0 0-0.067 0v0c0 0 0 0 0 0v0 0c0 0 0 0 0 0v0 0 0c0 0 0 0-0.067-0.067l-1.467-2.133v2.067c0 0.067-0.067 0.133-0.133 0.133h-0.533c-0.067 0-0.133-0.067-0.133-0.133v-3.4c0-0.067 0.067-0.133 0.133-0.133h0.533c0 0 0 0 0 0v0c0 0 0 0 0 0v0c0 0 0 0 0 0v0 0 0 0c0 0 0 0 0 0v0c0 0 0 0 0 0l1.467 2.133v-2c0-0.067 0.067-0.133 0.133-0.133h0.667zM5.333 8.4c0.067 0 0.133 0.067 0.133 0.133v0.533c0 0.067-0.067 0.133-0.133 0.133h-2.133c-0.067 0-0.067 0-0.133-0.067 0 0 0 0 0 0v0c0 0-0.067-0.067-0.067-0.133v-3.333c0-0.067 0.067-0.133 0.133-0.133h0.533c0.067 0 0.133 0.067 0.133 0.133v2.733c0.067 0 1.533 0 1.533 0zM13.467 6.4h-1.467v0.6h1.467c0.067 0 0.133 0.067 0.133 0.133v0.533c0 0.067-0.067 0.133-0.133 0.133h-1.467v0.6h1.467c0.067 0 0.133 0.067 0.133 0.133v0.533c0 0.067-0.067 0.133-0.133 0.133h-2.2c-0.067 0-0.067 0-0.133-0.067 0 0-0.067-0.067-0.067-0.133v-3.333c0-0.067 0-0.067 0.067-0.133 0 0 0 0 0 0s0 0 0 0 0.067-0.067 0.133-0.067h2.2c0.067 0 0.133 0.067 0.133 0.133v0.533c0 0.2-0.067 0.267-0.133 0.267v0z"></path>
</symbol>
<symbol id="icon_location" viewBox="0 0 16 16">
<title>location</title>
<path stroke-width="0.667" stroke-miterlimit="10" stroke-linecap="butt" stroke-linejoin="miter" d="M7.933 1c-2.733 0-4.933 2.267-4.933 5.067 0 3.467 4.4 8.533 4.6 8.8 0.133 0.2 0.4 0.2 0.6 0.067l0.067-0.067c0.2-0.2 4.6-5.333 4.6-8.8 0-2.8-2.2-5.067-4.933-5.067zM7.933 8.6c-1.4 0-2.467-1.133-2.467-2.533s1.133-2.533 2.467-2.533c1.4 0 2.467 1.133 2.467 2.533s-1.133 2.533-2.467 2.533z"></path>
</symbol>
<symbol id="icon_mobile" viewBox="0 0 16 16">
<title>mobile</title>
<path d="M10.8 16s1.667 0 1.667-1.667v-12.667c0-1.667-1.667-1.667-1.667-1.667h-5.8s-1.667 0-1.667 1.667v12.667c0 1.667 1.667 1.667 1.667 1.667h5.8zM7.867 15.333c-0.44-0.006-0.794-0.36-0.8-0.799v-0.001c0-0.467 0.4-0.8 0.8-0.8 0.467 0 0.8 0.4 0.8 0.8 0.067 0.4-0.333 0.8-0.8 0.8zM6.667 1c0-0.133 0.067-0.2 0.133-0.2h2.267c0.067 0 0.133 0.067 0.133 0.2v0.067c0 0.133-0.067 0.2-0.133 0.2h-2.267c-0.067 0-0.133-0.133-0.133-0.267zM4.133 2.067h7.467v11h-7.467v-11z"></path>
</symbol>
<symbol id="icon_money" viewBox="0 0 16 16">
<title>money</title>
<path d="M8 1.333c-3.667 0-6.667 3-6.667 6.667s3 6.667 6.667 6.667 6.667-3 6.667-6.667-3-6.667-6.667-6.667zM8 13.8c-3.2 0-5.8-2.6-5.8-5.8s2.6-5.8 5.8-5.8 5.8 2.6 5.8 5.8-2.6 5.8-5.8 5.8zM8 7.6v-2.533c0.267 0.067 0.467 0.267 0.6 0.467s0.4 0.267 0.6 0.133c0.2-0.133 0.267-0.4 0.133-0.6-0.267-0.467-0.8-0.8-1.333-0.933v-0.667c0-0.267-0.2-0.467-0.4-0.467-0.267 0-0.4 0.2-0.4 0.467v0.733c-1 0.133-1.733 1-1.733 2.067s0.733 1.933 1.667 2.133v2.533c-0.267-0.067-0.467-0.267-0.6-0.467s-0.4-0.267-0.6-0.133c-0.2 0.133-0.267 0.4-0.133 0.6 0.267 0.467 0.8 0.8 1.333 0.933v0.733c0 0.267 0.2 0.467 0.4 0.467s0.4-0.2 0.4-0.467v-0.733c0.933-0.2 1.667-1.067 1.667-2.133s-0.667-1.933-1.6-2.133zM6.333 6.267c0-0.533 0.333-1 0.8-1.2v2.4c-0.467-0.2-0.8-0.667-0.8-1.2zM8 10.933v-2.4c0.467 0.2 0.8 0.667 0.8 1.2s-0.333 1-0.8 1.2z"></path>
</symbol>
<symbol id="icon_more" viewBox="0 0 16 16">
<title>more</title>
<path d="M10.667 8c0 0.733 0.6 1.333 1.333 1.333s1.333-0.6 1.333-1.333-0.6-1.333-1.333-1.333-1.333 0.6-1.333 1.333zM9.333 8c0-0.733-0.6-1.333-1.333-1.333s-1.333 0.6-1.333 1.333 0.6 1.333 1.333 1.333 1.333-0.6 1.333-1.333zM5.333 8c0-0.733-0.6-1.333-1.333-1.333s-1.333 0.6-1.333 1.333 0.6 1.333 1.333 1.333 1.333-0.6 1.333-1.333z"></path>
</symbol>
<symbol id="icon_motor-parking" viewBox="0 0 16 16">
<title>motor-parking</title>
<path d="M14.133 0.933h-2.867c-0.143 0.010-0.257 0.124-0.267 0.266v0.401l-1.067 0.8c-0.2-1-1.067-1.733-2.067-1.733s-1.867 0.733-2.067 1.667l-1.067-0.733v-0.4c-0.010-0.143-0.124-0.257-0.266-0.267h-2.868c-0.143 0.010-0.257 0.124-0.267 0.266v1.068c0 0.133 0.133 0.267 0.267 0.267h2.867c0.143-0.010 0.257-0.124 0.267-0.266v-0.001l0.867 0.6c-0.4 0.333-0.667 0.8-0.667 1.333l-0.333 6.133c0 0.467 0.133 0.933 0.467 1.267 0.267 0.267 0.667 0.467 1.067 0.467h0.267v1.733c0 0.867 0.733 1.6 1.6 1.6s1.6-0.733 1.6-1.6v-1.733h0.267c0.4 0 0.8-0.133 1.067-0.467 0.333-0.333 0.467-0.8 0.467-1.267l-0.333-6.133c0-0.533-0.267-1-0.667-1.333l0.867-0.6c0 0.133 0.133 0.267 0.267 0.267h2.867c0.143-0.010 0.257-0.124 0.267-0.266v-1.068c-0.267-0.133-0.333-0.267-0.533-0.267zM4.2 2h-2.333v-0.533h2.333v0.533zM8.4 1.267c0.6 0.2 1.067 0.8 1.067 1.467 0 0.867-0.733 1.6-1.6 1.6-0.6 0-1.133-0.333-1.4-0.867l1.933-2.2zM7.8 1.2l-1.467 1.667v-0.133c0-0.8 0.6-1.467 1.467-1.533zM8.933 13.733c0 0.6-0.533 1-1.067 1s-1-0.467-1-1v-3.933c0-0.6 0.467-1.067 1.067-1.067s1.067 0.467 1.067 1.067c-0.067 0.067-0.067 3.933-0.067 3.933zM10.333 4.2l0.333 6.133c0 0.333-0.067 0.667-0.267 0.867s-0.4 0.267-0.667 0.267h-0.267v-1.667c0-0.867-0.733-1.6-1.6-1.6s-1.6 0.733-1.6 1.6v1.667h-0.2c-0.267 0-0.467-0.133-0.667-0.267-0.175-0.178-0.283-0.422-0.283-0.692 0-0.062 0.006-0.123 0.017-0.181l-0.001 0.006 0.333-6.133c0-0.333 0.2-0.667 0.4-0.933 0.267 0.933 1.067 1.533 2 1.533s1.8-0.667 2-1.533c0.267 0.267 0.467 0.6 0.467 0.933zM13.933 2h-2.333v-0.533h2.333v0.533z"></path>
</symbol>
<symbol id="icon_nocharge" viewBox="0 0 16 16">
<title>nocharge</title>
<path d="M8 1.333c-3.667 0-6.667 3-6.667 6.667s3 6.667 6.667 6.667 6.667-3 6.667-6.667-3-6.667-6.667-6.667zM2.867 6.2l3.4 1.533 1.067 0.467 0.8 0.333 0.667 0.267c0.133 0.133 0.2 0.267 0.2 0.4 0 0.267-0.067 0.4-0.267 0.533-0.133 0.133-0.333 0.133-0.6 0.133-0.003 0-0.006 0-0.010 0-0.569 0-1.083-0.229-1.458-0.6v0l-0.933 0.933c0.6 0.533 1.267 0.8 2 0.8v1h0.8v-1c0.467-0.067 0.867-0.2 1.2-0.467s0.533-0.6 0.667-1l2.467 1.133c-1 2.867-4.067 4.333-6.933 3.333s-4.333-4.067-3.333-6.933c0-0.333 0.133-0.6 0.267-0.867zM9.867 7.933l-1.067-0.467-0.6-0.267-0.867-0.4v-0.2c0-0.2 0.067-0.333 0.267-0.4 0.133-0.067 0.333-0.133 0.533-0.133 0.4 0 0.8 0.133 1.133 0.4l0.867-0.867c-0.467-0.4-1.067-0.6-1.667-0.6v-1.067h-0.8v1c-0.4 0-0.8 0.133-1.067 0.333-0.333 0.267-0.533 0.533-0.6 0.933l-2.533-1.2c1.667-2.533 5-3.2 7.533-1.6 2 1.267 2.867 3.667 2.267 6l-3.4-1.467z"></path>
</symbol>
<symbol id="icon_nonhalal" viewBox="0 0 26 16">
<title>nonhalal</title>
<path fill="#fa8700" style="fill: var(--color1, #fa8700)" d="M9.223 13.768c0.806 0.401 1.755 0.636 2.759 0.636 0.008 0 0.016 0 0.025 0h-0.001c3.534-0.001 6.399-2.866 6.399-6.4 0-1.888-0.818-3.585-2.118-4.757l-0.012-0.010-7.053 10.531zM7.879 12.898l7.081-10.574c-0.853-0.459-1.867-0.728-2.943-0.728-0.008 0-0.015 0-0.023 0h0.001c-3.535 0-6.4 2.865-6.4 6.4 0 1.959 0.88 3.712 2.266 4.886l0.009 0.008 0.010 0.008zM12 16c-4.418 0-8-3.582-8-8s3.582-8 8-8v0c4.418 0 8 3.582 8 8s-3.582 8-8 8v0z"></path>
<path fill="#008735" style="fill: var(--color2, #008735)" d="M7.8 12.817l-1.336 0.236-0.587-3.332-3.448 0.608 0.588 3.332-1.34 0.236-1.322-7.498 1.34-0.236 0.55 3.12 3.448-0.608-0.55-3.12 1.335-0.235 1.322 7.497zM12.682 11.956c-0.047-0.061-0.089-0.129-0.122-0.203l-0.006-0.014c-0.031-0.063-0.066-0.146-0.097-0.231l-0.007-0.021-0.008-0.025c-0.076 0.109-0.155 0.205-0.242 0.294l0.002-0.002c-0.092 0.095-0.194 0.18-0.303 0.254l-0.007 0.004c-0.24 0.165-0.525 0.283-0.832 0.336l-0.013 0.002c-0.133 0.027-0.287 0.042-0.443 0.042-0.135 0-0.267-0.011-0.396-0.033l0.028 0.004c-0.258-0.039-0.49-0.126-0.695-0.251l0.008 0.005 0.009 0.005c-0.196-0.119-0.36-0.27-0.49-0.448l-0.006-0.010c-0.127-0.176-0.218-0.387-0.259-0.615l-0.002-0.018c-0.021-0.102-0.033-0.22-0.033-0.341 0-0.177 0.026-0.348 0.074-0.509l-0.003 0.013-0.003 0.012c0.076-0.25 0.212-0.472 0.407-0.666s0.447-0.36 0.756-0.497c0.305-0.137 0.659-0.245 1.029-0.308l0.054-0.008 0.81-0.143-0.064-0.366c-0.051-0.288-0.176-0.504-0.372-0.648s-0.464-0.186-0.803-0.127c-0.151 0.025-0.286 0.071-0.409 0.137l0.007-0.004c-0.111 0.057-0.206 0.129-0.287 0.215v0l-0.001 0.001c-0.069 0.075-0.123 0.165-0.156 0.264l-0.002 0.005-0.001 0.005c-0.019 0.057-0.030 0.124-0.030 0.192 0 0.044 0.005 0.086 0.013 0.128l-0.002-0.008-1.287 0.226c-0.013-0.069-0.020-0.148-0.020-0.229 0-0.16 0.028-0.313 0.080-0.455l-0.006 0.018c0.075-0.224 0.202-0.434 0.378-0.63s0.402-0.367 0.676-0.514 0.592-0.253 0.952-0.317c0.322-0.056 0.625-0.068 0.911-0.036s0.542 0.112 0.768 0.237 0.414 0.296 0.566 0.516c0.151 0.219 0.255 0.488 0.312 0.808l0.435 2.472c0.088 0.501 0.231 0.888 0.429 1.161l0.016 0.088-1.314 0.231zM11.11 11.304c0.399-0.070 0.738-0.29 0.961-0.598l0.003-0.004c0.064-0.094 0.111-0.187 0.142-0.278l-0.186-1.050-0.694 0.122c-0.477 0.084-0.821 0.228-1.032 0.432-0.158 0.145-0.257 0.353-0.257 0.583 0 0.060 0.007 0.119 0.019 0.175l-0.002-0.010c0.020 0.114 0.058 0.214 0.114 0.304s0.129 0.162 0.219 0.219c0.090 0.056 0.194 0.094 0.312 0.114s0.252 0.017 0.4-0.010zM16.496 11.284l-1.287 0.226-1.394-7.91 1.287-0.226 1.394 7.91zM21.321 10.433c-0.047-0.061-0.089-0.129-0.122-0.203l-0.006-0.014c-0.031-0.063-0.066-0.146-0.097-0.231l-0.007-0.021-0.008-0.025c-0.076 0.109-0.155 0.205-0.242 0.294l0.002-0.002c-0.092 0.095-0.194 0.18-0.303 0.254l-0.007 0.004c-0.24 0.165-0.525 0.283-0.832 0.336l-0.013 0.002c-0.133 0.027-0.287 0.042-0.443 0.042-0.135 0-0.267-0.011-0.395-0.033l0.028 0.004c-0.258-0.039-0.49-0.126-0.695-0.251l0.008 0.005 0.009 0.005c-0.196-0.119-0.36-0.27-0.49-0.448l-0.006-0.010c-0.127-0.176-0.218-0.387-0.259-0.615l-0.002-0.018c-0.021-0.102-0.033-0.22-0.033-0.34 0-0.177 0.026-0.347 0.074-0.508l-0.006 0.024c0.076-0.25 0.211-0.472 0.406-0.666s0.448-0.36 0.756-0.497c0.305-0.137 0.659-0.245 1.029-0.308l0.054-0.008 0.81-0.143-0.064-0.366c-0.051-0.288-0.175-0.504-0.372-0.648s-0.464-0.186-0.803-0.127c-0.151 0.025-0.286 0.071-0.409 0.137l0.007-0.004c-0.111 0.057-0.206 0.129-0.287 0.215v0l-0.001 0.001c-0.069 0.075-0.123 0.165-0.156 0.264l-0.002 0.005-0.001 0.005c-0.019 0.057-0.030 0.122-0.030 0.19 0 0.044 0.005 0.088 0.013 0.13l-0.002-0.008-1.287 0.226c-0.013-0.069-0.020-0.148-0.020-0.229 0-0.16 0.028-0.313 0.080-0.455l-0.006 0.018c0.076-0.224 0.202-0.434 0.378-0.63s0.402-0.367 0.676-0.514 0.592-0.253 0.952-0.317c0.322-0.056 0.625-0.068 0.911-0.036s0.542 0.112 0.768 0.237 0.414 0.296 0.566 0.516c0.151 0.219 0.255 0.488 0.312 0.808l0.435 2.472c0.088 0.501 0.232 0.888 0.429 1.161l0.016 0.088-1.314 0.231zM19.748 9.781c0.399-0.070 0.738-0.29 0.961-0.598l0.003-0.004c0.064-0.094 0.111-0.187 0.142-0.278l-0.186-1.050-0.694 0.122c-0.477 0.084-0.821 0.228-1.032 0.432-0.158 0.145-0.257 0.353-0.257 0.583 0 0.060 0.007 0.119 0.019 0.175l-0.002-0.010c0.020 0.114 0.058 0.214 0.114 0.304s0.129 0.162 0.219 0.219c0.090 0.056 0.194 0.094 0.312 0.114s0.252 0.017 0.4-0.010zM25.134 9.761l-1.287 0.226-1.394-7.91 1.287-0.226 1.394 7.91z"></path>
</symbol>
<symbol id="icon_pencial" viewBox="0 0 16 16">
<title>pencial</title>
<path d="M14.8 2.533l-1.267-1.267c-0.4-0.4-0.867-0.6-1.333-0.6s-0.933 0.2-1.267 0.533l-7.867 7.867c-0.333 0.333-1.467 1.733-1.467 2.2l-0.933 4.067 4.067-0.933s1.867-1.067 2.2-1.467l7.867-7.867c0.733-0.667 0.733-1.867 0-2.533zM4.4 13.533l-2.467 0.533 0.6-2.6v-0.133l2.067 2.067-0.2 0.133zM6.267 12.333c-0.133 0.067-0.467 0.333-0.933 0.6l-2.4-2.4c0.267-0.333 0.533-0.667 0.667-0.867l5.933-5.933 2.6 2.6-5.867 6zM14.133 4.467l-1.267 1.267-2.6-2.6 1.267-1.267c0.2-0.2 0.4-0.267 0.667-0.267s0.467 0.067 0.667 0.267l1.267 1.267c0.2 0.2 0.267 0.4 0.267 0.667s-0.067 0.467-0.267 0.667z"></path>
</symbol>
<symbol id="icon_pet" viewBox="0 0 16 16">
<title>pet</title>
<path d="M10.333 12.533c0.333 0.133 0.733 0 0.867-0.333 0.067-0.2 0.067-0.467-0.067-0.667l-1.6-2.467c-0.6-0.933-1.8-1.2-2.733-0.6-0.263 0.13-0.47 0.337-0.597 0.592l-0.003 0.008-1.533 2.467c-0.2 0.333-0.133 0.733 0.2 0.933 0.2 0.133 0.4 0.133 0.6 0.067 1.6-0.667 3.333-0.667 4.867 0zM10.533 8.467l1.6 2.467c0.533 0.867 0.267 2-0.533 2.533-0.533 0.333-1.133 0.4-1.733 0.133-1.267-0.533-2.667-0.533-3.867 0-0.933 0.4-2 0-2.4-0.933-0.267-0.533-0.2-1.2 0.133-1.733l1.6-2.467c0.933-1.467 2.867-1.867 4.333-0.933 0.333 0.267 0.667 0.533 0.867 0.933zM3.6 7.2c0.067-0.067 0.2-0.267 0.067-0.6-0.067-0.333-0.333-0.4-0.4-0.4-0.067 0.067-0.2 0.267-0.067 0.6 0.133 0.267 0.333 0.4 0.4 0.4zM4.067 8.2c-0.733 0.267-1.6-0.2-1.933-1.067s0-1.8 0.733-2.067c0.733-0.2 1.533 0.267 1.867 1.133s0 1.733-0.667 2zM6.867 5.533c0.267 0 0.6-0.333 0.6-0.867s-0.333-0.867-0.6-0.867c-0.267 0-0.533 0.333-0.533 0.867s0.267 0.867 0.533 0.867zM6.867 6.667c-0.933 0-1.733-0.933-1.733-2 0-1.133 0.8-2 1.733-2s1.733 0.933 1.733 2c0 1.133-0.733 2-1.733 2zM10.467 6.2c0.267 0.067 0.667-0.133 0.8-0.667 0.133-0.467 0-0.933-0.267-1s-0.667 0.133-0.8 0.667c-0.2 0.467 0 0.933 0.267 1zM10.067 7.267c-0.867-0.267-1.333-1.4-1-2.467s1.333-1.667 2.267-1.4c0.867 0.267 1.333 1.4 1 2.467-0.333 1.133-1.333 1.733-2.267 1.4zM12.933 8.133c-0.2 0.267-0.2 0.533-0.067 0.6 0.067 0.067 0.333 0 0.533-0.267s0.2-0.533 0.067-0.6c-0.067 0-0.333 0-0.533 0.267zM14.133 7c0.6 0.467 0.667 1.4 0.133 2.133s-1.467 0.933-2.133 0.467c-0.6-0.467-0.667-1.4-0.133-2.133 0.6-0.733 1.533-0.933 2.133-0.467z"></path>
</symbol>
<symbol id="icon_photo" viewBox="0 0 16 16">
<title>photo</title>
<path d="M14.667 2h-13.333c-0.4 0-0.667 0.267-0.667 0.667v10.8c0 0.333 0.267 0.667 0.667 0.667h13.333c0.368-0.001 0.666-0.299 0.667-0.667v-10.8c0-0.4-0.267-0.667-0.667-0.667zM14.667 13.467h-13.333v-10.8h13.333v10.8zM13.467 3.533h-10.933c-0.2 0-0.333 0.133-0.333 0.333v7.133c0 0.2 0.133 0.333 0.333 0.333h10.933c0.2 0 0.333-0.133 0.333-0.333v-7.133c0-0.2-0.133-0.333-0.333-0.333zM2.867 4.2h10.267v5.467l-2.067-2.067c-0.059-0.062-0.142-0.1-0.233-0.1s-0.175 0.038-0.233 0.1v0l-1.267 1.267-2.8-2.867c-0.059-0.062-0.142-0.1-0.234-0.1s-0.175 0.038-0.233 0.1v0l-3.267 3.267v-5.067zM2.867 10.667v-0.533l3.467-3.467 4 4h-7.467zM13.133 10.667h-1.933l-1.333-1.333 1-1 2.267 2.267v0.067zM9.4 4.8c-0.667 0-1.2 0.533-1.2 1.2s0.533 1.2 1.2 1.2c0.667 0 1.2-0.533 1.2-1.2s-0.533-1.2-1.2-1.2zM9.4 6.6c-0.333 0-0.533-0.267-0.533-0.6 0-0.267 0.267-0.533 0.533-0.533 0.333 0 0.533 0.267 0.533 0.6 0 0.267-0.267 0.533-0.533 0.533z"></path>
</symbol>
<symbol id="icon_point" viewBox="0 0 16 16">
<title>point</title>
<path d="M13.867 7.667c0-1.067-1.467-1.867-3.267-1.867-0.533 0-1 0.067-1.4 0.2v-3.467c0-1.067-1.467-1.867-3.267-1.867s-3.267 0.8-3.267 1.867v7.8c0 1.067 1.467 1.867 3.267 1.867 0.467 0 0.933-0.067 1.4-0.133v1.4c0 1.067 1.467 1.867 3.267 1.867s3.267-0.8 3.267-1.867v-5.8zM3.533 3.8c0 0 0.067 0.067 0.067 0.067 0.067 0.067 0.133 0.067 0.267 0.133l0.267 0.133c0.067 0 0.067 0 0.067 0.067 0.067 0 0.133 0.067 0.2 0.067s0.067 0 0.133 0.067c0.067 0 0.133 0.067 0.2 0.067s0.067 0 0.133 0 0.133 0 0.2 0.067c0.067 0 0.067 0 0.133 0s0.133 0 0.267 0c0.067 0 0.067 0 0.133 0 0.133 0 0.267 0 0.4 0s0.267 0 0.333 0c0.067 0 0.067 0 0.133 0s0.133 0 0.267 0c0.067 0 0.067 0 0.133 0s0.133 0 0.2-0.067c0.067 0 0.067 0 0.133 0s0.133-0.067 0.2-0.067c0.067 0 0.067 0 0.133-0.067 0.067 0 0.133-0.067 0.2-0.067s0.067 0 0.067-0.067l0.2-0.133c0.067-0.067 0.133-0.067 0.267-0.133 0 0 0.067-0.067 0.067-0.067 0.067-0.067 0.133-0.067 0.133-0.133 0 0 0 0 0.067 0v0.733c0 0.533-1.067 1.2-2.6 1.2s-2.6-0.667-2.6-1.2v-0.733c0 0 0 0 0.067 0 0 0.067 0.067 0.133 0.133 0.133zM9.133 9.267c0.067 0 0.067 0 0.133 0.067 0.067 0 0.133 0.067 0.2 0.067s0.067 0 0.133 0 0.133 0 0.2 0.067c0.067 0 0.067 0 0.133 0s0.133 0 0.267 0c0.067 0 0.067 0 0.133 0 0.133 0 0.267 0 0.333 0 0.133 0 0.267 0 0.333 0s0.067 0 0.133 0 0.133 0 0.267 0c0.067 0 0.067 0 0.133 0s0.133 0 0.2-0.067c0.067 0 0.067 0 0.133 0s0.133-0.067 0.2-0.067c0.067 0 0.067 0 0.133-0.067 0.067 0 0.133-0.067 0.2-0.067s0.067 0 0.067-0.067l0.267-0.133c0.067-0.067 0.133-0.067 0.267-0.133 0 0 0.067-0.067 0.067-0.067 0.067-0.067 0.133-0.067 0.133-0.133 0 0 0 0 0.067 0v0.733c0 0.6-1.067 1.2-2.6 1.2-0.667 0-1.267-0.133-1.667-0.267 0 0 0 0 0 0-0.467-0.2-0.8-0.467-0.867-0.8v0-0.8c0.067 0 0.067 0.067 0.067 0.067v0c0 0 0 0 0.067 0s0.067 0.067 0.067 0.067c0.067 0 0.067 0.067 0.067 0.067v0c0 0 0 0 0.067 0 0.067 0.067 0.133 0.067 0.267 0.133 0 0 0.067 0 0.067 0 0.067 0 0.067 0.067 0.133 0.067s0.067 0 0.067 0.067c-0.067 0.067 0 0.067 0.133 0.067zM7.333 9.333c-0.467 0.133-0.933 0.2-1.4 0.2-1.533 0-2.6-0.6-2.6-1.2v-0.733c0.6 0.467 1.533 0.733 2.6 0.733 0.467 0 0.933-0.067 1.4-0.133v1.133zM13.2 11.467c0 0.6-1.067 1.2-2.6 1.2-1.467 0-2.533-0.6-2.6-1.133v-0.8c0.133 0.133 0.333 0.2 0.467 0.267 0.067 0 0.067 0.067 0.067 0.067s0.067 0 0.067 0c0.6 0.267 1.267 0.4 1.933 0.333 1.067 0 2-0.267 2.6-0.733 0.067 0.133 0.067 0.8 0.067 0.8zM7.6 6.933c-0.067 0.067-0.067 0.067-0.067 0.133 0 0 0 0.067-0.067 0.067 0 0.067-0.067 0.067-0.067 0.067 0 0.067 0 0.067-0.067 0.067 0 0 0 0 0 0.067-0.4 0.133-0.933 0.2-1.4 0.2-1.533 0-2.6-0.6-2.6-1.133v-0.733c0.6 0.467 1.533 0.733 2.6 0.733s2-0.267 2.6-0.733v0.533c-0.4 0.133-0.733 0.4-0.933 0.733 0 0 0 0 0 0v0zM13.2 7.667c0 0.6-1.067 1.2-2.6 1.2-0.733 0-1.333-0.133-1.733-0.333-0.067 0-0.133-0.067-0.133-0.067s0 0 0 0v0l-0.067-0.067c-0.067-0.067-0.067-0.067-0.067-0.067s0 0 0 0v0c-0.067 0-0.067-0.067-0.133-0.067v0l-0.067-0.067c0 0-0.067-0.067-0.067-0.067l-0.067-0.067c0 0-0.067-0.067-0.067-0.067s0-0.067-0.067-0.067c0 0 0-0.067-0.067-0.067-0.067-0.067-0.067-0.133-0.067-0.2v-0.067c0-0.067 0-0.067 0-0.133 0.067-0.267 0.467-0.6 1-0.8v0c0.467-0.067 1-0.133 1.667-0.133 1.467-0.067 2.533 0.533 2.533 1.133zM5.933 1.333c1.533 0 2.6 0.6 2.6 1.2s-1.067 1.2-2.6 1.2c-1.533 0-2.6-0.667-2.6-1.2s1.067-1.2 2.6-1.2zM3.333 10.333v-0.733c0.6 0.467 1.533 0.733 2.6 0.733 0.467 0 0.933-0.067 1.4-0.133v1.133c-0.467 0.133-0.933 0.2-1.4 0.2-1.533 0-2.6-0.6-2.6-1.2v0zM13.2 13.467c0 0.6-1.067 1.2-2.6 1.2s-2.6-0.6-2.6-1.2v-0.733c0.6 0.467 1.533 0.733 2.6 0.733s2-0.267 2.6-0.733c0 0 0 0.733 0 0.733z"></path>
</symbol>
<symbol id="icon_reserve" viewBox="0 0 16 16">
<title>reserve</title>
<path d="M14.667 10.867l-1-6.333c-0.067-0.267-0.267-0.4-0.533-0.4h-10.267c-0.249 0.008-0.457 0.171-0.532 0.396l-0.001 0.004-1 6.333c-0.067 0.267 0.133 0.533 0.4 0.6h12.4c0.267 0 0.533-0.2 0.533-0.533v-0.067zM2.467 10.4l0.4-2.6 0.4 2.6h-0.8zM4.333 10.4l-0.867-5.267h9.2l0.867 5.267h-9.2zM11.6 7.267h-6.2c-0.267 0-0.533 0.267-0.467 0.533 0 0.267 0.2 0.467 0.467 0.467h6.133c0.267 0 0.533-0.267 0.467-0.533 0.067-0.267-0.133-0.467-0.4-0.467z"></path>
</symbol>
<symbol id="icon_review" viewBox="0 0 16 16">
<title>review</title>
<path d="M14.467 2.6c0.333 0.267 0.333 0.533 0 0.867l-1.133 1.133-1.933-1.933 1.067-1.133c0.333-0.333 0.6-0.333 0.867 0 0.067 0 1.133 1.067 1.133 1.067zM11.067 3l1.933 1.933-6.133 6-2.2 0.4 0.467-2.2 5.933-6.133zM12.4 8l1.133-1.133v6.933c0 0.2-0.067 0.4-0.2 0.6-0.133 0.133-0.333 0.2-0.6 0.2h-10.6c-0.2 0-0.4-0.067-0.6-0.2-0.124-0.134-0.2-0.315-0.2-0.513 0-0.007 0-0.014 0-0.021v0.001-10.6c0-0.2 0.067-0.4 0.2-0.6 0.133-0.133 0.333-0.2 0.6-0.2h6.933l-1.067 1.133h-5.2c-0.267 0-0.4 0.133-0.4 0.333v9.267c0 0.2 0.133 0.333 0.333 0.333h9.333c0.2 0 0.333-0.133 0.333-0.333v-5.2z"></path>
</symbol>
<symbol id="icon_save" viewBox="0 0 16 16">
<title>save</title>
<path d="M12.4 1.333h-8.467c-0.333 0-0.6 0.267-0.6 0.6v12.133c0 0.267 0.133 0.467 0.333 0.533 0.2 0.133 0.467 0.067 0.667-0.067l3.8-2.933 3.8 2.933c0.2 0.133 0.467 0.2 0.667 0.067 0.2-0.067 0.333-0.333 0.333-0.533v-12.133c0.067-0.333-0.2-0.6-0.533-0.6z"></path>
</symbol>
<symbol id="icon_search" viewBox="0 0 16 16">
<title>search</title>
<path d="M6.6 11.867c-2.867 0-5.267-2.333-5.267-5.267 0-2.867 2.4-5.267 5.267-5.267 0.009 0 0.020 0 0.031 0 2.892 0 5.236 2.344 5.236 5.236 0 0.011 0 0.022 0 0.033v-0.002c0 1.133-0.333 2.2-1 3.067l3.533 3.533c0.149 0.145 0.242 0.347 0.242 0.571 0 0.255-0.12 0.482-0.307 0.628l-0.002 0.001c-0.153 0.154-0.366 0.25-0.6 0.25s-0.447-0.095-0.6-0.25l-3.533-3.533c-0.8 0.667-1.867 1-3 1zM6.6 3.067c-1.933 0-3.533 1.6-3.533 3.533 0 2 1.6 3.533 3.533 3.533s3.533-1.6 3.533-3.533c0.067-1.933-1.533-3.533-3.533-3.533z"></path>
</symbol>
<symbol id="icon_seat" viewBox="0 0 16 16">
<title>seat</title>
<path d="M15.133 8.533c-0.067 0.267-0.267 0.4-0.533 0.4h-0.2l1.133 2.733c0.133 0.267 0 0.6-0.267 0.733s-0.6 0-0.733-0.267l-1.067-2.533h-1.667l-1.067 2.533c-0.133 0.267-0.4 0.4-0.733 0.267-0.267-0.133-0.4-0.4-0.267-0.733l1.133-2.733h-0.2c-0.267 0-0.533-0.267-0.533-0.533s0.267-0.533 0.533-0.533h3.4l0.733-3.467c0.067-0.267 0.333-0.467 0.6-0.4s0.467 0.333 0.4 0.6v0.067l-0.667 3.867zM5.067 8.933l1.133 2.733c0.133 0.267 0 0.6-0.267 0.733s-0.6 0-0.733-0.267l-1.067-2.533h-1.667l-1.067 2.533c-0.133 0.267-0.4 0.4-0.733 0.267s-0.333-0.4-0.2-0.667l1.133-2.733h-0.2c-0.249-0.008-0.457-0.171-0.532-0.396l-0.001-0.004-0.867-3.933c-0.067-0.267 0.133-0.6 0.4-0.667s0.6 0.133 0.667 0.4l0.733 3.467h3.4c0.267 0 0.533 0.267 0.533 0.533s-0.267 0.533-0.533 0.533h-0.133zM8.867 11.2c0.267 0 0.533 0.267 0.533 0.6s-0.267 0.6-0.533 0.6h-1.667c-0.267 0-0.533-0.267-0.533-0.6s0.267-0.6 0.533-0.6h0.333v-5.333h-2.933c-0.267 0-0.533-0.267-0.533-0.6s0.2-0.6 0.533-0.6h6.867c0.267 0 0.533 0.267 0.533 0.6s-0.267 0.6-0.533 0.6h-2.867v5.333h0.267z"></path>
</symbol>
<symbol id="icon_setting" viewBox="0 0 16 16">
<title>setting</title>
<path d="M14.6 6.467l-1-0.2-0.4-1 0.6-0.867c0.267-0.333 0.2-0.867-0.067-1.2l-0.933-0.933c-0.152-0.16-0.365-0.259-0.602-0.259-0.202 0-0.388 0.072-0.532 0.193l0.001-0.001-0.867 0.6c-0.306-0.192-0.665-0.332-1.050-0.398l-0.017-0.002-0.2-1c-0.067-0.4-0.467-0.733-0.933-0.733h-1.267c-0.467 0-0.8 0.333-0.867 0.733l-0.2 1.067-1 0.4-0.867-0.6c-0.155-0.080-0.338-0.128-0.532-0.133h-0.001c-0.013-0.001-0.029-0.001-0.045-0.001-0.245 0-0.466 0.103-0.622 0.268v0l-0.867 0.867c-0.333 0.333-0.333 0.8-0.067 1.2l0.6 0.867c-0.18 0.287-0.318 0.622-0.396 0.979l-0.004 0.021-1.067 0.133c-0.4 0.067-0.733 0.467-0.733 0.933v1.267c0 0.467 0.333 0.8 0.733 0.867l1.067 0.2 0.4 1-0.6 0.867c-0.267 0.333-0.2 0.867 0.067 1.2l0.933 0.933c0.333 0.267 0.8 0.267 1.2 0l0.867-0.6 1 0.4 0.2 1c0 0.467 0.4 0.8 0.8 0.8h1.333c0.467 0 0.8-0.333 0.867-0.733l0.2-1 1-0.4 0.867 0.6c0.133 0.133 0.333 0.2 0.533 0.2 0.013 0.001 0.029 0.001 0.045 0.001 0.245 0 0.466-0.103 0.622-0.268v0l0.933-0.933c0.333-0.333 0.333-0.8 0.067-1.2l-0.6-0.867c0.2-0.333 0.333-0.667 0.4-1l1-0.2c0.467-0.067 0.733-0.467 0.733-0.867v-1.333c0-0.4-0.333-0.8-0.733-0.867zM14.533 8.667c0 0.067 0 0.067-0.067 0.067l-1.267 0.2c-0.133 0-0.267 0.133-0.333 0.333-0.133 0.467-0.267 0.867-0.533 1.267-0.032 0.069-0.050 0.149-0.050 0.233s0.018 0.165 0.052 0.237l-0.001-0.004 0.733 1.067v0.133l-0.933 0.933h-0.134l-1.067-0.733c-0.133-0.067-0.333-0.133-0.467 0-0.4 0.267-0.8 0.4-1.267 0.533-0.142 0.077-0.256 0.191-0.331 0.329l-0.002 0.004-0.2 1.267c0 0.067-0.067 0.067-0.067 0.067h-1.267c-0.067 0-0.067 0-0.067-0.067l-0.2-1.267c0-0.133-0.133-0.267-0.333-0.333-0.467-0.133-0.867-0.267-1.267-0.533-0.067-0.067-0.133-0.067-0.2-0.067s-0.2 0-0.267 0.067l-1 0.667h-0.134l-0.933-0.933v-0.133l0.733-1.067c0.067-0.133 0.133-0.333 0-0.467-0.267-0.4-0.4-0.8-0.533-1.267-0.077-0.142-0.191-0.256-0.329-0.331l-0.004-0.002-1.267-0.2c-0.067 0-0.067-0.067-0.067-0.067v-1.267c0-0.067 0-0.067 0.067-0.067l1.267-0.2c0.133 0 0.267-0.133 0.333-0.333 0.133-0.467 0.267-0.867 0.533-1.267 0.032-0.069 0.050-0.149 0.050-0.234s-0.018-0.165-0.052-0.237l0.001 0.004-0.733-1v-0.133l0.933-0.933h0.134l1.067 0.733c0.133 0.067 0.333 0.133 0.467 0 0.333-0.2 0.733-0.333 1.2-0.467 0.142-0.077 0.256-0.191 0.331-0.329l0.002-0.004 0.2-1.267c0-0.067 0.067-0.067 0.067-0.067h1.267c0.067 0 0.067 0 0.067 0.067l0.2 1.267c0 0.133 0.133 0.267 0.333 0.333 0.467 0.133 0.933 0.267 1.333 0.533 0.069 0.032 0.149 0.050 0.233 0.050s0.165-0.018 0.237-0.052l-0.004 0.001 1.067-0.733h0.134l0.933 0.933v0.133l-0.733 1.067c-0.067 0.133-0.133 0.333 0 0.467 0.267 0.4 0.4 0.8 0.533 1.267 0.067 0.133 0.2 0.267 0.333 0.333l1.267 0.2c0.067 0 0.067 0.067 0.067 0.067l-0.067 1.2z"></path>
<path d="M8 4.8c-1.733 0-3.133 1.4-3.133 3.133s1.4 3.133 3.133 3.133c0.001 0 0.002 0 0.003 0 1.729 0 3.13-1.401 3.13-3.13 0-0.001 0-0.002 0-0.003v0c0-1.667-1.4-3.133-3.133-3.133zM8 10.333c-1.267 0-2.333-1.067-2.333-2.333s1.067-2.333 2.333-2.333c1.267 0 2.333 1.067 2.333 2.333s-1.067 2.333-2.333 2.333z"></path>
</symbol>
<symbol id="icon_share" viewBox="0 0 16 16">
<title>share</title>
<path d="M12 10.733c-0.533 0-0.933 0.2-1.333 0.533l-4.733-2.8c0.067-0.133 0.067-0.267 0.067-0.467 0-0.133 0-0.333-0.067-0.467l4.733-2.733c0.333 0.333 0.8 0.533 1.333 0.533 1.133 0 2-0.867 2-2s-0.867-2-2-2-2 0.867-2 2c0 0.133 0 0.333 0.067 0.467l-4.733 2.733c-0.336-0.33-0.796-0.533-1.304-0.533-0.010 0-0.020 0-0.030 0h0.002c-1.133 0-2 0.867-2 2s0.867 2 2 2c0.533 0 1-0.2 1.333-0.533l4.733 2.8c-0.067 0.133-0.067 0.267-0.067 0.467 0 1.067 0.867 1.933 1.933 1.933s1.933-0.867 1.933-1.933c0.067-1.067-0.8-2-1.867-2z"></path>
</symbol>
<symbol id="icon_shop" viewBox="0 0 16 16">
<title>shop</title>
<path d="M15 6v-0.067l-1.467-3.667c-0.133-0.133-0.267-0.267-0.533-0.267h-9.533c-0.2 0-0.4 0.133-0.467 0.267l-1.533 3.6v0.067l-0.067 0.133v0.133c-0.067 0.133-0.067 0.267-0.067 0.4 0 0.8 0.6 1.467 1.4 1.733v5.333c0 0.267 0.2 0.4 0.467 0.4h10.267c0.267 0 0.467-0.2 0.467-0.4v-5.4c0.667-0.333 1.2-0.933 1.2-1.667 0-0.133 0-0.267-0.067-0.4 0-0.067 0-0.133-0.067-0.2zM13.333 7.533h-0.466c-0.067 0-0.133 0-0.133-0.067-0.4-0.133-0.667-0.467-0.667-0.8v-0.067c0-0.267-0.2-0.4-0.467-0.4s-0.467 0.2-0.467 0.4v0.067c-0.067 0.4-0.333 0.667-0.733 0.8-0.133 0.067-0.267 0.067-0.4 0.067h-0.2c-0.067 0-0.133 0-0.133-0.067-0.367-0.121-0.644-0.42-0.732-0.793l-0.001-0.007v-0.067c0-0.267-0.2-0.4-0.467-0.4s-0.467 0.2-0.467 0.4v0.067c-0.067 0.4-0.333 0.667-0.667 0.8-0.133 0.067-0.267 0.067-0.4 0.067h-0.2c-0.067 0-0.133 0-0.2-0.067-0.367-0.121-0.644-0.42-0.732-0.793l-0.001-0.007v-0.067c0-0.267-0.2-0.4-0.467-0.4s-0.467 0.2-0.467 0.4v0.067c-0.067 0.4-0.333 0.667-0.733 0.8-0.067 0-0.133 0-0.133 0.067h-0.8c-0.533-0.067-0.933-0.467-0.933-0.933 0-0.067 0-0.133 0.067-0.267v-0.067l1.4-3.467h8.933l1.4 3.4v0.134c0 0.067 0.067 0.2 0.067 0.267 0 0.003 0 0.006 0 0.010 0 0.468-0.345 0.856-0.795 0.923l-0.005 0.001zM13 13.2h-9.333v-4.8h0.067c0.467-0.067 0.933-0.267 1.267-0.6 0.4 0.4 0.933 0.667 1.6 0.667s1.2-0.267 1.6-0.667c0.4 0.4 0.933 0.667 1.6 0.667s1.2-0.267 1.6-0.667c0.267 0.267 0.667 0.467 1.067 0.6h0.467v4.8z"></path>
</symbol>
<symbol id="icon_smoke" viewBox="0 0 16 16">
<title>smoke</title>
<path d="M13.2 10.533h-12.133c-0.2 0-0.4 0.2-0.4 0.4v2.4c0 0.2 0.2 0.4 0.4 0.4h12.067c0.2 0 0.4-0.2 0.4-0.4v-2.4c0.067-0.2-0.133-0.4-0.333-0.4zM3.533 12.933h-2.067v-1.6h2.067v1.6zM10.933 12.933h-6.6v-1.6h6.6v1.6zM12.733 12.933h-1v-1.6h1v1.6zM14.4 5.467c0.667 0.667 0.933 1.333 0.933 2.067 0 1.2-0.933 2-0.933 2-0.067 0.067-0.4 0.2-0.6 0-0.133-0.133-0.133-0.4 0-0.6 0 0 0.667-0.6 0.667-1.467 0-0.533-0.2-1-0.733-1.467-0.667-0.667-1-1.4-0.933-2.133 0.067-1.133 0.933-1.8 1-1.867 0.2 0 0.467 0 0.6 0.2s0.133 0.4-0.067 0.6c0 0-0.667 0.533-0.667 1.267 0 0.467 0.2 0.933 0.733 1.4zM12.533 5.467c0.667 0.667 0.933 1.333 0.933 2.067 0 1.2-0.933 2-0.933 2-0.067 0.067-0.4 0.2-0.6 0-0.133-0.133-0.133-0.4 0-0.6 0 0 0.667-0.6 0.667-1.467 0-0.533-0.2-1-0.733-1.467-0.667-0.667-1-1.4-0.933-2.133 0.067-1.133 0.933-1.8 1-1.867 0.2 0 0.467 0 0.6 0.2s0.133 0.4-0.067 0.6c0 0-0.667 0.533-0.667 1.267 0 0.467 0.267 0.933 0.733 1.4z"></path>
</symbol>
<symbol id="icon_socket" viewBox="0 0 16 16">
<title>socket</title>
<path d="M13.933 2h-6.133c-0.8 0-1.4 0.667-1.4 1.4v6.267c0 0.8 0.6 1.4 1.4 1.4h6.133c0.8 0 1.4-0.667 1.4-1.4v-6.267c0-0.733-0.6-1.4-1.4-1.4zM13.6 6.533c0 1.533-1.2 2.733-2.733 2.733s-2.733-1.267-2.733-2.733c0-1.533 1.2-2.733 2.733-2.733s2.733 1.2 2.733 2.733zM12.733 6.267v0.467c0 0.002 0 0.005 0 0.007 0 0.29-0.236 0.526-0.526 0.526-0.002 0-0.005 0-0.007 0h-0.467c-0.002 0-0.005 0-0.007 0-0.29 0-0.526-0.236-0.526-0.526 0-0.002 0-0.005 0-0.007v0-0.467c0-0.333 0.267-0.533 0.533-0.533h0.467c0.333 0 0.533 0.267 0.533 0.533zM10.533 6.267v0.467c0 0.002 0 0.005 0 0.007 0 0.29-0.236 0.526-0.526 0.526-0.002 0-0.005 0-0.007 0h-0.467c-0.002 0-0.005 0-0.007 0-0.29 0-0.526-0.236-0.526-0.526 0-0.002 0-0.005 0-0.007v0-0.467c0-0.333 0.267-0.533 0.533-0.533h0.467c0.267 0 0.533 0.267 0.533 0.533zM14.667 12.8c0 0.002 0 0.005 0 0.007 0 0.29-0.236 0.526-0.526 0.526-0.002 0-0.005 0-0.007 0h-8.8c-1.533 0-2.733-1.267-2.733-2.8v-2.267c-0.867-0.2-1.533-0.933-1.533-1.867v-1.267c-0.267-0.067-0.4-0.333-0.4-0.533 0-0.333 0.267-0.6 0.533-0.6h0.467v-1.067c0-0.333 0.267-0.533 0.533-0.533s0.533 0.267 0.533 0.533v1.067h0.8v-1.067c0-0.333 0.267-0.533 0.533-0.533 0.333 0 0.533 0.267 0.533 0.533v1.067h0.467c0.333 0 0.533 0.267 0.533 0.533s-0.133 0.467-0.4 0.533v1.267c0 0.933-0.667 1.733-1.533 1.867v2.267c0 0.005 0 0.011 0 0.017 0 0.911 0.739 1.65 1.65 1.65 0.006 0 0.012 0 0.018 0h8.799c0.333 0.067 0.533 0.333 0.533 0.667z"></path>
</symbol>
<symbol id="icon_takeaway" viewBox="0 0 16 16">
<title>takeaway</title>
<path d="M2.733 4c0.133-0.2 0.4-0.267 0.6-0.2l0.2 0.2h0.067l-2 10.467h7.667l2.533-12.933h-9.333v1.267h8.133c0.267 0 0.467 0.2 0.467 0.4s-0.2 0.467-0.4 0.467h-8.6c-0.267 0-0.4-0.2-0.4-0.4v-2.2c-0.067-0.2 0.133-0.4 0.4-0.4h10.267c0.129 0.003 0.245 0.053 0.333 0.133v0c0 0.067 0 0.133 0.067 0.267l2.6 13.667c0 0.067 0.067 0.133 0.067 0.2v0.067c-0.067 0.2-0.2 0.333-0.4 0.333h-13.933c-0.2 0-0.333-0.133-0.4-0.4v-0.2l2.067-10.733h0.133v0.2h-0.133v-0.2zM12.867 12.867l1.533 0.733-1.533-9v8.267zM12.133 12.867v-9.733l-2.267 11.267 2.267-1.533zM14.733 14.867l-2.2-1.333-2.2 1.333h4.4zM4.133 7.667s-0.067 0-0.067 0.067l-0.4 2.067s0 0.067 0.067 0.067h5.133s0.067 0 0.067-0.067l0.4-2.067s0-0.067-0.067-0.067h-5.133zM10.067 7.6l-0.467 2.333c0 0.267-0.2 0.4-0.4 0.4h-5.867c-0.2 0-0.4-0.2-0.4-0.467l0.467-2.333c0-0.267 0.2-0.4 0.4-0.4h5.867c0.2 0 0.4 0.2 0.4 0.467z"></path>
</symbol>
<symbol id="icon_tax" viewBox="0 0 16 16">
<title>tax</title>
<path d="M11.2 6.6v-6.067c0-0.267-0.2-0.533-0.533-0.533h-9.467c-0.267 0-0.533 0.267-0.533 0.533v14.2c0 0.267 0.267 0.533 0.533 0.533h7.733c0.6 0.267 1.267 0.467 2 0.467 2.533 0 4.533-2.067 4.533-4.533s-1.867-4.467-4.267-4.6zM1.733 1.067h8.4v5.6c-2.133 0.4-3.733 2.267-3.733 4.467 0 1.133 0.4 2.2 1.133 3h-5.733l-0.067-13.067zM10.933 14.667c-1.933 0-3.467-1.533-3.467-3.467s1.533-3.467 3.467-3.467c0.007 0 0.016 0 0.024 0 1.902 0 3.443 1.541 3.443 3.443 0 0.008 0 0.017 0 0.025v-0.001c0 1.867-1.533 3.4-3.467 3.467z"></path>
<path d="M12.533 9.6c-0.2-0.2-0.533-0.2-0.733 0l-2.333 2.333c-0.2 0.2-0.2 0.533 0 0.733s0.533 0.2 0.733 0l2.333-2.333c0.2-0.2 0.2-0.533 0-0.733zM9.733 10.533c0.133 0 0.267-0.067 0.4-0.133 0.2-0.2 0.2-0.533 0-0.733-0.133-0.067-0.267-0.133-0.4-0.133s-0.267 0.067-0.4 0.133c-0.067 0.133-0.133 0.267-0.133 0.4s0.067 0.267 0.133 0.4c0.133 0 0.267 0.067 0.4 0.067zM12.133 11.8c-0.267 0-0.533 0.267-0.533 0.533 0 0.133 0.067 0.267 0.133 0.4 0.133 0.067 0.267 0.133 0.4 0.133s0.267-0.067 0.4-0.133c0.133-0.133 0.133-0.267 0.133-0.4s-0.067-0.267-0.133-0.4c-0.133-0.067-0.267-0.133-0.4-0.133zM4.067 3.933h3.8c0.267 0 0.533-0.267 0.533-0.533s-0.267-0.533-0.533-0.533h-3.8c-0.267 0-0.533 0.267-0.533 0.533s0.267 0.533 0.533 0.533zM4.067 6.733h3.8c0.267 0 0.533-0.267 0.533-0.533s-0.267-0.533-0.533-0.533h-3.8c-0.267 0-0.533 0.267-0.533 0.533 0 0.333 0.267 0.533 0.533 0.533zM5 8.533h-0.933c-0.267 0-0.533 0.267-0.533 0.533s0.267 0.533 0.533 0.533h0.933c0.267 0 0.533-0.267 0.533-0.533 0-0.333-0.2-0.533-0.533-0.533z"></path>
</symbol>
<symbol id="icon_thumbsup" viewBox="0 0 16 16">
<title>thumbsup</title>
<path d="M5.8 8.133v5.733h6.133c0.733 0 1.667-0.667 2-2.067l0.533-3.133c0-1.067-0.933-1.933-2-1.933h-1.933c-0.2 0-0.4-0.2-0.4-0.4v-0.067c0.133-0.733 0.2-1.533 0.2-2.267v-0.2c0-0.333 0-1.133-0.333-1.467-0.112-0.123-0.272-0.2-0.451-0.2-0.006 0-0.012 0-0.017 0h0.001c-0.467 0-0.533 0.533-0.6 1.933-0.067 1.6-0.2 4.067-2.8 4.067h-0.333zM11.933 14.667h-10.2c-0.2 0-0.4-0.2-0.4-0.4v-6.533c0-0.2 0.2-0.4 0.4-0.4h4.4c1.733 0 1.933-1.267 2-3.267 0-1.267 0.067-2.733 1.4-2.733 0.467 0 0.8 0.133 1.067 0.4 0.6 0.6 0.6 1.6 0.6 2.067v0.067c0 0.8-0.067 1.533-0.133 2h1.4c1.533 0 2.8 1.267 2.8 2.8v0.067l-0.533 3.2c-0.467 1.867-1.733 2.733-2.8 2.733zM2.133 13.867h2.8v-5.733h-2.8v5.733z"></path>
</symbol>
<symbol id="icon_trash" viewBox="0 0 16 16">
<title>trash</title>
<path d="M13.467 3.267h-2.8v-0.467c0-0.8-0.667-1.467-1.467-1.467h-2.667c-0.733 0-1.4 0.667-1.4 1.467v0.467h-2.733c-0.2 0-0.4 0.133-0.4 0.333s0.133 0.4 0.4 0.4h0.667v8.667c0 1.067 0.867 2 2 2h5.8c1.067 0 2-0.867 2-2v-8.667h0.667c0.2 0 0.4-0.133 0.4-0.4-0.071-0.194-0.253-0.33-0.467-0.333v0zM5.867 2.8c0-0.4 0.333-0.733 0.733-0.733h2.667c0.4 0 0.733 0.333 0.733 0.733v0.467h-4.133v-0.467zM12.067 12.667c0 0.667-0.533 1.267-1.267 1.267h-5.8c0 0-0.001 0-0.001 0-0.699 0-1.266-0.567-1.266-1.266 0 0 0-0.001 0-0.001v0-8.667h8.333v8.667zM7.933 12.6c0.2 0 0.4-0.133 0.4-0.4v-6.533c0-0.2-0.133-0.4-0.4-0.4-0.2 0-0.4 0.133-0.4 0.4v6.533c0 0.2 0.2 0.4 0.4 0.4zM5.533 12.2c0.2 0 0.4-0.133 0.4-0.4v-5.733c0-0.2-0.133-0.4-0.4-0.4-0.2 0.067-0.4 0.2-0.4 0.4v5.733c0 0.2 0.2 0.4 0.4 0.4zM10.333 12.2c0.2 0 0.4-0.133 0.4-0.333v-5.8c0-0.2-0.133-0.4-0.4-0.4-0.2 0-0.4 0.133-0.4 0.4v5.733c0.067 0.2 0.2 0.4 0.4 0.4z"></path>
</symbol>
<symbol id="icon_user" viewBox="0 0 16 16">
<title>user</title>
<path d="M15.333 8c0-4.067-3.267-7.333-7.333-7.333s-7.333 3.267-7.333 7.333c0.003 2.139 0.926 4.062 2.394 5.395l0.006 0.005 0.267 0.2 0.067 0.067c0.133 0.133 0.267 0.2 0.4 0.333l0.6 0.4 0.067 0.067c0.133 0.067 0.333 0.2 0.533 0.267h0.067c0.733 0.333 1.6 0.6 2.4 0.667h1.334c0.2 0 0.4-0.067 0.6-0.067h0.067c0.6-0.133 1.2-0.267 1.733-0.533h0.067c0.333-0.2 0.667-0.333 1-0.6 0.067 0 0.067-0.067 0.133-0.133 0.133-0.067 0.2-0.2 0.333-0.267l0.067-0.067 0.267-0.2c1.4-1.467 2.267-3.467 2.267-5.533zM1.2 8c0-3.733 3.067-6.8 6.8-6.8s6.8 3.067 6.8 6.8c0 2-0.867 3.867-2.267 5.067-0.067-0.067-0.133-0.133-0.267-0.133l-2.267-1.133c-0.2-0.133-0.333-0.333-0.333-0.533v-0.8c0.067-0.067 0.133-0.133 0.133-0.2 0.267-0.4 0.533-0.867 0.667-1.333 0.333-0.133 0.533-0.467 0.533-0.867v-0.933c0-0.2-0.067-0.467-0.267-0.6v-1.333c0-0.133 0.067-0.933-0.533-1.533-0.467-0.533-1.267-0.867-2.333-0.867s-1.867 0.267-2.333 0.867c-0.533 0.667-0.533 1.4-0.533 1.533v1.267c-0.133 0.2-0.267 0.4-0.267 0.6v0.933c0 0.267 0.133 0.6 0.333 0.733 0.2 0.867 0.667 1.467 0.8 1.733v0.8c0 0.2-0.133 0.4-0.333 0.533l-2.133 1.133c-0.067 0.067-0.133 0.067-0.2 0.133-1.2-1.267-2-3.133-2-5.067z"></path>
</symbol>
<symbol id="icon_video" viewBox="0 0 16 16">
<title>video</title>
<path d="M7.933 15.6c-4.2 0-7.667-3.4-7.667-7.667 0-4.2 3.4-7.667 7.667-7.667s7.667 3.4 7.667 7.667-3.467 7.667-7.667 7.667zM7.933 14.8c3.8 0 6.867-3.067 6.867-6.867s-3.067-6.867-6.867-6.867-6.867 3.067-6.867 6.867 3.067 6.867 6.867 6.867zM10.333 8l-4 2.333v-4.667l4 2.333z"></path>
</symbol>
<symbol id="icon_wc" viewBox="0 0 16 16">
<title>wc</title>
<path d="M4.067 4.067c0.667 0 1.2-0.533 1.2-1.2s-0.533-1.133-1.2-1.133c-0.667 0-1.2 0.533-1.2 1.2s0.6 1.133 1.2 1.133zM4.067 4.867c-1.067 0-2-0.867-2-2 0-1.067 0.867-2 2-2 1.067 0 2 0.867 2 2s-0.933 2-2 2zM11.133 4.067c0.667 0 1.2-0.533 1.2-1.2s-0.533-1.2-1.2-1.2-1.133 0.6-1.133 1.267c0 0.6 0.467 1.133 1.133 1.133zM11.133 4.867c-1.067 0-2-0.867-2-2s0.867-2 2-2c1.067 0 2 0.867 2 2s-0.933 2-2 2zM6.4 5.867c0-0.533-0.533-0.933-1.2-0.933h-2.267c-0.667 0-1.2 0.467-1.2 0.933v3.267h1.2v5.067h2.333v-5.067h1.2l-0.067-3.267zM2.133 10h-1.2v-4.133c0-1 0.867-1.733 2-1.733h2.333c1.067 0 2 0.8 2 1.733v4.133h-1.2v5.067h-3.933v-5.067zM12.267 5.6c-0.133-0.4-0.6-0.667-1.133-0.667h-0.067c-0.533 0-0.933 0.267-1.133 0.667l-1.8 4.6h2.133v4h1.533v-4h2.2l-1.733-4.6zM15.267 11h-2.533v4h-3.133v-4h-2.533l0.2-0.533 2-5.133c0.267-0.733 1-1.2 1.867-1.2h0.067c0.867 0 1.6 0.467 1.867 1.2l2.2 5.667z"></path>
</symbol>
<symbol id="icon_whatsapp" viewBox="0 0 16 16">
<title>whatsapp</title>
<path d="M7.667 1.333c-3.533 0.2-6.333 3.133-6.333 6.667 0 1.067 0.267 2.067 0.733 3l-0.733 3.467c0 0.133 0.067 0.267 0.2 0.333 0.067 0 0.067 0 0.133 0l3.333-0.8c0.867 0.467 1.867 0.667 2.867 0.667 3.6 0.067 6.667-2.8 6.8-6.467 0.133-3.867-3.067-7.067-7-6.867v0zM11.667 11.667c-1 1-2.333 1.533-3.667 1.533-0.8 0-1.6-0.2-2.333-0.533l-0.467-0.267-2.067 0.467 0.467-2.133-0.267-0.333c-0.4-0.733-0.6-1.533-0.6-2.4 0-1.4 0.533-2.733 1.533-3.667 1-1 2.333-1.533 3.733-1.533s2.733 0.533 3.667 1.533c1 1 1.533 2.333 1.533 3.667 0 1.4-0.533 2.733-1.533 3.667zM11.267 9.467l-1.267-0.4c-0.2-0.067-0.333 0-0.467 0.133l-0.333 0.333c-0.133 0.133-0.333 0.2-0.533 0.133-0.6-0.267-1.867-1.4-2.2-1.933-0.067-0.133-0.067-0.4 0.067-0.533l0.267-0.333c0.133-0.133 0.133-0.333 0.067-0.467l-0.6-1.333c-0.133-0.267-0.4-0.333-0.667-0.267-0.067 0-0.067 0.067-0.133 0.067-0.333 0.333-0.733 0.8-0.8 1.333-0.067 0.933 0.267 2.067 1.733 3.4 1.667 1.6 3.067 1.8 3.933 1.6 0.533-0.133 0.933-0.6 1.133-1 0.133-0.2 0.067-0.533-0.133-0.667 0-0.067-0.067-0.067-0.067-0.067v0z"></path>
</symbol>
<symbol id="icon_wifi" viewBox="0 0 16 16">
<title>wifi</title>
<path d="M14.533 5.4c0.067 0.067 0.133 0.2 0.133 0.333s-0.067 0.267-0.133 0.333l-0.733 0.733c-0.2 0.2-0.533 0.2-0.733 0-1.333-1.333-3.2-2.133-5.067-2.133-2 0-3.8 0.8-5.067 2.133-0.2 0.2-0.533 0.2-0.733 0l-0.733-0.667c-0.067-0.133-0.133-0.267-0.133-0.4s0.067-0.267 0.133-0.333c1.667-1.733 4-2.733 6.533-2.733s4.8 1 6.533 2.733zM8 6.8c1.467 0 2.667 0.533 3.6 1.467 0.2 0.2 0.2 0.533 0 0.733l-0.733 0.733c-0.2 0.2-0.533 0.2-0.733 0-0.533-0.533-1.333-0.867-2.133-0.867s-1.6 0.333-2.133 0.867c-0.2 0.2-0.533 0.2-0.733 0l-0.733-0.733c-0.2-0.2-0.2-0.533 0-0.733 0.849-0.907 2.054-1.472 3.39-1.472 0.074 0 0.147 0.002 0.22 0.005h-0.010zM8 12.933c-0.533 0-1-0.467-1-1s0.467-1 1-1c0.533 0 1 0.467 1 1s-0.467 1-1 1z"></path>
</symbol>
</defs>
</svg>
