<svg style="position: absolute; width: 0; height: 0; overflow: hidden;" version="1.1" xmlns="http://www.w3.org/2000/svg" xmlns:xlink="http://www.w3.org/1999/xlink">
<defs>
<symbol id="icon_add" viewBox="0 0 16 16">
<title>add</title>
<path d="M7.333 3.333v4h-4v1.333h4v4h1.333v-4h4v-1.333h-4v-4h-1.333z"></path>
</symbol>
<symbol id="icon_chechin" viewBox="0 0 16 16">
<title>chechin</title>
<path d="M13.333 14.867l-1.867-3.933c-0.067-0.067-0.133-0.133-0.2-0.2l-0.933-0.4 1.6-2.667c0.333-0.6 0.467-1.333 0.467-2 0-1.2-0.467-2.267-1.333-3.133-0.867-0.8-2-1.267-3.2-1.267-1.133 0-2.267 0.467-3.067 1.267-1.333 1.333-1.667 3.4-0.8 5.067l1.6 2.667-0.933 0.4c-0.067 0.067-0.133 0.067-0.2 0.2l-1.867 3.933c0.067 0.2 0.067 0.333 0.133 0.4 0.133 0.133 0.267 0.133 0.4 0.133l2.333-1 2.333 1c0.067 0.067 0.2 0.067 0.267 0l2.333-1 2.333 1c0.133 0.067 0.267 0 0.4-0.067 0.2-0.133 0.2-0.267 0.2-0.4v0zM4.667 7.333c-0.267-0.533-0.4-1.067-0.4-1.667 0-2 1.667-3.6 3.667-3.667 1 0 1.933 0.333 2.667 1.067 0.733 0.667 1.133 1.6 1.133 2.6 0 0.6-0.133 1.133-0.4 1.667l-3 5c-0.067 0.133-0.2 0.2-0.333 0.2s-0.267-0.067-0.333-0.2l-3-5zM10.667 13.6c-0.067-0.067-0.2-0.067-0.267 0l-2.4 1-2.333-1c-0.067-0.067-0.2-0.067-0.267 0l-1.6 0.733 1.333-3 0.867-0.4 1.067 1.733c0.2 0.333 0.533 0.533 0.933 0.533s0.733-0.2 0.933-0.533l1.067-1.733 0.867 0.4 1.4 2.933-1.6-0.667zM8 3.933c0.867 0 1.6 0.667 1.6 1.533s-0.733 1.533-1.6 1.533-1.6-0.667-1.6-1.533c0-0.867 0.733-1.533 1.6-1.533v0zM8 6.333c0.467 0 0.867-0.4 0.867-0.867s-0.4-0.867-0.867-0.867-0.867 0.4-0.867 0.867 0.4 0.867 0.867 0.867v0z"></path>
</symbol>
<symbol id="icon_more" viewBox="0 0 16 16">
<title>more</title>
<path d="M10.667 8c0 0.733 0.6 1.333 1.333 1.333s1.333-0.6 1.333-1.333-0.6-1.333-1.333-1.333-1.333 0.6-1.333 1.333zM9.333 8c0-0.733-0.6-1.333-1.333-1.333s-1.333 0.6-1.333 1.333 0.6 1.333 1.333 1.333 1.333-0.6 1.333-1.333zM5.333 8c0-0.733-0.6-1.333-1.333-1.333s-1.333 0.6-1.333 1.333 0.6 1.333 1.333 1.333 1.333-0.6 1.333-1.333z"></path>
</symbol>
<symbol id="icon_photo" viewBox="0 0 16 16">
<title>photo</title>
<path d="M14.667 2h-13.333c-0.4 0-0.667 0.267-0.667 0.667v10.8c0 0.333 0.267 0.667 0.667 0.667h13.333c0.333 0 0.667-0.267 0.667-0.667v-10.8c0-0.4-0.267-0.667-0.667-0.667zM14.667 13.467h-13.333v-10.8h13.333v10.8zM13.467 3.533h-10.933c-0.2 0-0.333 0.133-0.333 0.333v0 7.133c0 0.2 0.133 0.333 0.333 0.333h10.933c0.2 0 0.333-0.133 0.333-0.333v-7.133c0-0.2-0.133-0.333-0.333-0.333 0 0 0 0 0 0zM2.867 4.2h10.267v5.467l-2.067-2.067c-0.133-0.133-0.333-0.133-0.467 0l-1.267 1.267-2.8-2.867c-0.133-0.133-0.333-0.133-0.467 0l-3.267 3.267v-5.067zM2.867 10.667v-0.533l3.467-3.467 4 4h-7.467zM13.133 10.667h-1.933l-1.333-1.333 1-1 2.2 2.2c0 0 0.067 0.067 0.067 0.067 0-0.067 0 0.067 0 0.067zM9.4 4.8c-0.667 0-1.2 0.533-1.2 1.2s0.533 1.2 1.2 1.2c0.667 0 1.2-0.533 1.2-1.2s-0.533-1.2-1.2-1.2v0zM9.4 6.6c-0.333 0-0.533-0.267-0.533-0.6 0-0.267 0.267-0.533 0.533-0.533 0.333 0 0.533 0.267 0.533 0.6 0 0.267-0.267 0.533-0.533 0.533z"></path>
</symbol>
<symbol id="icon_arrowback" viewBox="0 0 16 16">
<title>arrowback</title>
<path d="M13.333 7.333h-8.133l3.733-3.733-0.933-0.933-5.333 5.333 5.333 5.333 0.933-0.933-3.733-3.733h8.133v-1.333z"></path>
</symbol>
<symbol id="icon_save" viewBox="0 0 16 16">
<title>save</title>
<path d="M12.4 1.333h-8.467c-0.333 0-0.6 0.267-0.6 0.6v12.133c0 0.267 0.133 0.467 0.333 0.533 0.2 0.133 0.467 0.067 0.667-0.067l3.8-2.933 3.8 2.933c0.2 0.133 0.467 0.2 0.667 0.067 0.2-0.067 0.333-0.333 0.333-0.533v-12.133c0.067-0.333-0.2-0.6-0.533-0.6z"></path>
</symbol>
<symbol id="icon_like" viewBox="0 0 16 16">
<title>like</title>
<path d="M11 2c2.067 0 3.667 1.6 3.667 3.667 0 0.667-0.133 1.267-0.467 1.933-0.4 0.867-1.133 1.667-2.267 2.8-0.4 0.4-2.733 2.667-3.467 3.4l-0.467 0.467-0.4-0.4c-0.733-0.733-3.133-3-3.467-3.4-1.133-1.133-1.8-2-2.267-2.8-0.4-0.733-0.533-1.4-0.533-2 0-2.067 1.6-3.667 3.667-3.667 1.2 0 2.333 0.533 3 1.467 0.733-0.933 1.867-1.467 3-1.467z"></path>
</symbol>
<symbol id="icon_nonhalal" viewBox="0 0 26 16">
<title>nonhalal</title>
<path fill="#fa8700" style="fill: var(--color1, #fa8700)" d="M9.223 13.768c0.813 0.402 1.77 0.636 2.782 0.636 3.535 0 6.4-2.865 6.4-6.4 0-1.891-0.82-3.591-2.125-4.762l-0.006-0.005-7.053 10.531zM7.879 12.898l7.081-10.574c-0.86-0.459-1.881-0.728-2.965-0.728-3.535 0-6.4 2.865-6.4 6.4 0 1.963 0.884 3.72 2.276 4.894l0.010 0.008zM12 16c-4.418 0-8-3.582-8-8s3.582-8 8-8 8 3.582 8 8-3.582 8-8 8z"></path>
<path fill="#008735" style="fill: var(--color2, #008735)" d="M7.8 12.817l-1.336 0.236-0.587-3.332-3.448 0.608 0.588 3.332-1.34 0.236-1.322-7.498 1.34-0.236 0.55 3.12 3.448-0.608-0.55-3.12 1.335-0.235 1.322 7.497zM12.682 11.956c-0.049-0.063-0.091-0.134-0.125-0.209l-0.003-0.007c-0.032-0.067-0.070-0.159-0.104-0.252l-0.008-0.025c-0.076 0.109-0.155 0.204-0.241 0.293l0.001-0.001c-0.092 0.095-0.194 0.18-0.303 0.254l-0.007 0.004c-0.24 0.165-0.525 0.283-0.832 0.336l-0.013 0.002c-0.133 0.026-0.286 0.041-0.443 0.041-0.13 0-0.257-0.010-0.382-0.030l0.014 0.002c-0.255-0.039-0.483-0.124-0.687-0.246l0.009 0.005c-0.198-0.12-0.363-0.273-0.493-0.453l-0.003-0.005c-0.128-0.179-0.22-0.392-0.26-0.624l-0.001-0.009c-0.021-0.102-0.033-0.22-0.033-0.341 0-0.172 0.025-0.338 0.071-0.496l-0.003 0.012c0.076-0.25 0.212-0.472 0.407-0.666s0.447-0.36 0.756-0.497c0.312-0.138 0.676-0.248 1.056-0.312l0.027-0.004 0.81-0.143-0.064-0.366c-0.051-0.288-0.176-0.504-0.372-0.648s-0.464-0.186-0.803-0.127c-0.152 0.027-0.286 0.071-0.402 0.133-0.111 0.057-0.206 0.129-0.287 0.215l-0.001 0.001c-0.070 0.076-0.125 0.168-0.158 0.269l-0.001 0.005c-0.019 0.058-0.029 0.124-0.029 0.193 0 0.042 0.004 0.083 0.011 0.123l-0.001-0.004-1.287 0.226c-0.012-0.068-0.020-0.147-0.020-0.228 0-0.157 0.027-0.307 0.077-0.447l-0.003 0.009c0.075-0.224 0.202-0.434 0.378-0.63s0.402-0.367 0.676-0.514 0.592-0.253 0.952-0.317c0.322-0.056 0.625-0.068 0.911-0.036s0.542 0.112 0.768 0.237 0.414 0.296 0.566 0.516c0.151 0.219 0.255 0.488 0.312 0.808l0.435 2.472c0.088 0.501 0.231 0.888 0.429 1.161l0.016 0.088-1.314 0.231zM11.11 11.304c0.399-0.070 0.738-0.29 0.961-0.598l0.003-0.004c0.064-0.094 0.111-0.187 0.142-0.278l-0.186-1.050-0.694 0.122c-0.477 0.084-0.821 0.228-1.032 0.432-0.158 0.145-0.257 0.353-0.257 0.583 0 0.058 0.006 0.115 0.018 0.17l-0.001-0.005c0.020 0.114 0.058 0.214 0.114 0.304s0.129 0.162 0.219 0.219c0.090 0.056 0.194 0.094 0.312 0.114s0.252 0.017 0.4-0.010zM16.496 11.284l-1.287 0.226-1.394-7.91 1.287-0.226 1.394 7.91zM21.321 10.433c-0.049-0.063-0.091-0.134-0.125-0.209l-0.003-0.007c-0.032-0.067-0.070-0.159-0.104-0.252l-0.008-0.025c-0.076 0.109-0.155 0.204-0.241 0.293l0.001-0.001c-0.092 0.095-0.194 0.18-0.303 0.254l-0.007 0.004c-0.24 0.165-0.525 0.283-0.832 0.336l-0.013 0.002c-0.133 0.026-0.286 0.041-0.443 0.041-0.13 0-0.257-0.010-0.382-0.030l0.014 0.002c-0.255-0.039-0.483-0.124-0.687-0.246l0.009 0.005c-0.198-0.12-0.363-0.273-0.493-0.453l-0.003-0.005c-0.128-0.179-0.22-0.392-0.26-0.624l-0.001-0.009c-0.021-0.102-0.033-0.219-0.033-0.339 0-0.173 0.025-0.34 0.071-0.497l-0.003 0.012c0.076-0.25 0.211-0.472 0.406-0.666s0.448-0.36 0.756-0.497c0.312-0.138 0.676-0.248 1.056-0.312l0.027-0.004 0.81-0.143-0.064-0.366c-0.051-0.288-0.175-0.504-0.372-0.648s-0.464-0.186-0.803-0.127c-0.152 0.027-0.286 0.071-0.402 0.133-0.111 0.057-0.206 0.129-0.287 0.215l-0.001 0.001c-0.070 0.076-0.125 0.168-0.158 0.269l-0.001 0.005c-0.019 0.058-0.029 0.124-0.029 0.193 0 0.042 0.004 0.083 0.012 0.123l-0.001-0.004-1.287 0.226c-0.012-0.068-0.020-0.147-0.020-0.228 0-0.157 0.027-0.307 0.077-0.447l-0.003 0.009c0.076-0.224 0.202-0.434 0.378-0.63s0.402-0.367 0.676-0.514 0.592-0.253 0.952-0.317c0.322-0.056 0.625-0.068 0.911-0.036s0.542 0.112 0.768 0.237 0.414 0.296 0.566 0.516c0.151 0.219 0.255 0.488 0.312 0.808l0.435 2.472c0.088 0.501 0.232 0.888 0.429 1.161l0.016 0.088-1.314 0.231zM19.748 9.781c0.399-0.070 0.738-0.29 0.961-0.598l0.003-0.004c0.064-0.094 0.111-0.187 0.142-0.278l-0.186-1.050-0.694 0.122c-0.477 0.084-0.821 0.228-1.032 0.432-0.158 0.145-0.257 0.353-0.257 0.583 0 0.058 0.006 0.115 0.018 0.17l-0.001-0.005c0.020 0.114 0.058 0.214 0.114 0.304s0.129 0.162 0.219 0.219c0.090 0.056 0.194 0.094 0.312 0.114s0.252 0.017 0.4-0.010zM25.134 9.761l-1.287 0.226-1.394-7.91 1.287-0.226 1.394 7.91z"></path>
</symbol>
<symbol id="icon_chechin2" viewBox="0 0 16 16">
<title>chechin2</title>
<path d="M13.333 14.867l-1.867-3.933c-0.067-0.067-0.133-0.133-0.2-0.2l-0.933-0.4 1.6-2.667c0.333-0.6 0.467-1.333 0.467-2 0-1.2-0.467-2.267-1.333-3.133-0.867-0.8-2-1.267-3.2-1.267-1.133 0-2.267 0.467-3.067 1.267-1.333 1.333-1.667 3.4-0.8 5.067l1.6 2.667-0.933 0.4c-0.067 0.067-0.133 0.067-0.2 0.2l-1.867 3.933c0.067 0.2 0.067 0.333 0.133 0.4 0.133 0.133 0.267 0.133 0.4 0.133l2.333-1 2.333 1c0.067 0.067 0.2 0.067 0.267 0l2.333-1 2.333 1c0.133 0.067 0.267 0 0.4-0.067 0.2-0.133 0.2-0.267 0.2-0.4v0zM4.667 7.333c-0.267-0.533-0.4-1.067-0.4-1.667 0-2 1.667-3.6 3.667-3.667 1 0 1.933 0.333 2.667 1.067 0.733 0.667 1.133 1.6 1.133 2.6 0 0.6-0.133 1.133-0.4 1.667l-3 5c-0.067 0.133-0.2 0.2-0.333 0.2s-0.267-0.067-0.333-0.2l-3-5zM10.667 13.6c-0.067-0.067-0.2-0.067-0.267 0l-2.4 1-2.333-1c-0.067-0.067-0.2-0.067-0.267 0l-1.6 0.733 1.333-3 0.867-0.4 1.067 1.733c0.2 0.333 0.533 0.533 0.933 0.533s0.733-0.2 0.933-0.533l1.067-1.733 0.867 0.4 1.4 2.933-1.6-0.667zM8 3.933c0.867 0 1.6 0.667 1.6 1.533s-0.733 1.533-1.6 1.533-1.6-0.667-1.6-1.533c0-0.867 0.733-1.533 1.6-1.533v0zM8 6.333c0.467 0 0.867-0.4 0.867-0.867s-0.4-0.867-0.867-0.867-0.867 0.4-0.867 0.867 0.4 0.867 0.867 0.867v0z"></path>
</symbol>
<symbol id="icon_camera" viewBox="0 0 16 16">
<title>camera</title>
<path d="M14 5h-2.8l-0.067-0.667-0.067-0.4c0-0.2-0.133-0.333-0.267-0.467-0.2-0.067-0.333-0.133-0.533-0.133h-4.533c-0.2 0-0.333 0.067-0.533 0.2-0.133 0.133-0.2 0.267-0.267 0.4l-0.067 0.467-0.133 0.667h-2.733c-0.4-0.067-0.667 0.267-0.667 0.6v7c0 0.333 0.267 0.667 0.667 0.667h12c0.4 0 0.667-0.267 0.667-0.667v-7c0-0.333-0.267-0.667-0.667-0.667zM13.867 12.533h-11.733v-6.733h2.667c0.4 0 0.733-0.267 0.8-0.667l0.067-0.667 0.067-0.4h4.533l0.067 0.4 0.133 0.667c0.067 0.333 0.4 0.667 0.8 0.667h2.667v6.733h-0.067zM12.6 7.6c0.333 0 0.667-0.267 0.667-0.6s-0.267-0.6-0.667-0.6c-0.333 0-0.667 0.267-0.667 0.6s0.267 0.6 0.667 0.6v0zM8 6c-0.8 0-1.533 0.267-2.133 0.867-0.6 0.533-0.867 1.267-0.867 2 0 0.8 0.267 1.467 0.867 2s1.267 0.8 2.133 0.867c1.6 0 3-1.333 3-2.867 0-0.8-0.267-1.467-0.867-2-0.6-0.6-1.333-0.867-2.133-0.867v0zM9.533 10.333c-0.4 0.4-0.933 0.6-1.533 0.6s-1.133-0.2-1.533-0.6c-0.4-0.4-0.667-0.933-0.667-1.467 0-0.6 0.2-1.067 0.667-1.467 0.4-0.4 1-0.6 1.533-0.6 0.6 0 1.133 0.2 1.533 0.6s0.667 0.933 0.667 1.467c0 0.533-0.2 1.067-0.667 1.467v0z"></path>
</symbol>
<symbol id="icon_review" viewBox="0 0 16 16">
<title>review</title>
<path d="M14.467 2.6c0.333 0.267 0.333 0.533 0 0.867l-1.133 1.133-1.933-1.933 1.067-1.133c0.333-0.333 0.6-0.333 0.867 0 0.067 0 1.133 1.067 1.133 1.067zM11.067 3l1.933 1.933-6.133 6-2.2 0.4 0.467-2.2c0 0 5.933-6.133 5.933-6.133zM12.4 8l1.133-1.133v6.933c0 0.2-0.067 0.4-0.2 0.6-0.133 0.133-0.333 0.2-0.6 0.2h-10.6c-0.2 0-0.4-0.067-0.6-0.2-0.133-0.133-0.2-0.333-0.2-0.533v-10.6c0-0.2 0.067-0.4 0.2-0.6 0.133-0.133 0.333-0.2 0.6-0.2h6.933l-1.067 1.133h-5.2c-0.267 0-0.4 0.133-0.4 0.333v9.267c0 0.2 0.133 0.333 0.333 0.333h9.333c0.2 0 0.333-0.133 0.333-0.333v-5.2z"></path>
</symbol>
<symbol id="icon_money" viewBox="0 0 16 16">
<title>money</title>
<path d="M8 1.333c-3.667 0-6.667 3-6.667 6.667s3 6.667 6.667 6.667 6.667-3 6.667-6.667-3-6.667-6.667-6.667zM8 13.8c-3.2 0-5.8-2.6-5.8-5.8s2.6-5.8 5.8-5.8 5.8 2.6 5.8 5.8-2.6 5.8-5.8 5.8zM8 7.6v-2.533c0.267 0.067 0.467 0.267 0.6 0.467s0.4 0.267 0.6 0.133c0 0 0 0 0 0 0.2-0.133 0.267-0.4 0.133-0.6-0.267-0.467-0.8-0.8-1.333-0.933v-0.667c0-0.267-0.2-0.467-0.4-0.467-0.267 0-0.4 0.2-0.4 0.467v0.733c-1 0.133-1.733 1-1.733 2.067s0.733 1.933 1.667 2.133v2.533c-0.267-0.067-0.467-0.267-0.6-0.467s-0.4-0.267-0.6-0.133c0 0 0 0 0 0-0.2 0.133-0.267 0.4-0.133 0.6 0.267 0.467 0.8 0.8 1.333 0.933v0.733c0 0.267 0.2 0.467 0.4 0.467s0.4-0.2 0.4-0.467v-0.733c0.933-0.2 1.667-1.067 1.667-2.133s-0.667-1.933-1.6-2.133zM6.333 6.267c0-0.533 0.333-1 0.8-1.2v2.4c-0.467-0.2-0.8-0.667-0.8-1.2zM8 10.933v-2.4c0.467 0.2 0.8 0.667 0.8 1.2s-0.333 1-0.8 1.2v0z"></path>
</symbol>
<symbol id="icon_call" viewBox="0 0 16 16">
<title>call</title>
<path d="M13.267 13.867c-0.533 0.533-1.133 0.8-1.933 0.8-0.067 0-0.133 0-0.2 0-0.867-0.067-1.667-0.333-2.6-0.8-1.733-0.867-3.333-2.067-4.6-3.533-1.067-1.267-1.733-2.4-2.2-3.733-0.267-0.8-0.467-1.467-0.4-2.267 0.067-0.6 0.333-1.133 0.733-1.533l0.933-1c0.4-0.267 0.8-0.467 1.267-0.467s0.867 0.2 1.2 0.533c0.133 0.133 0.333 0.267 0.533 0.533 0.067 0.067 0.133 0.133 0.267 0.267l0.8 0.8c0.733 0.733 0.733 1.733 0 2.467-0.067 0.067-0.067 0.067-0.067 0.067h-0.067c-0.067 0.067-0.067 0.067-0.133 0.133s-0.067 0.067-0.133 0.133c-0.133 0.133-0.267 0.2-0.333 0.333 0.133 0.267 0.333 0.6 0.6 0.867 0.733 0.867 1.467 1.533 2.267 2.067 0 0 0.067 0.067 0.133 0.067s0.067 0.067 0.133 0.067l0.733-0.733c0.333-0.333 0.8-0.533 1.2-0.533 0.467 0 0.867 0.2 1.2 0.533l1.533 1.533c0.333 0.333 0.533 0.8 0.533 1.2 0 0.467-0.2 0.867-0.533 1.2-0.133 0.133-0.267 0.267-0.4 0.4-0.2 0.2-0.133 0.133-0.2 0.2-0.067 0.133-0.133 0.267-0.267 0.4l-0.267-0.267 0.333 0.133-0.067 0.133c0-0.067 0-0.067 0 0l0.067-0.067c0-0.067-0.067 0.067-0.067 0.067zM12.667 13.4v0 0 0zM11.333 9.133c-0.267 0-0.467 0.133-0.733 0.333l-1.067 1.067-0.4-0.267c-0.067 0-0.133-0.067-0.133-0.067-0.067 0-0.133-0.067-0.133-0.067-0.867-0.533-1.667-1.267-2.4-2.2-0.467-0.467-0.733-0.867-0.933-1.267l-0.067-0.267 0.2-0.2c0.067-0.067 0.2-0.133 0.333-0.267 0-0.067 0.067-0.067 0.133-0.133l0.333-0.333c0.067-0.067 0.067-0.067 0.067-0.067 0.467-0.467 0.467-1 0-1.467l-0.8-0.8c-0.067-0.067-0.133-0.133-0.267-0.267s-0.333-0.333-0.533-0.533c-0.2-0.2-0.467-0.333-0.667-0.333-0.267 0.067-0.533 0.133-0.733 0.333l-0.933 1c-0.333 0.333-0.467 0.667-0.533 1.067-0.067 0.667 0.067 1.267 0.333 2 0.467 1.2 1.133 2.333 2.133 3.467 1.2 1.467 2.667 2.6 4.333 3.4 0.867 0.4 1.6 0.667 2.333 0.667 0.067 0 0.133 0 0.133 0 0.533 0 1-0.2 1.333-0.6 0.133-0.133 0.2-0.2 0.333-0.333 0.067-0.067 0 0 0.2-0.2 0.133-0.133 0.267-0.2 0.333-0.333 0.2-0.2 0.333-0.467 0.333-0.733s-0.133-0.467-0.333-0.733l-1.533-1.533c-0.133-0.2-0.4-0.333-0.667-0.333v0zM12.733 13.333v0 0c0 0.067 0 0.067 0 0z"></path>
</symbol>
<symbol id="icon_location" viewBox="0 0 16 16">
<title>location</title>
<path stroke-width="0.6667" stroke-miterlimit="10" stroke-linecap="butt" stroke-linejoin="miter" d="M7.933 1c-2.733 0-4.933 2.267-4.933 5.067 0 3.467 4.4 8.533 4.6 8.8 0.133 0.2 0.4 0.2 0.6 0.067 0 0 0 0 0.067-0.067 0.2-0.2 4.6-5.333 4.6-8.8 0-2.8-2.2-5.067-4.933-5.067zM7.933 8.6c-1.4 0-2.467-1.133-2.467-2.533s1.133-2.533 2.467-2.533c1.4 0 2.467 1.133 2.467 2.533s-1.133 2.533-2.467 2.533v0z"></path>
</symbol>
<symbol id="icon_shop" viewBox="0 0 16 16">
<title>shop</title>
<path d="M15 6v-0.067c0 0 0 0 0 0l-1.467-3.667c-0.133-0.133-0.267-0.267-0.533-0.267h-9.533c-0.2 0-0.4 0.133-0.467 0.267l-1.533 3.6c0 0 0 0.067 0 0.067l-0.067 0.133c0 0 0 0.067 0 0.133-0.067 0.133-0.067 0.267-0.067 0.4 0 0.8 0.6 1.467 1.4 1.733v5.333c0 0.267 0.2 0.4 0.467 0.4h10.267c0.267 0 0.467-0.2 0.467-0.4v-5.4c0.667-0.333 1.2-0.933 1.2-1.667 0-0.133 0-0.267-0.067-0.4 0-0.067 0-0.133-0.067-0.2zM13.333 7.533c0 0 0 0 0 0-0.067 0-0.133 0-0.133 0-0.067 0-0.133 0-0.133 0-0.067 0-0.133 0-0.2 0s-0.133 0-0.133-0.067c0 0 0 0 0 0-0.4-0.133-0.667-0.467-0.667-0.8v0-0.067c0-0.267-0.2-0.4-0.467-0.4s-0.467 0.2-0.467 0.4c0 0 0 0.067 0 0.067v0c-0.067 0.4-0.333 0.667-0.733 0.8 0 0 0 0 0 0-0.133 0.067-0.267 0.067-0.4 0.067-0.067 0-0.133 0-0.2 0s-0.133 0-0.133-0.067c0 0 0 0 0 0-0.4-0.133-0.667-0.467-0.733-0.8v0c0 0 0 0 0-0.067 0-0.267-0.2-0.4-0.467-0.4s-0.467 0.2-0.467 0.4c0 0 0 0.067 0 0.067v0c-0.067 0.4-0.333 0.667-0.667 0.8 0 0 0 0 0 0-0.133 0.067-0.267 0.067-0.4 0.067-0.067 0-0.133 0-0.2 0s-0.133 0-0.2-0.067c0 0 0 0 0 0-0.4-0.133-0.667-0.467-0.733-0.8v0-0.067c0-0.267-0.2-0.4-0.467-0.4s-0.467 0.2-0.467 0.4c0 0 0 0.067 0 0.067v0c-0.067 0.4-0.333 0.667-0.733 0.8 0 0 0 0 0 0-0.067 0-0.133 0-0.133 0.067-0.067 0-0.133 0-0.2 0s-0.067 0-0.133 0c0 0 0 0-0.067 0h-0.4c-0.533-0.067-0.933-0.467-0.933-0.933 0-0.067 0-0.133 0.067-0.267 0 0 0 0 0-0.067l1.4-3.467h8.933l1.4 3.4c0 0 0 0 0 0v0.067c0 0 0 0 0 0.067s0.067 0.2 0.067 0.267c0 0.467-0.333 0.867-0.8 0.933zM13 13.2h-9.333v-4.8c0 0 0.067 0 0.067 0 0.467-0.067 0.933-0.267 1.267-0.6 0.4 0.4 0.933 0.667 1.6 0.667s1.2-0.267 1.6-0.667c0.4 0.4 0.933 0.667 1.6 0.667s1.2-0.267 1.6-0.667c0.267 0.267 0.667 0.467 1.067 0.6 0 0 0 0 0.067 0s0.067 0 0.133 0c0 0 0.067 0 0.067 0 0.067 0 0.067 0 0.133 0 0 0 0.067 0 0.067 0v4.8z"></path>
</symbol>
<symbol id="icon_share" viewBox="0 0 16 16">
<title>share</title>
<path d="M12 10.733c-0.533 0-0.933 0.2-1.333 0.533l-4.733-2.8c0.067-0.133 0.067-0.267 0.067-0.467 0-0.133 0-0.333-0.067-0.467l4.733-2.733c0.333 0.333 0.8 0.533 1.333 0.533 1.133 0 2-0.867 2-2s-0.867-2-2-2c0 0 0 0 0 0-1.133 0-2 0.867-2 2 0 0.133 0 0.333 0.067 0.467l-4.733 2.733c-0.333-0.333-0.8-0.533-1.333-0.533-1.133 0-2 0.867-2 2s0.867 2 2 2c0 0 0 0 0 0 0.533 0 1-0.2 1.333-0.533l4.733 2.8c-0.067 0.133-0.067 0.267-0.067 0.467 0 1.067 0.867 1.933 1.933 1.933s1.933-0.867 1.933-1.933c0.067-1.067-0.8-2-1.867-2z"></path>
</symbol>
<symbol id="icon_thumbsup" viewBox="0 0 16 16">
<title>thumbsup</title>
<path d="M5.8 8.133v5.733h6.133c0.733 0 1.667-0.667 2-2.067l0.533-3.133c0-1.067-0.933-1.933-2-1.933h-1.933c-0.2 0-0.4-0.2-0.4-0.4 0 0 0-0.067 0-0.067 0.133-0.733 0.2-1.533 0.2-2.267v-0.2c0-0.333 0-1.133-0.333-1.467-0.133-0.133-0.267-0.2-0.467-0.2-0.467 0-0.533 0.533-0.6 1.933-0.067 1.6-0.2 4.067-2.8 4.067 0 0-0.333 0-0.333 0zM11.933 14.667h-10.2c-0.2 0-0.4-0.2-0.4-0.4v-6.533c0-0.2 0.2-0.4 0.4-0.4h4.4c1.733 0 1.933-1.267 2-3.267 0-1.267 0.067-2.733 1.4-2.733 0.467 0 0.8 0.133 1.067 0.4 0.6 0.6 0.6 1.6 0.6 2.067v0.067c0 0.8-0.067 1.533-0.133 2h1.4c1.533 0 2.8 1.267 2.8 2.8 0 0 0 0.067 0 0.067l-0.533 3.2c-0.467 1.867-1.733 2.733-2.8 2.733v0zM2.133 13.867h2.8v-5.733h-2.8v5.733z"></path>
</symbol>
<symbol id="icon_download" viewBox="0 0 16 16">
<title>download</title>
<path d="M7.2 9.6v-7.8c0-0.267 0.2-0.467 0.467-0.467s0.467 0.2 0.467 0.467v7.8l3.6-3.733c0.133-0.2 0.467-0.2 0.667-0.067s0.2 0.467 0.067 0.667c0 0 0 0 0 0.067l-4.467 4.467c-0.2 0.2-0.467 0.2-0.667 0 0 0 0 0 0 0l-4.4-4.533c-0.133-0.2-0.133-0.467 0.067-0.6s0.467-0.133 0.6 0l3.6 3.733zM13.067 9.667c0-0.267 0.2-0.467 0.467-0.467s0.4 0.2 0.467 0.467v4c0 0.267-0.2 0.467-0.467 0.467v0h-11.733c-0.267 0-0.467-0.2-0.467-0.467v-4c0-0.267 0.2-0.467 0.467-0.467s0.4 0.2 0.467 0.467v3.533h10.867c-0.067 0-0.067-3.533-0.067-3.533z"></path>
</symbol>
<symbol id="icon_close" viewBox="0 0 16 16">
<title>close</title>
<path d="M12.667 4.267l-0.933-0.933-3.733 3.733-3.733-3.733-0.933 0.933 3.733 3.733-3.733 3.733 0.933 0.933 3.733-3.733 3.733 3.733 0.933-0.933-3.733-3.733 3.733-3.733z"></path>
</symbol>
<symbol id="icon_trash" viewBox="0 0 16 16">
<title>trash</title>
<path d="M13.467 3.267h-2.8v-0.467c0-0.8-0.667-1.467-1.467-1.467h-2.667c-0.733 0-1.4 0.667-1.4 1.467v0.467h-2.733c-0.2 0-0.4 0.133-0.4 0.333 0 0 0 0 0 0 0 0.2 0.133 0.4 0.4 0.4h0.667v8.667c0 1.067 0.867 2 2 2h5.8c1.067 0 2-0.867 2-2v-8.667h0.667c0.2 0 0.4-0.133 0.4-0.4 0 0 0 0 0 0-0.067-0.2-0.267-0.333-0.467-0.333 0 0 0 0 0 0zM5.867 2.8c0-0.4 0.333-0.733 0.733-0.733h2.667c0.4 0 0.733 0.333 0.733 0.733v0.467h-4.133v-0.467zM12.067 12.667c0 0.667-0.533 1.267-1.267 1.267h-5.8c-0.667 0-1.267-0.533-1.267-1.267v-8.667h8.333v8.667zM7.933 12.6c0.2 0 0.4-0.133 0.4-0.4 0 0 0 0 0 0v-6.533c0-0.2-0.133-0.4-0.4-0.4 0 0 0 0 0 0-0.2 0-0.4 0.133-0.4 0.4 0 0 0 0 0 0v6.533c0 0.2 0.2 0.4 0.4 0.4v0zM5.533 12.2c0.2 0 0.4-0.133 0.4-0.4 0 0 0 0 0 0v-5.733c0-0.2-0.133-0.4-0.4-0.4 0 0 0 0 0 0-0.2 0.067-0.4 0.2-0.4 0.4 0 0 0 0 0 0v5.733c0 0.2 0.2 0.4 0.4 0.4zM10.333 12.2c0.2 0 0.4-0.133 0.4-0.333 0 0 0 0 0 0v-5.8c0-0.2-0.133-0.4-0.4-0.4 0 0 0 0 0 0-0.2 0-0.4 0.133-0.4 0.4 0 0 0 0 0 0v5.733c0.067 0.2 0.2 0.4 0.4 0.4z"></path>
</symbol>
<symbol id="icon_video" viewBox="0 0 16 16">
<title>video</title>
<path d="M7.933 15.6c-4.2 0-7.667-3.4-7.667-7.667 0-4.2 3.4-7.667 7.667-7.667s7.667 3.4 7.667 7.667-3.467 7.667-7.667 7.667zM7.933 14.8c3.8 0 6.867-3.067 6.867-6.867s-3.067-6.867-6.867-6.867-6.867 3.067-6.867 6.867 3.067 6.867 6.867 6.867zM10.333 8l-4 2.333v-4.667l4 2.333z"></path>
</symbol>
<symbol id="icon_comment" viewBox="0 0 16 16">
<title>comment</title>
<path d="M4.333 11.6h-2.667c-0.267 0-0.467-0.2-0.467-0.467v-8.8c0-0.267 0.2-0.467 0.467-0.467h12.6c0.267 0 0.467 0.2 0.467 0.467v8.733c0 0.267-0.2 0.467-0.467 0.467h-6.733l-2.333 2.467c-0.333 0.333-0.8 0.067-0.8-0.333l-0.067-2.067zM7.333 10.667h6.733v-8.067h-12.133v8.067h2.933c0.133 0 0.2 0.067 0.2 0.2v1.933l2.133-2.067c0-0.067 0.067-0.067 0.133-0.067z"></path>
</symbol>
<symbol id="icon_home" viewBox="0 0 16 16">
<title>home</title>
<path d="M1.2 9.133h1.2v4.8c0 0.267 0.2 0.533 0.533 0.533h3.467c0.267 0 0.533-0.2 0.533-0.533v-3.467h2.133v3.467c0 0.267 0.2 0.533 0.533 0.533h3.333c0.267 0 0.533-0.2 0.533-0.533v-4.8h1.467c0.2 0 0.4-0.133 0.467-0.333s0.067-0.4-0.133-0.533l-6.667-6.733c-0.2-0.2-0.533-0.2-0.733 0l-7.067 6.733c-0.133 0.133-0.2 0.4-0.133 0.533 0.133 0.2 0.267 0.333 0.533 0.333zM8.133 2.6l5.467 5.533h-0.733c-0.267 0-0.533 0.2-0.533 0.533v4.8h-2.333v-3.467c0-0.267-0.2-0.533-0.533-0.533h-3.067c-0.267 0-0.533 0.2-0.533 0.533v3.467h-2.467v-4.8c0-0.267-0.2-0.533-0.533-0.533h-0.4l5.667-5.533z"></path>
</symbol>
<symbol id="icon_mobile" viewBox="0 0 16 16">
<title>mobile</title>
<path d="M10.8 16c0 0 1.667 0 1.667-1.667v-12.667c0-1.667-1.667-1.667-1.667-1.667h-5.8c0 0-1.667 0-1.667 1.667v12.667c0 1.667 1.667 1.667 1.667 1.667h5.8zM7.867 15.333c-0.467 0-0.8-0.4-0.8-0.8 0-0.467 0.4-0.8 0.8-0.8 0 0 0 0 0 0 0.467 0 0.8 0.4 0.8 0.8 0.067 0.4-0.333 0.8-0.8 0.8zM6.667 1c0-0.133 0.067-0.2 0.133-0.2h2.267c0.067 0 0.133 0.067 0.133 0.2v0.067c0 0.133-0.067 0.2-0.133 0.2h-2.267c-0.067 0-0.133-0.133-0.133-0.267v0zM4.133 2.067h7.467v11h-7.467v-11z"></path>
</symbol>
<symbol id="icon_pencial" viewBox="0 0 16 16">
<title>pencial</title>
<path d="M14.8 2.533l-1.267-1.267c-0.4-0.4-0.867-0.6-1.333-0.6s-0.933 0.2-1.267 0.533l-7.867 7.867c-0.333 0.333-1.467 1.733-1.467 2.2l-0.933 4.067 4.067-0.933c0 0 1.867-1.067 2.2-1.467l7.867-7.867c0.733-0.667 0.733-1.867 0-2.533v0zM4.4 13.533l-2.467 0.533 0.6-2.6c0-0.067 0-0.067 0-0.133 0 0 0 0 0 0l2.067 2.067-0.2 0.133zM6.267 12.333c-0.133 0.067-0.467 0.333-0.933 0.6l-2.4-2.4c0.267-0.333 0.533-0.667 0.667-0.867l5.933-5.933 2.6 2.6-5.867 6zM14.133 4.467l-1.267 1.267-2.6-2.6 1.267-1.267c0.2-0.2 0.4-0.267 0.667-0.267s0.467 0.067 0.667 0.267l1.267 1.267c0.2 0.2 0.267 0.4 0.267 0.667s-0.067 0.467-0.267 0.667v0z"></path>
</symbol>
<symbol id="icon_email" viewBox="0 0 16 16">
<title>email</title>
<path d="M13.533 2.667h-11.067c-1 0-1.8 0.8-1.8 1.8v7.6c0 1 0.8 1.8 1.8 1.8h11.067c1 0 1.8-0.8 1.8-1.8v-7.6c0-1-0.8-1.8-1.8-1.8 0 0 0 0 0 0zM14.533 12.067c0 0.533-0.467 1-1 1h-11.067c-0.533 0-1-0.467-1-1v-7.6c0-0.533 0.467-1 1-1h11.067c0.533 0 1 0.467 1 1v7.6zM9.933 8.133l3.6-3.2c0.2-0.133 0.2-0.4 0-0.6-0.133-0.2-0.4-0.2-0.6 0l-4.933 4.4-0.933-0.867c0 0 0 0 0 0s-0.067-0.067-0.067-0.067l-3.933-3.467c-0.2-0.133-0.4-0.133-0.6 0 0 0 0 0 0 0-0.133 0.2-0.133 0.4 0 0.6 0 0 0 0 0 0l3.6 3.267-3.6 3.4c-0.133 0.133-0.133 0.4 0 0.6 0.133 0.133 0.4 0.133 0.533 0l3.667-3.4 1 0.867c0.133 0.133 0.4 0.133 0.533 0l1-0.933 3.667 3.467c0.133 0.133 0.4 0.133 0.6 0 0.133-0.133 0.133-0.4 0-0.6l-3.533-3.467z"></path>
</symbol>
<symbol id="icon_landmark" viewBox="0 0 16 16">
<title>landmark</title>
<path d="M12.4 12.867c0 0-0.933-0.667-1.667-2.267h0.4v-0.8h-0.733c-0.133-0.4-0.267-0.8-0.4-1.267-0.067-0.133-0.067-0.333-0.133-0.467h0.467v-0.8h-0.6c-0.133-0.8-0.267-1.667-0.267-2.533h0.333v-0.733h-0.4c0-0.4 0-0.867 0-1.267v-0.4h-0.733v-1h-0.8v1h-0.733v0.4c0 0 0 0.467 0 1.267h-0.4v0.8h0.333c-0.067 0.867-0.133 1.667-0.267 2.533h-0.6v0.8h0.467c0 0.133-0.067 0.333-0.133 0.467-0.133 0.467-0.2 0.867-0.4 1.267h-0.667v0.8h0.4c-0.2 0.467-0.467 0.867-0.733 1.267-0.533 0.667-0.933 1-0.933 1h-0.2v1.733h3.4v-1.4c0-0.467 0.4-0.867 0.867-0.867s0.867 0.4 0.867 0.867v1.4h3.4v-1.733l-0.133-0.067zM7.933 3.067h0.6c0 0.2 0 0.533 0 0.867h-0.667c0.067-0.333 0.067-0.6 0.067-0.867zM7.933 4.733h0.733c0.067 0.667 0.133 1.533 0.267 2.467h-1.333c0.2-0.867 0.267-1.733 0.333-2.467v0zM7.333 8.667c0.067-0.2 0.067-0.4 0.133-0.667h1.6c0.067 0.2 0.067 0.4 0.133 0.667 0.067 0.4 0.2 0.8 0.333 1.133h-2.533c0.133-0.333 0.267-0.733 0.333-1.133v0zM6.667 13.867h-1.867v-0.533h1.867v0.533zM8.267 11.667c-0.667 0-1.2 0.4-1.467 0.933h-1.333c0.467-0.6 0.867-1.267 1.2-2h3.133c0.333 0.733 0.733 1.4 1.2 2h-1.333c-0.2-0.6-0.8-0.933-1.4-0.933zM11.733 13.867h-1.867v-0.533h1.867v0.533z"></path>
</symbol>
<symbol id="icon_hotarea" viewBox="0 0 16 16">
<title>hotarea</title>
<path d="M12.733 3.267c-1.267-1.267-2.933-1.933-4.733-1.933s-3.467 0.667-4.733 1.933c-1.267 1.267-1.933 2.933-1.933 4.733s0.667 3.467 1.933 4.733c1.267 1.267 2.933 1.933 4.733 1.933s3.467-0.667 4.733-1.933c1.267-1.267 1.933-2.933 1.933-4.733s-0.667-3.467-1.933-4.733zM8 13.8c-3.2 0-5.8-2.6-5.8-5.8s2.6-5.8 5.8-5.8c1.4 0 2.733 0.533 3.733 1.4l-1.6 1.6c-0.6-0.467-1.4-0.733-2.2-0.733-1.933 0-3.533 1.6-3.533 3.533s1.6 3.533 3.533 3.533c1.933 0 3.533-1.6 3.533-3.533 0-0.8-0.267-1.6-0.733-2.2l1.6-1.6c0.867 1.067 1.4 2.4 1.4 3.733 0.067 3.267-2.533 5.867-5.733 5.867zM7.667 8.333c0.2 0.2 0.467 0.2 0.6 0 0 0 0 0 0 0l1.867-1.867c0.333 0.467 0.467 1 0.467 1.533 0 1.467-1.2 2.667-2.667 2.667s-2.667-1.2-2.667-2.667 1.2-2.667 2.667-2.667c0.6 0 1.133 0.2 1.533 0.467l-1.867 1.867c-0.067 0.2-0.067 0.467 0.067 0.667v0z"></path>
</symbol>
<symbol id="icon_setting" viewBox="0 0 16 16">
<title>setting</title>
<path d="M14.6 6.467l-1-0.2c-0.133-0.333-0.267-0.667-0.4-1l0.6-0.867c0.267-0.333 0.2-0.867-0.067-1.2l-0.933-0.933c-0.333-0.333-0.8-0.333-1.133-0.067l-0.867 0.6c-0.333-0.2-0.667-0.333-1.067-0.4l-0.2-1c-0.067-0.4-0.467-0.733-0.933-0.733h-1.267c-0.467 0-0.8 0.333-0.867 0.733l-0.2 1.067c-0.333 0.133-0.667 0.267-1 0.4l-0.867-0.6c-0.133-0.067-0.333-0.133-0.533-0.133-0.267 0-0.467 0.067-0.667 0.267l-0.867 0.867c-0.333 0.333-0.333 0.8-0.067 1.2l0.6 0.867c-0.2 0.333-0.333 0.667-0.4 1l-1.067 0.133c-0.4 0.067-0.733 0.467-0.733 0.933v1.267c0 0.467 0.333 0.8 0.733 0.867l1.067 0.2c0.133 0.333 0.267 0.667 0.4 1l-0.6 0.867c-0.267 0.333-0.2 0.867 0.067 1.2l0.933 0.933c0.333 0.267 0.8 0.267 1.2 0l0.867-0.6c0.333 0.133 0.667 0.267 1 0.4l0.2 1c0 0.467 0.4 0.8 0.8 0.8h1.333c0.467 0 0.8-0.333 0.867-0.733l0.2-1c0.333-0.133 0.667-0.267 1-0.4l0.867 0.6c0.133 0.133 0.333 0.2 0.533 0.2 0.267 0 0.467-0.067 0.667-0.267l0.933-0.933c0.333-0.333 0.333-0.8 0.067-1.2l-0.6-0.867c0.2-0.333 0.333-0.667 0.4-1l1-0.2c0.467-0.067 0.733-0.467 0.733-0.867v-1.333c0-0.4-0.333-0.8-0.733-0.867v0zM14.533 8.667c0 0.067 0 0.067-0.067 0.067l-1.267 0.2c-0.133 0-0.267 0.133-0.333 0.333-0.133 0.467-0.267 0.867-0.533 1.267-0.067 0.133-0.067 0.333 0 0.467l0.733 1.067c0 0 0 0.067 0 0.133l-0.933 0.933c0 0-0.067 0-0.067 0s0 0-0.067 0l-1.067-0.733c-0.133-0.067-0.333-0.133-0.467 0-0.4 0.267-0.8 0.4-1.267 0.533-0.133 0.067-0.267 0.2-0.333 0.333l-0.2 1.267c0 0.067-0.067 0.067-0.067 0.067h-1.267c-0.067 0-0.067 0-0.067-0.067l-0.2-1.267c0-0.133-0.133-0.267-0.333-0.333-0.467-0.133-0.867-0.267-1.267-0.533-0.067-0.067-0.133-0.067-0.2-0.067s-0.2 0-0.267 0.067l-1 0.667c0 0 0 0-0.067 0 0 0-0.067 0-0.067 0l-0.933-0.933c0 0 0-0.067 0-0.133l0.733-1.067c0.067-0.133 0.133-0.333 0-0.467-0.267-0.4-0.4-0.8-0.533-1.267-0.067-0.133-0.2-0.267-0.333-0.333l-1.267-0.2c-0.067 0-0.067-0.067-0.067-0.067v-1.267c0-0.067 0-0.067 0.067-0.067l1.267-0.2c0.133 0 0.267-0.133 0.333-0.333 0.133-0.467 0.267-0.867 0.533-1.267 0.067-0.133 0.067-0.333 0-0.467l-0.733-1c0 0 0-0.067 0-0.133l0.933-0.933c0 0 0.067 0 0.067 0s0.067 0 0.067 0l1.067 0.733c0.133 0.067 0.333 0.133 0.467 0 0.333-0.2 0.733-0.333 1.2-0.467 0.133-0.067 0.267-0.2 0.333-0.333l0.2-1.267c0-0.067 0.067-0.067 0.067-0.067h1.267c0.067 0 0.067 0 0.067 0.067l0.2 1.267c0 0.133 0.133 0.267 0.333 0.333 0.467 0.133 0.933 0.267 1.333 0.533 0.133 0.067 0.333 0.067 0.467 0l1.067-0.733c0 0 0 0 0.067 0 0 0 0.067 0 0.067 0l0.933 0.933c0 0 0 0.067 0 0.133l-0.733 1.067c-0.067 0.133-0.133 0.333 0 0.467 0.267 0.4 0.4 0.8 0.533 1.267 0.067 0.133 0.2 0.267 0.333 0.333l1.267 0.2c0.067 0 0.067 0.067 0.067 0.067l-0.067 1.2c0 0 0 0 0 0z"></path>
<path d="M8 4.8c-1.733 0-3.133 1.4-3.133 3.133s1.4 3.133 3.133 3.133c1.733 0 3.133-1.4 3.133-3.133 0-1.667-1.4-3.133-3.133-3.133zM8 10.333c-1.267 0-2.333-1.067-2.333-2.333s1.067-2.333 2.333-2.333c1.267 0 2.333 1.067 2.333 2.333s-1.067 2.333-2.333 2.333v0z"></path>
</symbol>
<symbol id="icon_nocharge" viewBox="0 0 16 16">
<title>nocharge</title>
<path d="M8 1.333c-3.667 0-6.667 3-6.667 6.667s3 6.667 6.667 6.667 6.667-3 6.667-6.667-3-6.667-6.667-6.667zM2.867 6.2l3.4 1.533 1.067 0.467 0.8 0.333 0.667 0.267c0.133 0.133 0.2 0.267 0.2 0.4 0 0.267-0.067 0.4-0.267 0.533-0.133 0.133-0.333 0.133-0.6 0.133-0.533 0-1.067-0.2-1.467-0.6l-0.933 0.933c0.6 0.533 1.267 0.8 2 0.8v1h0.8v-1c0.467-0.067 0.867-0.2 1.2-0.467s0.533-0.6 0.667-1l2.467 1.133c-1 2.867-4.067 4.333-6.933 3.333s-4.333-4.067-3.333-6.933c0-0.333 0.133-0.6 0.267-0.867v0zM9.867 7.933l-1.067-0.467-0.6-0.267-0.867-0.4c0-0.067 0-0.133 0-0.2 0-0.2 0.067-0.333 0.267-0.4 0.133-0.067 0.333-0.133 0.533-0.133 0.4 0 0.8 0.133 1.133 0.4l0.867-0.867c-0.467-0.4-1.067-0.6-1.667-0.6v-1.067h-0.8v1c-0.4 0-0.8 0.133-1.067 0.333-0.333 0.267-0.533 0.533-0.6 0.933l-2.533-1.2c1.667-2.533 5-3.2 7.533-1.6 2 1.267 2.867 3.667 2.267 6l-3.4-1.467z"></path>
</symbol>
<symbol id="icon_delivery" viewBox="0 0 16 16">
<title>delivery</title>
<path d="M15.933 8.4v0l-2.333-2.733c-0.067-0.067-0.133-0.133-0.267-0.133h-2.067v-1.867c0-0.2-0.133-0.333-0.333-0.333h-10c-0.2 0-0.333 0.133-0.333 0.333v0 7h-0.267c-0.2 0-0.333 0.133-0.333 0.333s0.133 0.333 0.333 0.333h0.267v0.4c0 0.2 0.133 0.333 0.333 0.333h0.6c0.133 0.667 0.733 1.133 1.4 1.133s1.267-0.467 1.4-1.133h7.467c0.133 0.667 0.733 1.133 1.4 1.133s1.267-0.467 1.4-1.133h1c0.2 0 0.333-0.133 0.333-0.333 0 0 0 0 0 0v-3.067c0.067-0.133 0.067-0.2 0-0.267zM2.933 12.467c-0.467 0-0.8-0.333-0.8-0.8s0.333-0.8 0.8-0.8c0.467 0 0.8 0.333 0.8 0.8 0.067 0.467-0.333 0.8-0.8 0.8v0zM10.6 11.333h-6.2c-0.133-0.667-0.733-1.133-1.4-1.133s-1.267 0.467-1.4 1.133h-0.333v-1.4h9.4c-0.067 0-0.067 1.4-0.067 1.4zM10.6 9.333h-9.333v-5.333h9.4c-0.067 0-0.067 5.333-0.067 5.333zM13.6 6.733l1.4 1.6h-1.4v-1.6zM13.267 12.467c-0.467 0-0.8-0.333-0.8-0.8s0.333-0.8 0.8-0.8c0.467 0 0.8 0.333 0.8 0.8s-0.333 0.8-0.8 0.8zM15.333 11.333h-0.667c-0.133-0.667-0.733-1.133-1.4-1.133s-1.267 0.467-1.4 1.133h-0.6v-5.133h1.733v2.4c0 0.2 0.133 0.333 0.333 0.333h2v2.4z"></path>
</symbol>
<symbol id="icon_takeaway" viewBox="0 0 16 16">
<title>takeaway</title>
<path d="M2.733 4c0.133-0.2 0.4-0.267 0.6-0.2 0.067 0.067 0.133 0.133 0.2 0.2h0.067l-2 10.467h7.667l2.533-12.933h-9.333v1.267h8.133c0.267 0 0.467 0.2 0.467 0.4s-0.2 0.467-0.4 0.467c0 0 0 0-0.067 0h-8.533c-0.267 0-0.4-0.2-0.4-0.4v-2.2c-0.067-0.2 0.133-0.4 0.4-0.4h10.267c0.133 0 0.267 0.067 0.333 0.133 0 0.067 0 0.133 0.067 0.267l2.6 13.667c0 0.067 0.067 0.133 0.067 0.2s0 0.067 0 0.067c-0.067 0.2-0.2 0.333-0.4 0.333h-13.933c-0.2 0-0.333-0.133-0.4-0.4v-0.2l2.067-10.733h0.133v0.2h-0.133c0-0.067 0-0.133 0-0.2zM12.867 12.867l1.533 0.733-1.533-9v8.267zM12.133 12.867v-9.733l-2.267 11.267 2.267-1.533zM14.733 14.867l-2.2-1.333-2.2 1.333h4.4zM4.133 7.667c0 0-0.067 0-0.067 0.067l-0.4 2.067c0 0 0 0.067 0.067 0.067h5.133c0 0 0.067 0 0.067-0.067l0.4-2.067c0 0 0-0.067-0.067-0.067h-5.133zM10.067 7.6l-0.467 2.333c0 0.267-0.2 0.4-0.4 0.4h-5.867c-0.2 0-0.4-0.2-0.4-0.467l0.467-2.333c0-0.267 0.2-0.4 0.4-0.4h5.867c0.2 0 0.4 0.2 0.4 0.467z"></path>
</symbol>
<symbol id="icon_reserve" viewBox="0 0 16 16">
<title>reserve</title>
<path d="M14.667 10.867l-1-6.333c-0.067-0.267-0.267-0.4-0.533-0.4h-10.267c-0.267 0-0.467 0.2-0.533 0.4l-1 6.333c-0.067 0.267 0.133 0.533 0.4 0.6 0 0 0.067 0 0.067 0h12.333c0.267 0 0.533-0.2 0.533-0.533 0-0.067 0-0.067 0-0.067v0zM2.467 10.4l0.4-2.6 0.4 2.6h-0.8zM4.333 10.4l-0.867-5.267h9.2l0.867 5.267h-9.2zM11.6 7.267h-6.2c-0.267 0-0.533 0.267-0.467 0.533 0 0.267 0.2 0.467 0.467 0.467h6.133c0.267 0 0.533-0.267 0.467-0.533 0.067-0.267-0.133-0.467-0.4-0.467z"></path>
</symbol>
<symbol id="icon_booth" viewBox="0 0 16 16">
<title>booth</title>
<path d="M13.8 11.867v0c0.667 0 1.2-0.533 1.2-1.133v-2.933c0-0.267-0.2-0.467-0.467-0.467h-0.667c-0.2 0-0.4 0.2-0.4 0.467v2.067c0 0.267-0.2 0.533-0.533 0.533 0 0 0 0 0 0-0.267 0-0.467-0.133-0.467-0.4h-8.867c-0.067 0.267-0.267 0.467-0.533 0.467s-0.467-0.2-0.533-0.467c-0.267 0-0.4-0.2-0.4-0.333 0-0.2 0.2-0.333 0.4-0.333v-1.4c0-0.267-0.2-0.533-0.467-0.533h-0.533c-0.267 0-0.533 0.267-0.533 0.533v3.067c0 0 0 0.067 0 0.067 0.133 0.533 0.6 0.867 1.133 0.867h0.067c0.067-0.267 0.267-0.467 0.467-0.467 0.067 0 0.133 0 0.267 0.067 0.067-0.067 0.133-0.067 0.267-0.067 0.267 0 0.467 0.2 0.467 0.467h8.733c0.067-0.267 0.267-0.467 0.467-0.467 0.067 0 0.2 0 0.267 0.067 0.067-0.067 0.133-0.067 0.267-0.067 0.2-0.067 0.333 0.133 0.4 0.4zM13.8 12.867v0.2c0 0.333-0.2 0.533-0.467 0.533h-0.467c-0.267 0-0.467-0.267-0.467-0.533v-0.2h-8.733v0.2c0 0.333-0.2 0.533-0.467 0.533h-0.533c-0.267 0-0.467-0.267-0.467-0.533v-0.2h-0.067c-1.067 0-1.933-0.733-2.133-1.8 0-0.067 0-0.133 0-0.133v-3.067c0-0.8 0.667-1.467 1.467-1.533v-1.667c0-1.067 0.933-2 2.067-2h8.933c1.133 0 2.067 0.933 2.067 2v1.6c0.8 0 1.467 0.667 1.467 1.467v2.933c0 1.2-1 2.2-2.2 2.2v0 0zM3.667 9.2h8.867v-1.4c0-0.667 0.467-1.267 1.067-1.4v-1.733c0-0.533-0.467-1.067-1.067-1.067h-9c-0.6 0.067-1.067 0.533-1.067 1.067v1.667c0.667 0.133 1.2 0.8 1.2 1.533v1.333z"></path>
</symbol>
<symbol id="icon_motorparking" viewBox="0 0 16 16">
<title>motorparking</title>
<path d="M14.133 0.933h-2.867c-0.133 0-0.267 0.133-0.267 0.267v0.4l-1.067 0.8c-0.2-1-1.067-1.733-2.067-1.733s-1.867 0.733-2.067 1.667l-1.067-0.733v-0.4c0-0.133-0.133-0.267-0.267-0.267v0h-2.867c-0.133 0-0.267 0.133-0.267 0.267v1.067c0 0.133 0.133 0.267 0.267 0.267h2.867c0.133 0 0.267-0.133 0.267-0.267v0 0l0.867 0.6c-0.4 0.333-0.667 0.8-0.667 1.333l-0.333 6.133c0 0.467 0.133 0.933 0.467 1.267 0.267 0.267 0.667 0.467 1.067 0.467h0.267v1.733c0 0.867 0.733 1.6 1.6 1.6s1.6-0.733 1.6-1.6v-1.733h0.267c0.4 0 0.8-0.133 1.067-0.467 0.333-0.333 0.467-0.8 0.467-1.267l-0.333-6.133c0-0.533-0.267-1-0.667-1.333l0.867-0.6c0 0.133 0.133 0.267 0.267 0.267h2.867c0.133 0 0.267-0.133 0.267-0.267v-1.067c-0.267-0.133-0.333-0.267-0.533-0.267zM4.2 2h-2.333v-0.533h2.333v0.533zM8.4 1.267c0.6 0.2 1.067 0.8 1.067 1.467 0 0.867-0.733 1.6-1.6 1.6-0.6 0-1.133-0.333-1.4-0.867l1.933-2.2zM7.8 1.2l-1.467 1.667c0-0.067 0-0.067 0-0.133 0-0.8 0.6-1.467 1.467-1.533v0zM8.933 13.733c0 0.6-0.533 1-1.067 1s-1-0.467-1-1v-3.933c0-0.6 0.467-1.067 1.067-1.067s1.067 0.467 1.067 1.067c-0.067 0.067-0.067 3.933-0.067 3.933zM10.333 4.2l0.333 6.133c0 0.333-0.067 0.667-0.267 0.867s-0.4 0.267-0.667 0.267h-0.267v-1.667c0-0.867-0.733-1.6-1.6-1.6s-1.6 0.733-1.6 1.6v1.667h-0.2c-0.267 0-0.467-0.133-0.667-0.267-0.2-0.2-0.333-0.533-0.267-0.867l0.333-6.133c0-0.333 0.2-0.667 0.4-0.933 0.267 0.933 1.067 1.533 2 1.533s1.8-0.667 2-1.533c0.267 0.267 0.467 0.6 0.467 0.933zM13.933 2h-2.333v-0.533h2.333v0.533z"></path>
</symbol>
<symbol id="icon_tax" viewBox="0 0 16 16">
<title>tax</title>
<path d="M11.2 6.6v-6.067c0-0.267-0.2-0.533-0.533-0.533 0 0 0 0 0 0h-9.467c-0.267 0-0.533 0.267-0.533 0.533v14.2c0 0.267 0.267 0.533 0.533 0.533h7.733c0.6 0.267 1.267 0.467 2 0.467 2.533 0 4.533-2.067 4.533-4.533s-1.867-4.467-4.267-4.6v0zM1.733 1.067h8.4v5.6c-2.133 0.4-3.733 2.267-3.733 4.467 0 1.133 0.4 2.2 1.133 3h-5.733l-0.067-13.067zM10.933 14.667c-1.933 0-3.467-1.533-3.467-3.467s1.533-3.467 3.467-3.467c1.933 0 3.467 1.533 3.467 3.467 0 1.867-1.533 3.4-3.467 3.467v0z"></path>
<path d="M12.533 9.6c-0.2-0.2-0.533-0.2-0.733 0 0 0 0 0 0 0l-2.333 2.333c-0.2 0.2-0.2 0.533 0 0.733s0.533 0.2 0.733 0l2.333-2.333c0.2-0.2 0.2-0.533 0-0.733 0 0 0 0 0 0v0zM9.733 10.533c0.133 0 0.267-0.067 0.4-0.133 0.2-0.2 0.2-0.533 0-0.733-0.133-0.067-0.267-0.133-0.4-0.133s-0.267 0.067-0.4 0.133c-0.067 0.133-0.133 0.267-0.133 0.4s0.067 0.267 0.133 0.4c0.133 0 0.267 0.067 0.4 0.067zM12.133 11.8c-0.267 0-0.533 0.267-0.533 0.533 0 0.133 0.067 0.267 0.133 0.4 0.133 0.067 0.267 0.133 0.4 0.133s0.267-0.067 0.4-0.133c0.133-0.133 0.133-0.267 0.133-0.4s-0.067-0.267-0.133-0.4c-0.133-0.067-0.267-0.133-0.4-0.133zM4.067 3.933h3.8c0.267 0 0.533-0.267 0.533-0.533s-0.267-0.533-0.533-0.533h-3.8c-0.267 0-0.533 0.267-0.533 0.533s0.267 0.533 0.533 0.533zM4.067 6.733h3.8c0.267 0 0.533-0.267 0.533-0.533s-0.267-0.533-0.533-0.533h-3.8c-0.267 0-0.533 0.267-0.533 0.533 0 0.333 0.267 0.533 0.533 0.533v0zM5 8.533h-0.933c-0.267 0-0.533 0.267-0.533 0.533s0.267 0.533 0.533 0.533h0.933c0.267 0 0.533-0.267 0.533-0.533 0-0.333-0.2-0.533-0.533-0.533z"></path>
</symbol>
<symbol id="icon_ac" viewBox="0 0 16 16">
<title>ac</title>
<path d="M14.6 1.333h-13.2c-0.4 0-0.733 0.333-0.733 0.867v6.6c0 0.467 0.333 0.867 0.733 0.867h13.2c0.4 0 0.733-0.333 0.733-0.867v-6.6c0-0.533-0.333-0.867-0.733-0.867zM14.6 9.067h-13.2c-0.133 0-0.267-0.133-0.267-0.267v-6.6c0-0.2 0.133-0.267 0.267-0.267h13.2c0.133 0 0.267 0.133 0.267 0.267v6.6c0 0.133-0.133 0.267-0.267 0.267z"></path>
<path d="M7.267 3.867c-0.133 0-0.267-0.133-0.267-0.333s0.133-0.333 0.267-0.333h2.067c0.133 0 0.267 0.133 0.267 0.333s-0.133 0.333-0.267 0.333h-2.067zM14.467 7.067c0.133 0 0.267 0.133 0.267 0.333s-0.067 0.333-0.267 0.333h-12.267c-0.133 0-0.267-0.133-0.267-0.333s0.067-0.333 0.267-0.333h12.267zM14.467 5.8c0.133 0 0.267 0.133 0.267 0.333s-0.067 0.333-0.267 0.333h-12.267c-0.133 0-0.267-0.133-0.267-0.333s0.067-0.333 0.267-0.333h12.267zM7.8 12.267c0.333 0.2 0.533 0.533 0.533 0.933 0 0.333-0.2 0.667-0.533 0.933-0.067 0-0.067 0-0.133 0s-0.133-0.067-0.2-0.133c-0.067-0.133 0-0.267 0.067-0.333 0.2-0.133 0.333-0.267 0.333-0.4s-0.133-0.267-0.333-0.4-0.533-0.6-0.533-0.933c0-0.333 0.2-0.667 0.533-0.933 0.133-0.067 0.267 0 0.267 0.133 0.067 0.133 0 0.267-0.067 0.333-0.2 0.133-0.267 0.333-0.267 0.467 0 0.067 0.133 0.2 0.333 0.333zM4.6 12.267c0.333 0.2 0.533 0.533 0.533 0.933 0 0.333-0.2 0.667-0.533 0.933-0.067 0-0.067 0-0.133 0s-0.133-0.067-0.2-0.133c-0.067-0.133 0-0.267 0.067-0.333 0.2-0.133 0.333-0.267 0.333-0.4s-0.133-0.267-0.333-0.4-0.533-0.6-0.533-0.933c0-0.333 0.2-0.667 0.533-0.933 0.133-0.067 0.2 0 0.267 0.133s0 0.267-0.067 0.333c-0.2 0.133-0.267 0.333-0.267 0.467 0 0.067 0.133 0.2 0.333 0.333zM11 12.267c0.333 0.2 0.533 0.533 0.533 0.933 0 0.333-0.2 0.667-0.533 0.933-0.067 0-0.067 0-0.133 0s-0.133-0.067-0.2-0.133c-0.067-0.133 0-0.267 0.067-0.333 0.2-0.133 0.333-0.267 0.333-0.4s-0.133-0.267-0.333-0.4-0.533-0.6-0.533-0.933c0-0.333 0.2-0.667 0.533-0.933 0.133-0.067 0.267 0 0.267 0.133 0.067 0.133 0 0.267-0.067 0.333-0.2 0.133-0.267 0.333-0.267 0.467 0 0.067 0.067 0.2 0.333 0.333z"></path>
</symbol>
<symbol id="icon_wifi" viewBox="0 0 16 16">
<title>wifi</title>
<path d="M14.533 5.4c0.067 0.067 0.133 0.2 0.133 0.333s-0.067 0.267-0.133 0.333l-0.733 0.733c-0.2 0.2-0.533 0.2-0.733 0 0 0 0 0 0 0-1.333-1.333-3.2-2.133-5.067-2.133-2 0-3.8 0.8-5.067 2.133-0.2 0.2-0.533 0.2-0.733 0 0 0 0 0 0 0l-0.733-0.667c-0.067-0.133-0.133-0.267-0.133-0.4s0.067-0.267 0.133-0.333c1.667-1.733 4-2.733 6.533-2.733s4.8 1 6.533 2.733zM8 6.8c1.467 0 2.667 0.533 3.6 1.467 0.2 0.2 0.2 0.533 0 0.733 0 0 0 0 0 0l-0.733 0.733c-0.2 0.2-0.533 0.2-0.733 0 0 0 0 0 0 0-0.533-0.533-1.333-0.867-2.133-0.867s-1.6 0.333-2.133 0.867c-0.2 0.2-0.533 0.2-0.733 0 0 0 0 0 0 0l-0.733-0.733c-0.2-0.2-0.2-0.533 0-0.733 0 0 0 0 0 0 0.933-1 2.267-1.533 3.6-1.467zM8 12.933c-0.533 0-1-0.467-1-1s0.467-1 1-1c0.533 0 1 0.467 1 1s-0.467 1-1 1v0z"></path>
</symbol>
<symbol id="icon_creditcard" viewBox="0 0 16 16">
<title>creditcard</title>
<path d="M15 2.333c-0.267-0.2-0.533-0.333-0.867-0.333h-12.267c-0.333 0-0.667 0.133-0.867 0.333-0.2 0.267-0.333 0.533-0.333 0.867v9.267c0 0.333 0.133 0.6 0.333 0.867 0.267 0.267 0.533 0.333 0.867 0.333h12.2c0.333 0 0.667-0.133 0.867-0.333 0.267-0.2 0.333-0.533 0.333-0.867v-9.267c0.067-0.333-0.067-0.6-0.267-0.867zM14.333 12.467c0 0.067 0 0.133-0.067 0.2 0 0-0.067 0-0.133 0h-12.267c-0.067 0-0.133 0-0.2-0.067s-0.067-0.133-0.067-0.2v-4.6h12.733c0 0.067 0 4.667 0 4.667zM14.333 4.933h-12.667v-1.733c0-0.067 0-0.133 0.067-0.2s0.133-0.067 0.2-0.067h12.2c0.067 0 0.133 0 0.2 0.067s0.067 0.133 0.067 0.2l-0.067 1.733zM2.667 10.667h2v1h-2v-1zM5.667 10.667h3v1h-3v-1z"></path>
</symbol>
<symbol id="icon_group" viewBox="0 0 16 16">
<title>group</title>
<path d="M15.333 11.133c0-0.867-0.267-1.667-0.733-2.4-0.333-0.533-0.8-0.933-1.333-1.267 0.667-0.6 1-1.467 1-2.333 0-1.733-1.4-3.2-3.2-3.2-1.067 0-2 0.533-2.6 1.333-0.333-0.067-0.6-0.067-0.933 0-0.6-0.867-1.6-1.333-2.6-1.333-1.8 0.067-3.2 1.533-3.2 3.267 0 0.933 0.4 1.733 1 2.333-0.533 0.333-1 0.733-1.333 1.267-0.467 0.667-0.733 1.533-0.733 2.333v1.8h3.067v1.333h8.533v-1.333h3.067v-1.8zM11.067 2.8c1.333 0 2.4 1.067 2.4 2.4s-1.067 2.4-2.4 2.4c0 0-0.067 0-0.067 0v0c0.067-0.133 0.067-0.267 0.133-0.333v0-0.133c0-0.133 0-0.2 0.067-0.333v-0.067c0-0.067 0-0.067 0-0.133v0 0c0-0.067 0-0.067 0-0.133v-0.067c0-0.067 0-0.067 0-0.133v0c-0.133-1.133-0.867-2.133-1.867-2.6 0.4-0.533 1.067-0.867 1.733-0.867v0zM7.133 4.267v0c0.133-0.067 0.2-0.067 0.267-0.067 0.467-0.133 0.933-0.067 1.4 0.067v0c0.867 0.333 1.467 1.067 1.533 2v0.2c0 0.067 0 0.067 0 0.133v0c0 0.067 0 0.133 0 0.2v0.067c0 0 0 0.067 0 0.067v0.067c0 0.067-0.067 0.2-0.067 0.267v0.133c0 0 0 0 0 0.067v0.2c0 0 0 0.067 0 0.067v0 0c0 0 0 0.067-0.067 0.067v0 0c0 0 0 0.067-0.067 0.067v0c0 0 0 0.067-0.067 0.067v0.133c0 0.067-0.067 0.067-0.133 0.133v0l-0.067 0.067c0 0-0.067 0.067-0.067 0.067l-0.067 0.067c-0.067 0.067-0.067 0.067-0.133 0.133v0c-0.4 0.267-0.867 0.467-1.4 0.467s-1-0.133-1.4-0.467v0c-0.067-0.067-0.067-0.067-0.133-0.133v0c0 0 0 0-0.067-0.067 0 0-0.067-0.067-0.067-0.067v0l-0.067-0.067c-0.067-0.067-0.067-0.067-0.133-0.133v-0.067c0 0 0 0 0-0.067 0 0 0-0.067-0.067-0.067v0c0 0 0-0.067-0.067-0.067v0c0 0 0-0.067-0.067-0.067v0 0c0 0 0-0.067 0-0.067v-0.067c0 0 0-0.067 0-0.067v-0.067c0 0 0 0 0-0.067v-0.067c0 0 0-0.067 0-0.067v-0.067c0 0 0 0 0-0.067v-0.067c0 0 0-0.067 0-0.067v-0.067c0 0 0-0.067 0-0.067v-0.067c0-0.133 0-0.267 0-0.333 0 0 0 0 0 0s0-0.067 0-0.067v0c0 0 0-0.067 0-0.067v0c-0.4-1 0.2-1.733 1-2.067v0zM2.533 5.2c0-1.333 1.067-2.4 2.4-2.4 0.667 0 1.333 0.267 1.8 0.8-1.067 0.467-1.8 1.467-1.933 2.6v0c0 0.067 0 0.067 0 0.133v0.067c0 0.067 0 0.2 0 0.267v0.067c0 0.133 0 0.2 0.067 0.333v0.133c0 0.133 0.067 0.267 0.133 0.333v0c-1.333 0.133-2.467-0.933-2.467-2.333 0 0.067 0 0 0 0v0zM4.4 10.2v0c-0.067 0.067-0.067 0.067-0.067 0.133v0.067c-0.067 0.133-0.133 0.267-0.2 0.333v0.067c0 0.067 0 0.067-0.067 0.133v0l-0.067 0.133c0 0.067 0 0.067-0.067 0.133v0.067c-0.067 0.133-0.067 0.267-0.067 0.4v0.067c0 0 0 0.067 0 0.067v0.067c0 0.067 0 0.067 0 0.133v0c0 0.067 0 0.067 0 0.133h-2.4v-1c0-1.333 0.8-2.533 2-3.133 0.6 0.333 1.267 0.4 1.933 0.333 0 0.067 0.067 0.067 0.067 0.133v0.067c0 0 0.067 0.067 0.067 0.067s0 0 0.067 0.067 0.133 0.133 0.2 0.2v0c-0.067 0-0.067 0.067-0.133 0.067v0c-0.067 0.067-0.133 0.067-0.2 0.133v0c-0.067 0-0.067 0.067-0.133 0.067v0c-0.067 0.067-0.133 0.133-0.2 0.2v0c-0.067 0-0.067 0.067-0.067 0.067v0c0 0-0.067 0.067-0.067 0.067v0c0 0-0.067 0.067-0.067 0.067v0l-0.267 0.333c0 0-0.067 0.067-0.067 0.067v0c-0.067 0.133-0.133 0.2-0.2 0.267v0zM4.533 13.467v-1c0-0.067 0-0.067 0-0.133v-0.333c0 0 0-0.067 0-0.067v-0.067c0 0 0-0.067 0-0.067v-0.2c0 0 0-0.067 0-0.067v-0.133c0 0 0-0.067 0-0.067v-0.2c0 0 0-0.067 0-0.067v-0.2c0 0 0-0.067 0-0.067v-0.267c0 0 0-0.067 0-0.067l0.467-0.467c0.333 0.267 0.333 0.2 0.4 0.2l0.067-0.067c0.2-0.2 0.4-0.4 0.6-0.533 0.133-0.067 0.267-0.133 0.4-0.2h0.067c0.467 0.267 0.933 0.333 1.467 0.333s1.067-0.133 1.467-0.333c0 0 0 0 0.067 0 0.133 0.067 0.2 0.133 0.333 0.2s0.267 0.2 0.333 0.267c0.133 0.133 0.267 0.267 0.4 0.4 0 0 0.067 0.067 0.067 0.067l0.333 0.333c0 0 0 0.067 0.067 0.067v0.067c0 0 0 0.067 0 0.067v1.533c0 0 0 0.067 0 0.067v0.2c0 0.067 0 0.067 0 0.133v1l-6.533-0.333zM12.2 12.133c0-0.067 0-0.2 0-0.267v-0.067c0-0.067 0-0.067 0-0.133v-0.067c0-0.133-0.067-0.267-0.067-0.4v-0.067c0-0.067 0-0.067-0.067-0.133v0c0-0.067-0.067-0.067-0.067-0.133v0c0-0.067 0-0.067-0.067-0.133v-0.067c0 0 0-0.067-0.067-0.067v-0.067c-0.067-0.067-0.067-0.133-0.133-0.2v-0.067c0 0-0.067-0.067-0.067-0.067v-0.067c-0.067-0.067-0.133-0.133-0.133-0.267v-0.067c0 0-0.067-0.067-0.067-0.067v0c0-0.067-0.067-0.067-0.067-0.133 0 0 0 0 0 0-0.067-0.067-0.133-0.133-0.2-0.2v0c0 0-0.067-0.067-0.067-0.067v0c-0.067-0.067-0.133-0.133-0.2-0.2v0c-0.067 0-0.067-0.067-0.133-0.067v0c-0.067-0.067-0.133-0.133-0.2-0.133v0c-0.067 0-0.067-0.067-0.133-0.067v0c0.067-0.067 0.133-0.133 0.2-0.2v-0.067c0 0 0.067-0.067 0.067-0.067v0c0-0.067 0.067-0.067 0.067-0.133 0.667 0.067 1.333 0 1.933-0.333 1.2 0.6 2 1.8 2 3.133v1l-2.533-0.067z"></path>
</symbol>
<symbol id="icon_child" viewBox="0 0 16 16">
<title>child</title>
<path d="M14.533 6.133c-0.867-2.8-3.467-4.8-6.533-4.8s-5.667 2-6.533 4.8c-0.867 0.267-1.467 1.067-1.467 2s0.6 1.733 1.467 2c0.867 2.8 3.467 4.8 6.533 4.8s5.667-2 6.533-4.8c0.867-0.267 1.467-1.067 1.467-2s-0.6-1.733-1.467-2zM1.333 9.4c-0.467-0.267-0.733-0.733-0.733-1.267s0.267-1 0.733-1.267c-0.2 0.867-0.2 1.733 0 2.533v0zM8 14.333c-3.4 0-6.2-2.8-6.2-6.2 0-2.4 1.333-4.4 3.267-5.467 0.267 0.6 1.2 2.2 3.467 3.067 0.133 0.067 0.333 0 0.4-0.133 0 0 0 0 0 0 0.067-0.133 0-0.333-0.133-0.4-2-0.8-2.867-2.267-3.133-2.8 0.667-0.267 1.467-0.467 2.2-0.467 0.2 0.4 0.8 1.4 2 1.933 0.133 0.067 0.333 0 0.4-0.133 0 0 0 0 0 0 0.067-0.133 0-0.333-0.133-0.4-0.8-0.4-1.333-1-1.6-1.4 3.2 0.267 5.733 2.933 5.733 6.2-0.067 3.4-2.867 6.2-6.267 6.2zM14.667 9.4c0.133-0.867 0.133-1.733 0-2.533 0.467 0.267 0.733 0.733 0.733 1.267s-0.267 1-0.733 1.267zM5.467 7.8c0.733 0 1.267 0.6 1.267 1.267 0 0.133-0.133 0.333-0.267 0.333s-0.333-0.133-0.333-0.267c0 0 0 0 0 0 0-0.4-0.333-0.667-0.733-0.667-0.333 0-0.667 0.333-0.667 0.667 0 0.133-0.133 0.267-0.267 0.267s-0.267-0.133-0.267-0.267c0 0 0 0 0 0-0.067-0.8 0.533-1.333 1.267-1.333zM10.533 7.8c0.733 0 1.267 0.6 1.267 1.267 0 0.133-0.133 0.333-0.267 0.333s-0.333-0.133-0.333-0.267c0 0 0 0 0 0 0-0.4-0.333-0.667-0.733-0.667-0.333 0-0.667 0.333-0.667 0.667 0 0.133-0.133 0.267-0.267 0.267s-0.267-0.133-0.267-0.267c0 0 0 0 0 0 0-0.8 0.6-1.333 1.267-1.333zM9.8 11.067c0.133 0.133 0.133 0.333 0 0.4-0.467 0.533-1.067 0.8-1.8 0.8-0.667 0-1.333-0.267-1.8-0.733-0.133-0.133-0.133-0.333 0-0.4s0.333-0.133 0.4 0c0 0 0 0 0 0 0.733 0.733 2 0.733 2.733 0 0.2-0.2 0.4-0.2 0.467-0.067zM8.4 9.533c0.133 0 0.267 0.133 0.267 0.267s-0.133 0.267-0.267 0.267c0 0 0 0 0 0h-0.8c-0.133 0-0.267-0.133-0.267-0.267s0.133-0.267 0.267-0.267h0.8z"></path>
</symbol>
<symbol id="icon_pet" viewBox="0 0 16 16">
<title>pet</title>
<path d="M10.333 12.533c0.333 0.133 0.733 0 0.867-0.333 0.067-0.2 0.067-0.467-0.067-0.667l-1.6-2.467c-0.6-0.933-1.8-1.2-2.733-0.6-0.267 0.133-0.467 0.333-0.6 0.6l-1.533 2.467c-0.2 0.333-0.133 0.733 0.2 0.933 0.2 0.133 0.4 0.133 0.6 0.067 1.6-0.667 3.333-0.667 4.867 0v0zM10.533 8.467l1.6 2.467c0.533 0.867 0.267 2-0.533 2.533-0.533 0.333-1.133 0.4-1.733 0.133-1.267-0.533-2.667-0.533-3.867 0-0.933 0.4-2 0-2.4-0.933-0.267-0.533-0.2-1.2 0.133-1.733l1.6-2.467c0.933-1.467 2.867-1.867 4.333-0.933 0.333 0.267 0.667 0.533 0.867 0.933zM3.6 7.2c0.067-0.067 0.2-0.267 0.067-0.6-0.067-0.333-0.333-0.4-0.4-0.4-0.067 0.067-0.2 0.267-0.067 0.6 0.133 0.267 0.333 0.4 0.4 0.4v0zM4.067 8.2c-0.733 0.267-1.6-0.2-1.933-1.067s0-1.8 0.733-2.067c0.733-0.2 1.533 0.267 1.867 1.133s0 1.733-0.667 2zM6.867 5.533c0.267 0 0.6-0.333 0.6-0.867s-0.333-0.867-0.6-0.867c-0.267 0-0.533 0.333-0.533 0.867s0.267 0.867 0.533 0.867v0zM6.867 6.667c-0.933 0-1.733-0.933-1.733-2 0-1.133 0.8-2 1.733-2s1.733 0.933 1.733 2c0 1.133-0.733 2-1.733 2v0zM10.467 6.2c0.267 0.067 0.667-0.133 0.8-0.667 0.133-0.467 0-0.933-0.267-1s-0.667 0.133-0.8 0.667c-0.2 0.467 0 0.933 0.267 1v0zM10.067 7.267c-0.867-0.267-1.333-1.4-1-2.467s1.333-1.667 2.267-1.4c0.867 0.267 1.333 1.4 1 2.467-0.333 1.133-1.333 1.733-2.267 1.4v0zM12.933 8.133c-0.2 0.267-0.2 0.533-0.067 0.6 0.067 0.067 0.333 0 0.533-0.267s0.2-0.533 0.067-0.6c-0.067 0-0.333 0-0.533 0.267zM14.133 7c0.6 0.467 0.667 1.4 0.133 2.133s-1.467 0.933-2.133 0.467c-0.6-0.467-0.667-1.4-0.133-2.133 0.6-0.733 1.533-0.933 2.133-0.467z"></path>
</symbol>
<symbol id="icon_wc" viewBox="0 0 16 16">
<title>wc</title>
<path d="M4.067 4.067c0.667 0 1.2-0.533 1.2-1.2s-0.533-1.133-1.2-1.133c-0.667 0-1.2 0.533-1.2 1.2s0.6 1.133 1.2 1.133v0zM4.067 4.867c-1.067 0-2-0.867-2-2 0-1.067 0.867-2 2-2 1.067 0 2 0.867 2 2s-0.933 2-2 2v0zM11.133 4.067c0.667 0 1.2-0.533 1.2-1.2s-0.533-1.2-1.2-1.2-1.133 0.6-1.133 1.267c0 0.6 0.467 1.133 1.133 1.133v0zM11.133 4.867c-1.067 0-2-0.867-2-2s0.867-2 2-2c1.067 0 2 0.867 2 2s-0.933 2-2 2v0zM6.4 5.867c0-0.533-0.533-0.933-1.2-0.933h-2.267c-0.667 0-1.2 0.467-1.2 0.933v3.267h1.2v5.067h2.333v-5.067h1.2l-0.067-3.267zM2.133 10h-1.2v-4.133c0-1 0.867-1.733 2-1.733h2.333c1.067 0 2 0.8 2 1.733v4.133h-1.2v5.067h-3.933c0-0.067 0-5.067 0-5.067zM12.267 5.6c-0.133-0.4-0.6-0.667-1.133-0.667h-0.067c-0.533 0-0.933 0.267-1.133 0.667l-1.8 4.6h2.133v4h1.533v-4h2.2l-1.733-4.6zM15.267 11h-2.533v4h-3.133v-4h-2.533l0.2-0.533 2-5.133c0.267-0.733 1-1.2 1.867-1.2h0.067c0.867 0 1.6 0.467 1.867 1.2l2.2 5.667z"></path>
</symbol>
<symbol id="icon_carparking" viewBox="0 0 16 16">
<title>carparking</title>
<path d="M15.067 11.133h-0.267c0-1.067-0.867-1.933-1.933-1.933h-1.8l-1.133-2.533c-0.067-0.067-0.133-0.133-0.2-0.133h-6.867c-0.133 0-0.267 0.133-0.267 0.267v2.467h-0.467c-0.133 0-0.267 0.133-0.267 0.267v1.733h-0.933c-0.133 0-0.267 0.133-0.267 0.267 0 0 0 0 0 0v1.467c0 0.133 0.133 0.267 0.267 0.267h1.467c0.133 0.733 0.733 1.2 1.467 1.2s1.333-0.533 1.467-1.2h5.4c0.133 0.733 0.733 1.2 1.467 1.2s1.333-0.533 1.467-1.2h1.467c0.133 0 0.267-0.133 0.267-0.267v-1.467c-0.067-0.267-0.2-0.4-0.333-0.4 0 0 0 0 0 0zM5.067 7h4.467l1 2.2h-5.467v-2.2zM3.133 7h1.467v2.2h-1.467v-2.2zM3.867 13.8c-0.533 0-1-0.467-1-1s0.467-1 1-1c0.533 0 1 0.467 1 1-0.067 0.6-0.467 1-1 1zM12.133 13.8c-0.533 0-1-0.467-1-1s0.467-1 1-1c0.533 0 1 0.467 1 1 0 0.6-0.467 1-1 1zM14.867 12.6h-1.267c0 0 0 0 0 0 0-0.133-0.067-0.333-0.133-0.467v0c-0.067-0.067-0.067-0.133-0.133-0.2v0c-0.067-0.067-0.133-0.133-0.133-0.133v0c-0.067-0.067-0.133-0.067-0.2-0.133v0c-0.067-0.067-0.133-0.067-0.2-0.067h-0.067c-0.067 0-0.133-0.067-0.2-0.067v0c-0.067 0-0.133 0-0.267 0-0.067 0-0.133 0-0.267 0v0c-0.067 0-0.133 0.067-0.2 0.067h-0.067c-0.067 0-0.133 0.067-0.2 0.067v0c-0.067 0.067-0.133 0.067-0.2 0.133v0c-0.067 0.067-0.133 0.133-0.133 0.133v0c-0.067 0.067-0.067 0.133-0.133 0.2v0c-0.067 0.133-0.133 0.267-0.133 0.467 0 0 0 0 0 0h-5.667c0 0 0 0 0 0 0-0.133-0.067-0.333-0.133-0.467v0c-0.067-0.067-0.067-0.133-0.133-0.2v0c-0.067-0.067-0.133-0.133-0.133-0.133v0c-0.067-0.067-0.133-0.067-0.2-0.133v0c-0.067-0.067-0.133-0.067-0.2-0.067h-0.067c-0.067 0-0.133-0.067-0.2-0.067v0c-0.067 0-0.133 0-0.267 0-0.067 0-0.133 0-0.267 0v0c-0.067 0-0.133 0.067-0.2 0.067h-0.067c-0.067 0-0.133 0.067-0.2 0.067v0c-0.067 0.067-0.133 0.067-0.2 0.133v0c-0.067 0.067-0.133 0.133-0.133 0.133v0c-0.2 0-0.267 0.067-0.267 0.133v0c-0.067 0.133-0.133 0.267-0.133 0.467 0 0 0 0 0 0h-1.333v-1h1c0.133 0 0.267-0.133 0.267-0.267v-1.733h10.467c0.8 0 1.467 0.667 1.467 1.467 0 0.067 0 0.133 0 0.2 0 0.133 0.067 0.267 0.2 0.267 0 0 0 0 0.067 0h0.267c0 0.133 0 1.133 0 1.133zM12.4 6.733c1.467 0 2.667-1.2 2.667-2.667s-1.2-2.667-2.667-2.667c-1.467 0-2.667 1.2-2.667 2.667s1.2 2.667 2.667 2.667zM12.4 1.867c1.2 0 2.2 1 2.2 2.2s-1 2.2-2.2 2.2-2.2-1-2.2-2.2 1-2.2 2.2-2.2z"></path>
<path d="M11.933 4.267h1.2c0.133 0 0.267-0.133 0.267-0.267v-0.933c0-0.133-0.133-0.267-0.267-0.267v0h-1.733v2.467h0.467c0.067 0 0.067-1 0.067-1zM11.933 3.333h1v0.467h-1v-0.467z"></path>
</symbol>
<symbol id="icon_smoke" viewBox="0 0 16 16">
<title>smoke</title>
<path d="M13.2 10.533h-12.133c-0.2 0-0.4 0.2-0.4 0.4 0 0 0 0 0 0v2.4c0 0.2 0.2 0.4 0.4 0.4h12.067c0.2 0 0.4-0.2 0.4-0.4 0 0 0 0 0 0v-2.4c0.067-0.2-0.133-0.4-0.333-0.4 0 0 0 0 0 0zM3.533 12.933h-2.067v-1.6h2.067v1.6zM10.933 12.933h-6.6v-1.6h6.6v1.6zM12.733 12.933h-1v-1.6h1v1.6zM14.4 5.467c0.667 0.667 0.933 1.333 0.933 2.067 0 1.2-0.933 2-0.933 2-0.067 0.067-0.4 0.2-0.6 0-0.133-0.133-0.133-0.4 0-0.6 0 0 0.667-0.6 0.667-1.467 0-0.533-0.2-1-0.733-1.467-0.667-0.667-1-1.4-0.933-2.133 0.067-1.133 0.933-1.8 1-1.867 0.2 0 0.467 0 0.6 0.2 0 0 0 0 0 0 0.133 0.2 0.133 0.4-0.067 0.6 0 0-0.667 0.533-0.667 1.267 0 0.467 0.2 0.933 0.733 1.4zM12.533 5.467c0.667 0.667 0.933 1.333 0.933 2.067 0 1.2-0.933 2-0.933 2-0.067 0.067-0.4 0.2-0.6 0-0.133-0.133-0.133-0.4 0-0.6 0 0 0.667-0.6 0.667-1.467 0-0.533-0.2-1-0.733-1.467-0.667-0.667-1-1.4-0.933-2.133 0.067-1.133 0.933-1.8 1-1.867 0.2 0 0.467 0 0.6 0.2 0 0 0 0 0 0 0.133 0.2 0.133 0.4-0.067 0.6 0 0-0.667 0.533-0.667 1.267 0 0.467 0.267 0.933 0.733 1.4z"></path>
</symbol>
<symbol id="icon_seat" viewBox="0 0 16 16">
<title>seat</title>
<path d="M15.133 8.533c-0.067 0.267-0.267 0.4-0.533 0.4h-0.2l1.133 2.733c0.133 0.267 0 0.6-0.267 0.733s-0.6 0-0.733-0.267l-1.067-2.533h-1.667l-1.067 2.533c-0.133 0.267-0.4 0.4-0.733 0.267-0.267-0.133-0.4-0.4-0.267-0.733l1.133-2.733h-0.2c-0.267 0-0.533-0.267-0.533-0.533s0.267-0.533 0.533-0.533h3.4l0.733-3.467c0.067-0.267 0.333-0.467 0.6-0.4s0.467 0.333 0.4 0.6c0 0 0 0 0 0.067l-0.667 3.867zM5.067 8.933l1.133 2.733c0.133 0.267 0 0.6-0.267 0.733s-0.6 0-0.733-0.267l-1.067-2.533h-1.667l-1.067 2.533c-0.133 0.267-0.4 0.4-0.733 0.267s-0.333-0.4-0.2-0.667l1.133-2.733h-0.2c-0.267 0-0.467-0.2-0.533-0.4l-0.867-3.933c-0.067-0.267 0.133-0.6 0.4-0.667s0.6 0.133 0.667 0.4l0.733 3.467h3.4c0.267 0 0.533 0.267 0.533 0.533s-0.267 0.533-0.533 0.533h-0.133zM8.867 11.2c0.267 0 0.533 0.267 0.533 0.6s-0.267 0.6-0.533 0.6h-1.667c-0.267 0-0.533-0.267-0.533-0.6s0.267-0.6 0.533-0.6h0.333v-5.333h-2.933c-0.267 0-0.533-0.267-0.533-0.6s0.2-0.6 0.533-0.6h6.867c0.267 0 0.533 0.267 0.533 0.6s-0.267 0.6-0.533 0.6h-2.867v5.333c-0.067 0 0.267 0 0.267 0z"></path>
</symbol>
<symbol id="icon_socket" viewBox="0 0 16 16">
<title>socket</title>
<path d="M13.933 2h-6.133c-0.8 0-1.4 0.667-1.4 1.4v6.267c0 0.8 0.6 1.4 1.4 1.4h6.133c0.8 0 1.4-0.667 1.4-1.4v-6.267c0-0.733-0.6-1.4-1.4-1.4zM13.6 6.533c0 1.533-1.2 2.733-2.733 2.733s-2.733-1.267-2.733-2.733c0-1.533 1.2-2.733 2.733-2.733s2.733 1.2 2.733 2.733zM12.733 6.267v0.467c0 0.333-0.267 0.533-0.533 0.533h-0.467c-0.333 0-0.533-0.267-0.533-0.533v-0.467c0-0.333 0.267-0.533 0.533-0.533h0.467c0.333 0 0.533 0.267 0.533 0.533zM10.533 6.267v0.467c0 0.333-0.267 0.533-0.533 0.533 0 0 0 0 0 0h-0.467c-0.333 0-0.533-0.267-0.533-0.533 0 0 0 0 0 0v-0.467c0-0.333 0.267-0.533 0.533-0.533h0.467c0.267 0 0.533 0.267 0.533 0.533v0zM14.667 12.8c0 0.333-0.267 0.533-0.533 0.533 0 0 0 0 0 0h-8.8c-1.533 0-2.733-1.267-2.733-2.8v-2.267c-0.867-0.2-1.533-0.933-1.533-1.867v-1.267c-0.267-0.067-0.4-0.333-0.4-0.533 0-0.333 0.267-0.6 0.533-0.6h0.467v-1.067c0-0.333 0.267-0.533 0.533-0.533s0.533 0.267 0.533 0.533v1.067h0.8v-1.067c0-0.333 0.267-0.533 0.533-0.533 0.333 0 0.533 0.267 0.533 0.533v1.067h0.467c0.333 0 0.533 0.267 0.533 0.533s-0.133 0.467-0.4 0.533v1.267c0 0.933-0.667 1.733-1.533 1.867v2.267c0 0.933 0.733 1.667 1.667 1.667h8.8c0.333 0.067 0.533 0.333 0.533 0.667v0z"></path>
</symbol>
<symbol id="icon_allday" viewBox="0 0 16 16">
<title>allday</title>
<path d="M7.2 2.6v0c-0.267-0.067-0.467-0.2-0.667-0.267v-0.067c-2.667 0.533-4.667 2.933-4.667 5.733 0 3.2 2.6 5.867 5.867 5.867 1.467 0 2.933-0.533 4-1.6l0.8 0.867c-1.333 1.2-3 1.933-4.8 1.933-3.867-0.067-7.067-3.2-7.067-7.067 0-3.733 2.933-6.8 6.533-7.067v-0.733c0-0.067 0.067-0.2 0.2-0.2 0.067 0 0.067 0 0.067 0l2.133 1.4c0.067 0.067 0.133 0.2 0.067 0.267 0 0 0 0.067-0.067 0.067l-2.133 1.4c-0.067 0.067-0.2 0.067-0.267-0.067 0 0 0-0.067 0-0.133 0 0.133 0-0.333 0-0.333zM5.333 8.667c0.933-0.933 1.4-1.4 1.4-1.933 0-0.4-0.2-0.6-0.6-0.6-0.2 0-0.4 0.067-0.6 0.2-0.133 0.133-0.333 0.067-0.4-0.067 0 0 0 0 0-0.067l-0.067-0.133c-0.067-0.067-0.067-0.2 0.067-0.333 0.333-0.267 0.733-0.4 1.133-0.4 0.933 0 1.333 0.667 1.333 1.267 0 0.8-0.6 1.4-1.4 2.2h1.2c0.133 0 0.267 0.133 0.267 0.267v0.2c0 0.133-0.133 0.267-0.267 0.267h-2.2c-0.133 0-0.267-0.133-0.267-0.267v-0.133c0-0.067 0-0.133 0.067-0.2l0.333-0.267zM9.467 5.467c0 0 0 0 0 0h0.267c0.133 0 0.267 0.133 0.267 0.267v2.133h0.267c0.133 0 0.267 0.133 0.267 0.267v0.2c0 0.133-0.133 0.267-0.267 0.267h-0.267v0.8c0 0.133-0.133 0.267-0.267 0.267h-0.267c-0.133 0-0.267-0.133-0.267-0.267v-0.8h-1.533c-0.133 0-0.267-0.133-0.267-0.267v-0.2c0-0.067 0-0.133 0.067-0.133l1.667-2.4c0.067-0.067 0.133-0.133 0.2-0.133h0.133c0 0 0 0 0 0zM9.2 7.867v-1.2c-0.267 0.4-0.6 0.933-0.8 1.2 0 0 0.8 0 0.8 0zM13.733 4.333l-1 0.6c-0.2-0.333-0.467-0.667-0.733-0.933l0.867-0.8c0.333 0.333 0.667 0.733 0.867 1.133v0zM13.533 7.2c-0.067-0.4-0.133-0.733-0.267-1.133l1.133-0.4c0.133 0.467 0.267 0.867 0.333 1.333l-1.2 0.2zM12.267 11.667c0.267-0.333 0.467-0.6 0.667-0.933l1.067 0.533c-0.2 0.4-0.467 0.8-0.8 1.133 0 0.067-0.933-0.733-0.933-0.733zM13.6 8.4l1.2 0.067c-0.067 0.467-0.133 0.933-0.267 1.4l-1.133-0.333c0.067-0.333 0.133-0.733 0.2-1.133z"></path>
</symbol>
<symbol id="icon_check" viewBox="0 0 16 16">
<title>check</title>
<path d="M6 10.8l-2.8-2.8-0.933 0.933 3.733 3.733 8-8-0.933-0.933-7.067 7.067z"></path>
</symbol>
<symbol id="icon_filter" viewBox="0 0 16 16">
<title>filter</title>
<path d="M2.4 3.867h2c0.2 0.667 0.8 1.133 1.467 1.133 0.733 0 1.267-0.467 1.467-1.133h6.267c0.2 0 0.4-0.2 0.4-0.4s-0.2-0.4-0.4-0.4h-6.267c-0.2-0.6-0.8-1.067-1.467-1.067-0.733 0-1.333 0.467-1.467 1.133h-2c-0.2 0-0.4 0.2-0.4 0.4s0.2 0.333 0.4 0.333zM5.867 2.8c0.4 0 0.733 0.333 0.733 0.733s-0.333 0.733-0.733 0.733-0.733-0.333-0.733-0.733c0-0.4 0.333-0.733 0.733-0.733zM13.6 7.333c0.2 0 0.4 0.2 0.4 0.4s-0.2 0.4-0.4 0.4h-2.533c-0.2 0.667-0.8 1.133-1.467 1.133s-1.267-0.467-1.467-1.133h-5.733c-0.2 0-0.4-0.2-0.4-0.4 0-0.267 0.2-0.4 0.4-0.4h5.733c0.2-0.667 0.8-1.133 1.467-1.133 0.733 0 1.267 0.467 1.467 1.133h2.533zM9.6 8.467c0.4 0 0.733-0.4 0.667-0.8 0-0.4-0.333-0.667-0.667-0.667-0.4 0-0.733 0.333-0.733 0.733s0.333 0.733 0.733 0.733zM13.6 11.533c0.2 0 0.4 0.2 0.4 0.4s-0.2 0.4-0.4 0.4h-6.267c-0.2 0.667-0.8 1.133-1.467 1.133s-1.267-0.467-1.467-1.133h-2c-0.2 0-0.4-0.2-0.4-0.4s0.2-0.4 0.4-0.4h2c0.2-0.667 0.8-1.133 1.467-1.133 0.733 0 1.267 0.467 1.467 1.133h6.267zM5.867 12.667c0.4 0 0.733-0.333 0.733-0.733s-0.333-0.733-0.733-0.733-0.733 0.333-0.733 0.733c0 0.4 0.333 0.733 0.733 0.733z"></path>
</symbol>
<symbol id="icon_search" viewBox="0 0 16 16">
<title>search</title>
<path d="M6.6 11.867c-2.867 0-5.267-2.333-5.267-5.267 0-2.867 2.4-5.267 5.267-5.267 2.933 0 5.267 2.333 5.267 5.267 0 1.133-0.333 2.2-1 3.067l3.533 3.533c0.333 0.333 0.333 0.867-0.067 1.2-0.333 0.333-0.867 0.333-1.2 0l-3.533-3.533c-0.8 0.667-1.867 1-3 1v0zM6.6 3.067c-1.933 0-3.533 1.6-3.533 3.533 0 2 1.6 3.533 3.533 3.533s3.533-1.6 3.533-3.533c0 0 0 0 0 0 0.067-1.933-1.533-3.533-3.533-3.533v0z"></path>
</symbol>
<symbol id="icon_user" viewBox="0 0 16 16">
<title>user</title>
<path d="M15.333 8c0-4.067-3.267-7.333-7.333-7.333s-7.333 3.267-7.333 7.333c0 2.133 0.933 4.067 2.4 5.4v0l0.267 0.2c0 0 0 0 0.067 0.067 0.133 0.133 0.267 0.2 0.4 0.333 0.2 0.133 0.4 0.267 0.6 0.4l0.067 0.067c0.133 0.067 0.333 0.2 0.533 0.267h0.067c0.733 0.333 1.6 0.6 2.4 0.667h0.067c0.2 0 0.4 0 0.6 0s0.4 0 0.6 0c0 0 0.067 0 0.067 0 0.2 0 0.4-0.067 0.6-0.067h0.067c0.6-0.133 1.2-0.267 1.733-0.533h0.067c0.333-0.2 0.667-0.333 1-0.6 0.067 0 0.067-0.067 0.133-0.133 0.133-0.067 0.2-0.2 0.333-0.267 0 0 0.067-0.067 0.067-0.067l0.267-0.2c1.4-1.467 2.267-3.467 2.267-5.533zM1.2 8c0-3.733 3.067-6.8 6.8-6.8s6.8 3.067 6.8 6.8c0 2-0.867 3.867-2.267 5.067-0.067-0.067-0.133-0.133-0.267-0.133l-2.267-1.133c-0.2-0.133-0.333-0.333-0.333-0.533v-0.8c0.067-0.067 0.133-0.133 0.133-0.2 0.267-0.4 0.533-0.867 0.667-1.333 0.333-0.133 0.533-0.467 0.533-0.867v-0.933c0-0.2-0.067-0.467-0.267-0.6v-1.333c0-0.133 0.067-0.933-0.533-1.533-0.467-0.533-1.267-0.867-2.333-0.867s-1.867 0.267-2.333 0.867c-0.533 0.667-0.533 1.4-0.533 1.533v1.267c-0.133 0.2-0.267 0.4-0.267 0.6v0.933c0 0.267 0.133 0.6 0.333 0.733 0.2 0.867 0.667 1.467 0.8 1.733v0.8c0 0.2-0.133 0.4-0.333 0.533l-2.133 1.133c-0.067 0.067-0.133 0.067-0.2 0.133-1.2-1.267-2-3.133-2-5.067z"></path>
</symbol>
</defs>
</svg>
